<svg version="1.1" id="Layer_1" xmlns="http://www.w3.org/2000/svg" xmlns:xlink="http://www.w3.org/1999/xlink" x="0px" y="0px"
	 width="100%" viewBox="0 0 750 750" enable-background="new 0 0 750 750" xml:space="preserve">
<path fill="#000000" opacity="1.000000" stroke="none" 
	d="
M455.000000,751.000000 
	C303.333344,751.000000 152.166672,751.000000 1.000000,751.000000 
	C1.000000,501.000000 1.000000,251.000000 1.000000,1.000000 
	C251.000000,1.000000 501.000000,1.000000 751.000000,1.000000 
	C751.000000,251.000000 751.000000,501.000000 751.000000,751.000000 
	C652.500000,751.000000 554.000000,751.000000 455.000000,751.000000 
M230.784729,449.358734 
	C245.728989,455.600891 261.154816,455.576691 276.480194,451.749176 
	C284.585419,449.724884 292.244934,445.915894 300.742432,443.217163 
	C304.050812,445.228577 308.532135,446.476501 310.436340,449.401917 
	C315.178955,456.687866 319.077972,464.587097 322.697571,472.522064 
	C326.426880,480.697449 326.621185,489.211334 321.450867,496.943176 
	C314.365234,507.539307 308.395264,518.321716 306.640106,531.377686 
	C305.129669,542.613342 310.389160,553.212402 318.519470,558.220703 
	C326.696625,563.257874 335.510040,566.085999 344.929260,568.337830 
	C347.242645,583.009766 349.556030,597.681702 351.977112,613.036560 
	C344.182892,611.067871 337.517426,611.488037 331.304657,616.837036 
	C329.819031,616.224304 328.322083,615.062012 326.849701,615.092346 
	C319.892609,615.235779 312.942261,615.704956 305.989655,616.061401 
	C305.824738,616.069763 305.662720,616.124512 305.497864,616.146118 
	C300.647522,616.780701 295.811829,617.737244 290.942535,617.960693 
	C285.563568,618.207581 280.790863,621.187500 280.093109,625.510559 
	C279.250488,630.731140 281.023834,633.280701 287.603912,635.305481 
	C307.217834,641.340698 327.122131,640.373779 347.081207,637.482788 
	C355.095673,636.321899 363.128693,634.090515 371.120728,634.228821 
	C386.658691,634.497742 402.160400,636.606812 417.701660,637.010864 
	C435.751434,637.480103 453.830109,637.073730 471.890137,636.728577 
	C475.946442,636.651062 480.137451,635.703735 483.979340,634.345093 
	C488.697052,632.676636 489.661255,625.943420 485.511230,623.510620 
	C482.017853,621.462830 477.940491,619.962830 473.944641,619.319458 
	C466.905762,618.186096 459.864532,615.615295 452.568512,617.935974 
	C452.281281,618.027344 451.875916,617.953247 451.591522,617.817871 
	C443.018677,613.737305 434.508026,616.631226 425.388428,617.704346 
	C420.137848,610.964478 412.945160,611.343750 404.907806,612.915161 
	C405.502380,609.529419 405.982208,606.838928 406.446442,604.145813 
	C408.632202,591.466003 410.813660,578.785522 413.824310,566.013794 
	C417.890228,564.999146 422.130157,564.422241 425.989471,562.887939 
	C437.671753,558.243530 446.431000,548.877014 446.103271,534.829407 
	C445.808960,522.214478 440.985321,511.352417 433.884827,501.566925 
	C421.826599,484.949066 427.402588,473.577423 437.997589,458.837860 
	C438.484955,461.547882 438.834137,464.291443 439.481842,466.962585 
	C444.133484,486.146790 451.913849,503.936188 463.501617,519.971069 
	C470.351318,529.449402 478.337189,537.755005 488.314545,544.085876 
	C502.527618,553.104370 517.779785,557.371521 534.734070,556.121948 
	C544.291809,555.417419 553.274658,553.053772 561.746704,548.970947 
	C577.119385,541.562683 589.732971,530.278442 599.500488,516.684753 
	C616.876770,492.501678 627.303650,465.589905 627.090393,435.136444 
	C626.968689,417.754852 620.652161,403.062317 609.047180,390.689117 
	C591.641663,372.131378 569.425171,364.128540 544.436340,363.037598 
	C537.292480,362.725708 530.128723,362.871429 523.021240,362.035248 
	C524.259216,357.552032 525.911072,353.134766 526.638489,348.570221 
	C527.738220,341.669312 528.935242,334.645935 528.750305,327.710388 
	C528.468567,317.142059 527.040894,306.604309 526.762451,296.244446 
	C535.161011,300.531494 543.559570,304.818512 551.994629,309.858887 
	C554.874939,314.368164 557.755310,318.877472 561.056396,324.045380 
	C555.139526,335.820831 559.264832,347.724609 571.111694,354.458801 
	C583.645935,361.583649 597.694824,361.202148 606.538452,349.195648 
	C611.120056,356.783417 626.637024,363.219940 636.547119,358.106049 
	C638.938110,356.872253 641.470459,355.912354 644.812195,354.979523 
	C650.219971,355.876740 654.392700,353.981201 657.842834,349.739655 
	C660.960205,345.907257 664.518616,342.437500 667.770325,338.709900 
	C680.006226,324.683228 695.781372,315.201324 711.003113,305.025055 
	C721.618042,297.928650 732.547119,291.119995 739.853760,280.322083 
	C748.813965,267.080292 750.779724,252.314178 747.999268,236.756805 
	C745.132568,220.716904 736.729309,207.948349 724.111816,198.105957 
	C711.486267,188.257187 696.224487,184.882629 680.767090,184.232468 
	C664.055847,183.529587 647.265808,184.607269 630.513184,185.030640 
	C624.750916,185.176270 618.926392,185.234695 613.255066,186.126526 
	C599.521057,188.286240 586.090393,186.427475 572.843079,183.301498 
	C554.463623,178.964478 537.366516,171.223785 520.748169,162.350632 
	C503.467163,153.123657 486.352478,143.526489 468.686554,135.093689 
	C444.805725,123.694214 419.037323,118.937080 392.860321,117.157822 
	C371.928589,115.735069 350.942383,117.106216 330.314453,121.123047 
	C308.180847,125.433075 286.764648,132.208054 266.708069,142.738968 
	C253.650620,149.594910 240.772644,156.792618 227.714584,163.647324 
	C220.687531,167.336136 213.450378,170.624680 206.009552,173.557358 
	C194.035858,156.818832 182.081253,140.066483 170.010086,123.398544 
	C169.581314,122.806480 167.998123,123.050468 166.274200,123.227112 
	C163.170059,131.829330 159.991699,140.405655 156.979385,149.039917 
	C152.592697,161.613586 148.325546,174.228943 143.145233,186.978882 
	C141.236786,186.652313 139.339859,186.161346 137.417969,186.026581 
	C127.082321,185.301880 116.735291,184.052475 106.401947,184.139816 
	C90.075127,184.277786 73.695000,184.685455 57.454227,186.217255 
	C45.768009,187.319489 34.880348,191.969147 25.786903,199.766632 
	C9.761119,213.508469 2.254574,230.989410 2.951132,252.153229 
	C3.498556,268.785889 10.744926,282.299164 23.223242,292.364380 
	C34.916656,301.796539 47.882877,309.668396 60.416901,318.035278 
	C70.810226,324.973083 79.455353,333.665436 87.716415,342.973206 
	C93.215599,349.169128 98.226677,357.266174 109.144371,355.732300 
	C122.860535,362.830505 135.011017,361.066528 145.293045,349.139221 
	C145.932144,350.038177 146.371552,350.837402 146.977051,351.480225 
	C153.904648,358.834686 162.399200,360.296570 171.988754,358.804474 
	C173.198639,362.263275 174.488907,365.696411 175.603104,369.185760 
	C178.757751,379.065277 181.840302,388.967804 184.169754,399.072968 
	C182.221909,399.383575 180.240311,399.559448 178.334320,400.037079 
	C175.630432,400.714630 172.783371,401.233521 170.353470,402.502075 
	C165.890884,404.831787 166.602859,409.221771 167.308304,413.104675 
	C168.009827,416.965851 170.825714,418.388489 174.730835,418.024200 
	C182.786942,417.272675 190.856461,416.664612 198.958908,416.724945 
	C199.002075,417.451416 199.045258,418.177856 198.688843,419.459747 
	C194.321671,422.113739 191.879654,426.115021 190.535797,430.936340 
	C187.669724,441.218872 195.114532,453.139648 204.974075,454.854614 
	C205.315796,457.273651 205.530930,459.718719 206.022385,462.106934 
	C207.656143,470.046265 209.389221,477.965179 210.934052,486.714752 
	C211.002029,490.762970 210.439407,494.950348 211.294479,498.824860 
	C212.412476,503.890839 218.441315,508.019440 223.090851,507.985962 
	C228.853104,507.944427 234.525818,503.661652 236.517181,497.849365 
	C238.507538,492.040009 236.896072,486.585876 232.378906,482.178436 
	C232.587433,480.570953 233.098190,478.935974 232.954865,477.360504 
	C232.096512,467.925232 231.087631,458.503662 230.784729,449.358734 
z"/>
<path fill="#FF7F8C" opacity="1.000000" stroke="none" 
	d="
M526.099792,296.053558 
	C527.040894,306.604309 528.468567,317.142059 528.750305,327.710388 
	C528.935242,334.645935 527.738220,341.669312 526.638489,348.570221 
	C525.911072,353.134766 524.259216,357.552032 522.655396,362.598114 
	C520.982239,363.726257 519.718262,364.632629 518.361023,364.805023 
	C501.228363,366.980927 484.559113,370.685669 469.175140,378.827087 
	C465.689606,375.224060 462.310089,371.969299 459.128784,368.446350 
	C475.594299,359.153320 480.729218,343.162354 472.129791,328.308044 
	C464.566223,315.243042 449.597260,309.807281 435.613861,315.047943 
	C421.388092,320.379456 413.222076,334.647675 416.063660,349.221252 
	C417.817230,358.214752 423.572052,364.138031 430.954102,369.069061 
	C429.593750,370.470459 428.372223,371.569305 427.080322,372.578064 
	C422.191040,376.395630 420.172546,381.386047 421.110138,387.486206 
	C422.510101,396.594513 432.913177,404.598724 443.693756,405.372345 
	C441.352020,412.919464 437.809052,420.023773 437.166992,427.381256 
	C436.285278,437.484711 437.601410,447.779938 437.975769,457.993011 
	C427.402588,473.577423 421.826599,484.949066 433.884827,501.566925 
	C440.985321,511.352417 445.808960,522.214478 446.103271,534.829407 
	C446.431000,548.877014 437.671753,558.243530 425.989471,562.887939 
	C422.130157,564.422241 417.890228,564.999146 413.009888,565.948547 
	C409.790405,566.290527 407.385315,566.697754 404.556030,567.071960 
	C397.014099,567.692688 389.907532,568.680969 382.775879,568.919250 
	C372.859772,569.250549 362.924866,569.019653 352.749756,568.733093 
	C349.963440,568.128784 347.425385,567.820862 344.887329,567.512817 
	C335.510040,566.085999 326.696625,563.257874 318.519470,558.220703 
	C310.389160,553.212402 305.129669,542.613342 306.640106,531.377686 
	C308.395264,518.321716 314.365234,507.539307 321.450867,496.943176 
	C326.621185,489.211334 326.426880,480.697449 322.697571,472.522064 
	C319.077972,464.587097 315.178955,456.687866 310.436340,449.401917 
	C308.532135,446.476501 304.050812,445.228577 300.297821,442.751282 
	C297.320068,440.824432 294.786896,439.363495 292.084229,437.595215 
	C284.466461,431.215302 276.743225,425.444458 269.650513,418.981659 
	C263.096008,413.009338 257.217163,406.295563 251.020111,399.553436 
	C249.005554,396.460541 247.011658,393.722473 244.916443,390.651001 
	C239.930984,381.213135 235.046860,372.108673 230.102051,362.538788 
	C230.253510,350.116089 230.498962,338.159302 230.671371,326.201447 
	C231.131409,294.294708 231.252548,262.378510 232.189682,230.486084 
	C232.468628,220.993423 230.009811,212.881378 225.296860,205.065903 
	C222.465256,200.370255 219.629852,195.676697 216.762009,191.003128 
	C213.296204,185.355133 209.794296,179.729279 206.308014,174.093826 
	C213.450378,170.624680 220.687531,167.336136 227.714584,163.647324 
	C240.772644,156.792618 253.650620,149.594910 266.708069,142.738968 
	C286.764648,132.208054 308.180847,125.433075 330.314453,121.123047 
	C350.942383,117.106216 371.928589,115.735069 392.860321,117.157822 
	C419.037323,118.937080 444.805725,123.694214 468.686554,135.093689 
	C486.352478,143.526489 503.467163,153.123657 520.748169,162.350632 
	C537.366516,171.223785 554.463623,178.964478 572.843079,183.301498 
	C586.090393,186.427475 599.521057,188.286240 613.255066,186.126526 
	C618.926392,185.234695 624.750916,185.176270 630.513184,185.030640 
	C647.265808,184.607269 664.055847,183.529587 680.767090,184.232468 
	C696.224487,184.882629 711.486267,188.257187 724.111816,198.105957 
	C736.729309,207.948349 745.132568,220.716904 747.999268,236.756805 
	C750.779724,252.314178 748.813965,267.080292 739.853760,280.322083 
	C732.547119,291.119995 721.618042,297.928650 711.003113,305.025055 
	C695.781372,315.201324 680.006226,324.683228 667.770325,338.709900 
	C664.518616,342.437500 660.960205,345.907257 657.842834,349.739655 
	C654.392700,353.981201 650.219971,355.876740 644.203613,354.616669 
	C638.691040,348.936768 638.807312,346.823486 643.967285,341.451233 
	C646.466553,338.849182 648.904236,336.149536 651.020264,333.239899 
	C651.710022,332.291504 651.862549,330.102234 651.226868,329.273010 
	C650.555603,328.397430 648.427429,327.854218 647.331116,328.252991 
	C645.072021,329.074677 643.076294,330.620087 640.611389,331.949524 
	C636.602234,333.529449 632.965820,334.750732 629.788513,331.102203 
	C624.965149,325.563538 627.096130,318.381104 634.122131,316.102356 
	C637.080627,315.142792 640.052002,314.071930 642.764771,312.589233 
	C643.700134,312.078033 644.549866,309.913269 644.198364,308.962341 
	C643.841431,307.996643 641.990417,307.139709 640.729675,307.039093 
	C637.591980,306.788727 634.414185,307.102234 631.259155,306.994385 
	C626.375732,306.827515 623.075806,303.991180 623.013672,300.109680 
	C622.946899,295.940582 626.366760,292.707764 631.378357,293.045837 
	C635.118347,293.298126 638.763794,294.815796 642.508972,295.184021 
	C644.317749,295.361908 646.921265,294.722443 647.932068,293.463348 
	C648.747925,292.447174 648.219849,289.659668 647.376892,288.175323 
	C646.264587,286.216736 643.820435,285.006653 642.738831,283.040253 
	C640.815796,279.543945 639.486389,275.721191 638.091797,271.739960 
	C639.551514,270.267273 640.828125,269.089600 642.491455,267.948975 
	C646.110291,269.683655 649.831726,270.827148 652.490051,273.174591 
	C664.127441,283.451050 676.687622,290.626312 693.017151,288.020599 
	C709.786316,285.344696 723.994507,271.015625 725.819885,254.579315 
	C727.776306,236.963486 716.293579,220.893524 699.968384,214.070526 
	C682.951294,206.958389 665.397583,208.243057 647.870239,211.611725 
	C632.587830,214.548904 617.391296,217.929428 602.131104,220.985703 
	C584.478760,224.521042 567.012024,228.624680 550.899841,237.027878 
	C537.163940,244.191742 526.245178,253.794769 523.018188,270.332031 
	C521.732117,279.467865 522.796997,287.898499 526.099792,296.053558 
M322.369598,368.213928 
	C326.235718,365.145142 330.828156,362.655792 333.827789,358.895752 
	C341.896423,348.781860 341.150177,334.436249 332.801727,324.407837 
	C323.203033,312.877563 309.182007,309.838318 296.019043,316.434753 
	C283.004517,322.956757 276.453918,336.522980 279.487122,349.956116 
	C281.526917,358.989868 287.568970,364.513702 294.897095,369.705261 
	C293.731384,370.585236 292.594269,371.506470 291.395477,372.338806 
	C279.956696,380.281128 278.958496,394.440338 289.347290,401.557648 
	C299.566437,408.558655 318.032745,407.068573 327.066559,398.513947 
	C337.888031,388.266510 336.443298,376.994293 323.421448,369.942078 
	C322.865662,369.641052 322.424255,369.128815 322.369598,368.213928 
M418.114777,457.916992 
	C413.367798,458.524475 408.530945,460.019531 403.893066,459.549805 
	C394.962036,458.645325 386.980316,455.146545 380.679291,448.213959 
	C376.742065,443.882141 374.289642,443.956543 370.234344,448.294769 
	C360.436676,458.775879 348.207123,460.288696 334.932526,458.474976 
	C333.752899,458.313843 332.532104,458.453613 330.240173,458.453613 
	C333.431671,464.665924 335.911682,470.268524 339.064148,475.463013 
	C345.029053,485.291565 345.442719,494.693237 338.538696,504.274994 
	C336.127777,507.620941 334.021332,511.335968 332.544525,515.177917 
	C327.558868,528.148132 331.365814,538.852478 345.104248,543.156738 
	C365.880310,549.665833 386.864960,548.373596 407.509094,543.090088 
	C420.391541,539.793030 425.454559,527.006897 419.879517,514.895264 
	C417.939270,510.680115 415.650696,506.568756 413.057220,502.722900 
	C408.035675,495.276367 406.485443,487.703796 410.328705,479.207458 
	C413.472290,472.257996 416.156250,465.100616 419.302856,457.913269 
	C419.188538,457.925964 419.074249,457.938690 418.114777,457.916992 
M281.756470,172.553192 
	C284.553223,174.772232 287.027313,177.797028 290.203369,179.068848 
	C302.985504,184.187317 314.802307,180.707413 325.311981,173.033310 
	C334.853882,166.065842 334.104736,157.586609 324.147675,151.017197 
	C311.986816,142.993805 291.623535,147.075104 283.570618,159.243820 
	C281.030304,163.082474 279.397491,167.218689 281.756470,172.553192 
M245.542847,179.385544 
	C245.030518,181.115036 244.225357,182.817184 244.060791,184.579163 
	C243.568741,189.847931 246.488861,194.436325 251.307007,196.420761 
	C257.536377,198.986420 265.493317,197.299789 269.576508,192.548203 
	C273.295135,188.220825 274.330383,181.784943 272.039307,177.237213 
	C269.612976,172.421005 265.155426,170.265778 258.642731,170.889725 
	C253.146881,171.416260 249.135834,174.432816 245.542847,179.385544 
M377.493805,378.401733 
	C370.862061,378.074768 367.614990,373.684387 365.248108,368.220978 
	C363.981445,365.297089 361.548248,363.855560 358.916504,365.563843 
	C357.538818,366.458069 356.398346,369.525482 356.850311,371.133850 
	C359.532471,380.678284 368.141510,387.415863 377.135956,387.613953 
	C385.933044,387.807739 394.172241,381.915649 397.720490,372.911041 
	C398.883698,369.959076 399.816345,366.908264 395.919647,365.377777 
	C392.276764,363.946960 390.411987,366.163513 389.209229,369.344482 
	C387.302795,374.386566 383.886749,377.687439 377.493805,378.401733 
z"/>
<path fill="#7BCDEA" opacity="1.000000" stroke="none" 
	d="
M437.986694,458.415436 
	C437.601410,447.779938 436.285278,437.484711 437.166992,427.381256 
	C437.809052,420.023773 441.352020,412.919464 443.890320,405.074951 
	C450.254913,393.747498 459.228302,385.925293 469.281158,379.175323 
	C484.559113,370.685669 501.228363,366.980927 518.361023,364.805023 
	C519.718262,364.632629 520.982239,363.726257 522.631836,362.984192 
	C530.128723,362.871429 537.292480,362.725708 544.436340,363.037598 
	C569.425171,364.128540 591.641663,372.131378 609.047180,390.689117 
	C620.652161,403.062317 626.968689,417.754852 627.090393,435.136444 
	C627.303650,465.589905 616.876770,492.501678 599.500488,516.684753 
	C589.732971,530.278442 577.119385,541.562683 561.746704,548.970947 
	C553.274658,553.053772 544.291809,555.417419 534.734070,556.121948 
	C517.779785,557.371521 502.527618,553.104370 488.314545,544.085876 
	C478.337189,537.755005 470.351318,529.449402 463.501617,519.971069 
	C451.913849,503.936188 444.133484,486.146790 439.481842,466.962585 
	C438.834137,464.291443 438.484955,461.547882 437.986694,458.415436 
M474.136322,494.347687 
	C480.300507,501.929779 485.632446,510.439209 492.815552,516.886047 
	C504.893280,527.725769 519.558838,533.122803 536.107239,530.708679 
	C556.583130,527.721558 571.860962,516.017090 583.872070,499.987061 
	C597.137817,482.282593 603.577026,462.159973 603.056519,439.865173 
	C602.665466,423.117920 595.074463,410.393463 582.088196,400.422791 
	C570.875549,391.813843 557.781189,388.464294 544.099548,386.826141 
	C523.643188,384.376831 503.932983,386.861023 485.624420,396.755463 
	C472.855103,403.656342 462.978119,413.645508 460.096161,428.196930 
	C458.556213,435.972168 459.379028,444.373016 460.101990,452.404510 
	C461.430176,467.160156 466.491669,480.840332 474.136322,494.347687 
z"/>
<path fill="#A7DBF8" opacity="1.000000" stroke="none" 
	d="
M144.007446,186.826538 
	C148.325546,174.228943 152.592697,161.613586 156.979385,149.039917 
	C159.991699,140.405655 163.170059,131.829330 166.641586,123.484238 
	C167.333572,125.364365 167.723297,126.977417 167.972733,128.611893 
	C170.566635,145.608017 173.116776,162.610855 175.722290,179.605194 
	C177.777222,193.008438 179.941833,206.394958 181.968735,219.802353 
	C184.563492,236.966003 187.018204,254.150879 189.629120,271.312012 
	C191.668304,284.715027 193.924316,298.085114 195.955429,311.489288 
	C198.283356,326.852417 200.521988,342.229614 202.701004,357.614624 
	C204.555725,370.710083 206.270798,383.825378 207.684052,397.128723 
	C202.241318,398.086334 197.179886,399.027832 192.075180,399.526886 
	C189.744492,399.754761 187.328537,399.110168 184.951248,398.861267 
	C181.840302,388.967804 178.757751,379.065277 175.603104,369.185760 
	C174.488907,365.696411 173.198639,362.263275 171.974930,358.033142 
	C170.984940,354.167969 170.008789,351.074188 169.019440,347.592438 
	C165.727036,337.075287 162.447800,326.946075 159.121338,316.441254 
	C158.056473,313.042114 157.038849,310.018585 156.016769,306.605255 
	C154.628754,301.804016 153.245193,297.392609 151.791931,292.618408 
	C150.152298,287.502838 148.582397,282.750000 147.005814,277.608521 
	C145.664246,273.145142 144.329376,269.070435 142.993530,264.607239 
	C141.623230,260.132446 140.253891,256.046173 138.808594,251.590179 
	C134.024033,240.151016 131.475220,228.904129 136.189438,216.807892 
	C137.974777,210.949371 139.563843,205.381653 141.001999,199.775253 
	C142.102692,195.484375 143.012650,191.144577 144.007446,186.826538 
z"/>
<path fill="#7ACDEA" opacity="1.000000" stroke="none" 
	d="
M208.047653,396.931885 
	C206.270798,383.825378 204.555725,370.710083 202.701004,357.614624 
	C200.521988,342.229614 198.283356,326.852417 195.955429,311.489288 
	C193.924316,298.085114 191.668304,284.715027 189.629120,271.312012 
	C187.018204,254.150879 184.563492,236.966003 181.968735,219.802353 
	C179.941833,206.394958 177.777222,193.008438 175.722290,179.605194 
	C173.116776,162.610855 170.566635,145.608017 167.972733,128.611893 
	C167.723297,126.977417 167.333572,125.364365 166.980957,123.323082 
	C167.998123,123.050468 169.581314,122.806480 170.010086,123.398544 
	C182.081253,140.066483 194.035858,156.818832 206.158783,173.825592 
	C209.794296,179.729279 213.296204,185.355133 216.762009,191.003128 
	C219.629852,195.676697 222.465256,200.370255 225.296860,205.065903 
	C230.009811,212.881378 232.468628,220.993423 232.189682,230.486084 
	C231.252548,262.378510 231.131409,294.294708 230.671371,326.201447 
	C230.498962,338.159302 230.253510,350.116089 230.029938,363.001282 
	C229.714996,373.613464 229.411484,383.297699 228.857224,393.278381 
	C221.753540,394.693848 214.900589,395.812866 208.047653,396.931885 
z"/>
<path fill="#FF7F8C" opacity="1.000000" stroke="none" 
	d="
M143.576340,186.902710 
	C143.012650,191.144577 142.102692,195.484375 141.001999,199.775253 
	C139.563843,205.381653 137.974777,210.949371 135.771118,216.771759 
	C130.600327,216.290909 126.067314,215.767456 121.625046,214.819046 
	C103.087425,210.861313 84.456795,208.193130 65.494972,211.036057 
	C52.829254,212.935013 41.207436,217.145432 33.392178,228.148163 
	C26.304491,238.126587 23.550392,249.067291 27.532293,260.994781 
	C30.625456,270.260101 36.651108,277.166534 44.870731,282.592285 
	C51.582127,287.022461 59.043331,289.116425 66.510201,288.727570 
	C79.621582,288.044769 90.561951,281.778442 100.112549,272.677582 
	C102.790855,270.125397 107.254639,269.446899 110.964935,268.229950 
	C112.009956,269.370422 112.989464,270.189911 113.975876,271.426392 
	C112.488419,275.546387 111.239395,279.377625 109.398605,282.899567 
	C108.444473,284.725128 105.993591,285.769226 105.042572,287.595337 
	C104.123909,289.359253 103.468613,292.044769 104.204338,293.623108 
	C104.736633,294.765076 107.790123,295.328918 109.616997,295.143402 
	C113.194229,294.780121 116.670067,293.293060 120.242561,293.038422 
	C125.336029,292.675385 128.829468,295.659515 128.987366,299.716095 
	C129.146957,303.816406 125.789154,306.816284 120.638268,306.989044 
	C117.486618,307.094818 114.311432,306.780914 111.179146,307.042572 
	C109.934639,307.146484 108.091820,308.069916 107.772812,309.034241 
	C107.451614,310.005219 108.342407,312.028168 109.305939,312.641327 
	C111.498634,314.036621 113.984932,315.109558 116.489128,315.848419 
	C122.291832,317.560547 125.663284,321.419739 124.832558,325.843262 
	C123.707306,331.835114 119.979370,334.067139 112.796677,332.661865 
	C109.960495,330.980682 107.438278,329.305695 104.678131,328.256775 
	C103.593437,327.844604 101.424500,328.418396 100.761414,329.302368 
	C100.130226,330.143799 100.364059,332.257874 101.020668,333.312347 
	C102.408791,335.541504 104.187950,337.575287 106.041740,339.457764 
	C112.978645,346.501953 113.014168,346.466980 108.797241,355.047760 
	C98.226677,357.266174 93.215599,349.169128 87.716415,342.973206 
	C79.455353,333.665436 70.810226,324.973083 60.416901,318.035278 
	C47.882877,309.668396 34.916656,301.796539 23.223242,292.364380 
	C10.744926,282.299164 3.498556,268.785889 2.951132,252.153229 
	C2.254574,230.989410 9.761119,213.508469 25.786903,199.766632 
	C34.880348,191.969147 45.768009,187.319489 57.454227,186.217255 
	C73.695000,184.685455 90.075127,184.277786 106.401947,184.139816 
	C116.735291,184.052475 127.082321,185.301880 137.417969,186.026581 
	C139.339859,186.161346 141.236786,186.652313 143.576340,186.902710 
z"/>
<path fill="#FF9DB2" opacity="1.000000" stroke="none" 
	d="
M642.104736,267.911957 
	C640.828125,269.089600 639.551514,270.267273 637.759155,271.684296 
	C634.876648,269.866577 632.706848,267.507050 630.104309,265.811859 
	C623.576721,261.559998 616.880127,262.227142 610.279175,265.866455 
	C603.515869,269.595245 596.900024,270.954468 590.623108,264.833435 
	C589.818604,264.048889 588.703613,263.513275 587.645447,263.070038 
	C582.714111,261.004242 579.944275,262.397552 577.974548,267.434937 
	C576.132812,272.145233 577.367310,276.135559 580.016785,280.094421 
	C583.069214,284.655457 582.192688,287.114349 577.056641,289.114319 
	C575.973328,289.536255 574.515564,289.559906 573.827576,290.312836 
	C572.532593,291.730011 570.438599,294.468201 570.856079,295.026001 
	C572.278320,296.926147 574.487488,298.550079 576.729431,299.386292 
	C577.785461,299.780182 579.987000,298.483368 580.991394,297.351105 
	C583.166199,294.899475 585.324463,292.264587 586.745300,289.342804 
	C591.925354,278.691132 601.842651,276.688751 611.544312,280.822113 
	C615.813660,282.641052 616.237244,286.979401 612.378662,289.665955 
	C610.787598,290.773743 608.806519,291.415131 606.916809,291.981262 
	C602.627625,293.266174 598.200500,294.135529 593.993225,295.633636 
	C591.075378,296.672577 588.826050,298.672760 589.665039,302.442841 
	C590.466980,306.046478 592.750122,307.091705 596.235535,307.071655 
	C599.854980,307.050812 603.559143,307.216400 607.078308,307.981323 
	C611.477905,308.937683 612.860229,312.470276 611.805359,316.460022 
	C610.789673,320.301636 607.689941,321.901825 603.745605,321.348511 
	C602.125183,321.121185 600.481384,320.639008 598.993835,319.955841 
	C591.180908,316.367523 584.022522,317.423950 577.779846,323.198151 
	C572.894287,327.717041 570.307739,335.398743 574.142090,342.192627 
	C576.991150,347.240692 584.438171,349.209839 591.003906,346.884521 
	C595.490112,345.295776 598.460632,342.390594 600.581055,338.048889 
	C604.139587,330.762482 606.834717,330.496948 612.534119,335.988403 
	C614.918640,338.285950 617.354248,340.602753 620.071472,342.466278 
	C624.469116,345.482147 629.536133,346.168457 634.208984,343.614929 
	C638.564758,341.234711 641.759216,337.527863 640.972168,331.867737 
	C643.076294,330.620087 645.072021,329.074677 647.331116,328.252991 
	C648.427429,327.854218 650.555603,328.397430 651.226868,329.273010 
	C651.862549,330.102234 651.710022,332.291504 651.020264,333.239899 
	C648.904236,336.149536 646.466553,338.849182 643.967285,341.451233 
	C638.807312,346.823486 638.691040,348.936768 643.766418,354.540161 
	C641.470459,355.912354 638.938110,356.872253 636.547119,358.106049 
	C626.637024,363.219940 611.120056,356.783417 606.538452,349.195648 
	C597.694824,361.202148 583.645935,361.583649 571.111694,354.458801 
	C559.264832,347.724609 555.139526,335.820831 561.056396,324.045380 
	C557.755310,318.877472 554.874939,314.368164 551.975220,309.057098 
	C551.690979,304.536285 550.997192,300.781799 551.300781,297.109772 
	C551.532104,294.311615 553.028564,291.618103 554.085571,288.566803 
	C557.566345,285.491425 560.923767,282.727264 564.747131,279.579498 
	C563.898804,260.534973 570.728943,253.339691 584.232788,250.271408 
	C589.506287,249.073166 598.208008,252.720200 601.397339,257.746918 
	C609.124268,250.492188 619.794189,249.921158 627.023376,254.743576 
	C632.528809,258.416046 637.111511,263.471710 642.104736,267.911957 
z"/>
<path fill="#141414" opacity="1.000000" stroke="none" 
	d="
M425.984497,618.027100 
	C434.508026,616.631226 443.018677,613.737305 451.591522,617.817871 
	C451.875916,617.953247 452.281281,618.027344 452.568512,617.935974 
	C459.864532,615.615295 466.905762,618.186096 473.944641,619.319458 
	C477.940491,619.962830 482.017853,621.462830 485.511230,623.510620 
	C489.661255,625.943420 488.697052,632.676636 483.979340,634.345093 
	C480.137451,635.703735 475.946442,636.651062 471.890137,636.728577 
	C453.830109,637.073730 435.751434,637.480103 417.701660,637.010864 
	C402.160400,636.606812 386.658691,634.497742 371.120728,634.228821 
	C363.128693,634.090515 355.095673,636.321899 347.081207,637.482788 
	C327.122131,640.373779 307.217834,641.340698 287.603912,635.305481 
	C281.023834,633.280701 279.250488,630.731140 280.093109,625.510559 
	C280.790863,621.187500 285.563568,618.207581 290.942535,617.960693 
	C295.811829,617.737244 300.647522,616.780701 305.497864,616.146118 
	C305.662720,616.124512 305.824738,616.069763 305.989655,616.061401 
	C312.942261,615.704956 319.892609,615.235779 326.849701,615.092346 
	C328.322083,615.062012 329.819031,616.224304 331.511383,617.261230 
	C327.483276,626.632568 330.706940,632.727661 340.248047,632.848145 
	C345.271393,632.911560 350.352234,631.894470 355.331665,630.962219 
	C360.098145,630.069946 363.014771,627.357483 362.447327,621.916626 
	C365.111450,621.640503 367.410767,621.079346 369.646423,621.268982 
	C373.476501,621.593750 377.276642,622.919739 381.071228,622.849243 
	C385.713654,622.763123 390.337433,621.671875 394.977478,621.433167 
	C394.212524,627.142151 396.924591,630.021667 401.754913,631.014099 
	C406.080078,631.902832 410.485260,632.832031 414.870667,632.914062 
	C426.179840,633.125610 429.482208,628.496765 425.984497,618.027100 
z"/>
<path fill="#310101" opacity="1.000000" stroke="none" 
	d="
M207.684052,397.128693 
	C214.900589,395.812866 221.753540,394.693848 229.261002,393.271423 
	C234.949600,392.306793 239.983673,391.645630 245.017761,390.984436 
	C247.011658,393.722473 249.005554,396.460541 251.006622,399.943237 
	C251.195511,404.768799 248.460419,406.847412 245.212570,407.692291 
	C238.567078,409.421021 231.776825,410.593323 224.615814,411.954712 
	C215.763779,413.275604 207.342117,414.636597 198.920456,415.997559 
	C190.856461,416.664612 182.786942,417.272675 174.730835,418.024200 
	C170.825714,418.388489 168.009827,416.965851 167.308304,413.104675 
	C166.602859,409.221771 165.890884,404.831787 170.353470,402.502075 
	C172.783371,401.233521 175.630432,400.714630 178.334320,400.037079 
	C180.240311,399.559448 182.221909,399.383575 184.560501,398.967102 
	C187.328537,399.110168 189.744492,399.754761 192.075180,399.526886 
	C197.179886,399.027832 202.241318,398.086334 207.684052,397.128693 
z"/>
<path fill="#AD270C" opacity="1.000000" stroke="none" 
	d="
M198.939682,416.361267 
	C207.342117,414.636597 215.763779,413.275604 224.607910,412.379822 
	C226.408432,421.873016 227.786469,430.900970 229.064789,440.351379 
	C229.353134,443.541687 229.741180,446.309601 230.129211,449.077484 
	C231.087631,458.503662 232.096512,467.925232 232.954865,477.360504 
	C233.098190,478.935974 232.587433,480.570953 232.080536,482.876770 
	C226.323822,492.751923 219.600098,493.504547 211.084213,485.891907 
	C209.389221,477.965179 207.656143,470.046265 206.022385,462.106934 
	C205.530930,459.718719 205.315796,457.273651 205.411011,454.450256 
	C215.804062,453.979065 222.313278,448.089630 222.943008,438.578552 
	C223.576324,429.013245 216.194092,419.236450 207.430237,418.397369 
	C204.690933,418.135101 201.871307,418.711731 199.088440,418.904358 
	C199.045258,418.177856 199.002075,417.451416 198.939682,416.361267 
z"/>
<path fill="#FF9DB2" opacity="1.000000" stroke="none" 
	d="
M108.970810,355.390015 
	C113.014168,346.466980 112.978645,346.501953 106.041740,339.457764 
	C104.187950,337.575287 102.408791,335.541504 101.020668,333.312347 
	C100.364059,332.257874 100.130226,330.143799 100.761414,329.302368 
	C101.424500,328.418396 103.593437,327.844604 104.678131,328.256775 
	C107.438278,329.305695 109.960495,330.980682 112.791534,333.077026 
	C113.525635,342.755585 119.529961,347.324677 127.731369,344.013550 
	C132.138962,342.234131 136.055328,338.866577 139.699814,335.655457 
	C145.153168,330.850555 147.477585,330.854340 150.559219,337.245331 
	C154.356140,345.119843 160.709198,348.130981 169.032623,347.980377 
	C170.008789,351.074188 170.984940,354.167969 171.914230,357.647339 
	C162.399200,360.296570 153.904648,358.834686 146.977051,351.480225 
	C146.371552,350.837402 145.932144,350.038177 145.293045,349.139221 
	C135.011017,361.066528 122.860535,362.830505 108.970810,355.390015 
z"/>
<path fill="#300000" opacity="1.000000" stroke="none" 
	d="
M425.686462,617.865723 
	C429.482208,628.496765 426.179840,633.125610 414.870667,632.914062 
	C410.485260,632.832031 406.080078,631.902832 401.754913,631.014099 
	C396.924591,630.021667 394.212524,627.142151 395.000122,621.021423 
	C396.353668,612.874512 397.662994,605.551758 399.039093,598.241516 
	C400.993744,587.857788 402.997467,577.483398 404.980225,567.104980 
	C407.385315,566.697754 409.790405,566.290527 412.596069,565.994263 
	C410.813660,578.785522 408.632202,591.466003 406.446442,604.145813 
	C405.982208,606.838928 405.502380,609.529419 404.907806,612.915161 
	C412.945160,611.343750 420.137848,610.964478 425.686462,617.865723 
z"/>
<path fill="#300000" opacity="1.000000" stroke="none" 
	d="
M362.053925,621.969360 
	C363.014771,627.357483 360.098145,630.069946 355.331665,630.962219 
	C350.352234,631.894470 345.271393,632.911560 340.248047,632.848145 
	C330.706940,632.727661 327.483276,626.632568 331.890137,617.344055 
	C337.517426,611.488037 344.182892,611.067871 351.977112,613.036560 
	C349.556030,597.681702 347.242645,583.009766 344.908295,567.925354 
	C347.425385,567.820862 349.963440,568.128784 352.750488,569.150757 
	C353.830444,574.569458 354.674133,579.271973 355.489899,583.979248 
	C357.684265,596.641541 359.866730,609.305847 362.053925,621.969360 
z"/>
<path fill="#310000" opacity="1.000000" stroke="none" 
	d="
M198.888641,419.182068 
	C201.871307,418.711731 204.690933,418.135101 207.430237,418.397369 
	C216.194092,419.236450 223.576324,429.013245 222.943008,438.578552 
	C222.313278,448.089630 215.804062,453.979065 205.415161,454.025513 
	C195.114532,453.139648 187.669724,441.218872 190.535797,430.936340 
	C191.879654,426.115021 194.321671,422.113739 198.888641,419.182068 
z"/>
<path fill="#FFB0BB" opacity="1.000000" stroke="none" 
	d="
M553.962158,288.878021 
	C553.028564,291.618103 551.532104,294.311615 551.300781,297.109772 
	C550.997192,300.781799 551.690979,304.536285 551.956970,308.680420 
	C543.559570,304.818512 535.161011,300.531494 526.431152,296.148987 
	C522.796997,287.898499 521.732117,279.467865 523.331055,270.454041 
	C531.928406,279.379486 541.721558,286.108215 553.962158,288.878021 
z"/>
<path fill="#310000" opacity="1.000000" stroke="none" 
	d="
M230.456970,449.218109 
	C229.741180,446.309601 229.353134,443.541687 229.448975,440.366516 
	C231.503693,440.405914 233.086807,440.813751 234.643402,441.305603 
	C244.082306,444.288147 253.624802,447.136414 263.613251,445.008881 
	C273.228394,442.960907 282.712219,440.296265 292.253723,437.902557 
	C294.786896,439.363495 297.320068,440.824432 299.979431,442.598999 
	C292.244934,445.915894 284.585419,449.724884 276.480194,451.749176 
	C261.154816,455.576691 245.728989,455.600891 230.456970,449.218109 
z"/>
<path fill="#310000" opacity="1.000000" stroke="none" 
	d="
M211.009125,486.303345 
	C219.600098,493.504547 226.323822,492.751923 231.950928,483.270386 
	C236.896072,486.585876 238.507538,492.040009 236.517181,497.849365 
	C234.525818,503.661652 228.853104,507.944427 223.090851,507.985962 
	C218.441315,508.019440 212.412476,503.890839 211.294479,498.824860 
	C210.439407,494.950348 211.002029,490.762970 211.009125,486.303345 
z"/>
<path fill="#000000" opacity="1.000000" stroke="none" 
	d="
M554.085571,288.566803 
	C541.721558,286.108215 531.928406,279.379486 523.364624,270.034119 
	C526.245178,253.794769 537.163940,244.191742 550.899841,237.027878 
	C567.012024,228.624680 584.478760,224.521042 602.131104,220.985703 
	C617.391296,217.929428 632.587830,214.548904 647.870239,211.611725 
	C665.397583,208.243057 682.951294,206.958389 699.968384,214.070526 
	C716.293579,220.893524 727.776306,236.963486 725.819885,254.579315 
	C723.994507,271.015625 709.786316,285.344696 693.017151,288.020599 
	C676.687622,290.626312 664.127441,283.451050 652.490051,273.174591 
	C649.831726,270.827148 646.110291,269.683655 642.491455,267.948975 
	C637.111511,263.471710 632.528809,258.416046 627.023376,254.743576 
	C619.794189,249.921158 609.124268,250.492188 601.397339,257.746918 
	C598.208008,252.720200 589.506287,249.073166 584.232788,250.271408 
	C570.728943,253.339691 563.898804,260.534973 564.747131,279.579498 
	C560.923767,282.727264 557.566345,285.491425 554.085571,288.566803 
z"/>
<path fill="#F9445F" opacity="1.000000" stroke="none" 
	d="
M419.044006,458.035400 
	C416.156250,465.100616 413.472290,472.257996 410.328705,479.207458 
	C406.485443,487.703796 408.035675,495.276367 413.057220,502.722900 
	C415.650696,506.568756 417.939270,510.680115 419.879517,514.895264 
	C425.454559,527.006897 420.391541,539.793030 407.509094,543.090088 
	C386.864960,548.373596 365.880310,549.665833 345.104248,543.156738 
	C331.365814,538.852478 327.558868,528.148132 332.544525,515.177917 
	C334.021332,511.335968 336.127777,507.620941 338.538696,504.274994 
	C345.442719,494.693237 345.029053,485.291565 339.064148,475.463013 
	C335.911682,470.268524 333.431671,464.665924 330.240173,458.453613 
	C332.532104,458.453613 333.752899,458.313843 334.932526,458.474976 
	C348.207123,460.288696 360.436676,458.775879 370.234344,448.294769 
	C374.289642,443.956543 376.742065,443.882141 380.679291,448.213959 
	C386.980316,455.146545 394.962036,458.645325 403.893066,459.549805 
	C408.530945,460.019531 413.367798,458.524475 418.557190,457.956390 
	C418.999573,457.995789 419.044006,458.035400 419.044006,458.035400 
M387.756958,528.280701 
	C380.348297,528.529419 372.887268,529.430237 365.546021,528.840149 
	C358.460052,528.270630 351.497650,526.163269 344.480988,524.731506 
	C344.304504,525.270020 344.128052,525.808594 343.951569,526.347107 
	C345.553162,527.243591 347.062958,528.405396 348.770355,528.995911 
	C367.966278,535.634583 387.058929,533.499390 406.053253,528.030457 
	C407.223389,527.693542 408.097046,526.327087 409.108612,525.439697 
	C408.873535,525.062317 408.638458,524.684998 408.403351,524.307678 
	C401.812134,525.579102 395.220886,526.850525 387.756958,528.280701 
M352.667175,508.055176 
	C351.247314,507.970764 349.827484,507.886353 348.407623,507.801941 
	C348.336914,508.447510 348.266174,509.093048 348.195435,509.738586 
	C361.102844,516.352844 375.036713,516.774902 389.145050,514.753662 
	C394.246918,514.022705 400.024200,513.872131 403.771118,508.720428 
	C386.835449,512.194458 370.065857,514.420959 352.667175,508.055176 
M354.368469,473.222473 
	C372.051331,478.241608 398.459930,476.328583 402.266144,468.206818 
	C383.729248,474.229797 366.010132,474.470978 348.407654,467.520325 
	C348.187653,468.371033 347.967651,469.221741 347.747650,470.072449 
	C349.698120,471.048828 351.648560,472.025208 354.368469,473.222473 
M382.480957,496.006287 
	C387.522980,495.314423 392.728210,495.095856 396.771240,490.796539 
	C382.857513,493.857513 369.074188,493.646790 354.502228,489.703308 
	C357.498322,495.202454 365.506653,496.688538 382.480957,496.006287 
z"/>
<path fill="#FFB0BB" opacity="1.000000" stroke="none" 
	d="
M640.611389,331.949524 
	C641.759216,337.527863 638.564758,341.234711 634.208984,343.614929 
	C629.536133,346.168457 624.469116,345.482147 620.071472,342.466278 
	C617.354248,340.602753 614.918640,338.285950 612.534119,335.988403 
	C606.834717,330.496948 604.139587,330.762482 600.581055,338.048889 
	C598.460632,342.390594 595.490112,345.295776 591.003906,346.884521 
	C584.438171,349.209839 576.991150,347.240692 574.142090,342.192627 
	C570.307739,335.398743 572.894287,327.717041 577.779846,323.198151 
	C584.022522,317.423950 591.180908,316.367523 598.993835,319.955841 
	C600.481384,320.639008 602.125183,321.121185 603.745605,321.348511 
	C607.689941,321.901825 610.789673,320.301636 611.805359,316.460022 
	C612.860229,312.470276 611.477905,308.937683 607.078308,307.981323 
	C603.559143,307.216400 599.854980,307.050812 596.235535,307.071655 
	C592.750122,307.091705 590.466980,306.046478 589.665039,302.442841 
	C588.826050,298.672760 591.075378,296.672577 593.993225,295.633636 
	C598.200500,294.135529 602.627625,293.266174 606.916809,291.981262 
	C608.806519,291.415131 610.787598,290.773743 612.378662,289.665955 
	C616.237244,286.979401 615.813660,282.641052 611.544312,280.822113 
	C601.842651,276.688751 591.925354,278.691132 586.745300,289.342804 
	C585.324463,292.264587 583.166199,294.899475 580.991394,297.351105 
	C579.987000,298.483368 577.785461,299.780182 576.729431,299.386292 
	C574.487488,298.550079 572.278320,296.926147 570.856079,295.026001 
	C570.438599,294.468201 572.532593,291.730011 573.827576,290.312836 
	C574.515564,289.559906 575.973328,289.536255 577.056641,289.114319 
	C582.192688,287.114349 583.069214,284.655457 580.016785,280.094421 
	C577.367310,276.135559 576.132812,272.145233 577.974548,267.434937 
	C579.944275,262.397552 582.714111,261.004242 587.645447,263.070038 
	C588.703613,263.513275 589.818604,264.048889 590.623108,264.833435 
	C596.900024,270.954468 603.515869,269.595245 610.279175,265.866455 
	C616.880127,262.227142 623.576721,261.559998 630.104309,265.811859 
	C632.706848,267.507050 634.876648,269.866577 637.576050,271.979340 
	C639.486389,275.721191 640.815796,279.543945 642.738831,283.040253 
	C643.820435,285.006653 646.264587,286.216736 647.376892,288.175323 
	C648.219849,289.659668 648.747925,292.447174 647.932068,293.463348 
	C646.921265,294.722443 644.317749,295.361908 642.508972,295.184021 
	C638.763794,294.815796 635.118347,293.298126 631.378357,293.045837 
	C626.366760,292.707764 622.946899,295.940582 623.013672,300.109680 
	C623.075806,303.991180 626.375732,306.827515 631.259155,306.994385 
	C634.414185,307.102234 637.591980,306.788727 640.729675,307.039093 
	C641.990417,307.139709 643.841431,307.996643 644.198364,308.962341 
	C644.549866,309.913269 643.700134,312.078033 642.764771,312.589233 
	C640.052002,314.071930 637.080627,315.142792 634.122131,316.102356 
	C627.096130,318.381104 624.965149,325.563538 629.788513,331.102203 
	C632.965820,334.750732 636.602234,333.529449 640.611389,331.949524 
z"/>
<path fill="#000000" opacity="1.000000" stroke="none" 
	d="
M362.447327,621.916626 
	C359.866730,609.305847 357.684265,596.641541 355.489899,583.979248 
	C354.674133,579.271973 353.830444,574.569458 352.998749,569.447144 
	C362.924866,569.019653 372.859772,569.250549 382.775879,568.919250 
	C389.907532,568.680969 397.014099,567.692688 404.556061,567.072021 
	C402.997467,577.483398 400.993744,587.857788 399.039093,598.241516 
	C397.662994,605.551758 396.353668,612.874512 394.991913,620.603455 
	C390.337433,621.671875 385.713654,622.763123 381.071228,622.849243 
	C377.276642,622.919739 373.476501,621.593750 369.646423,621.268982 
	C367.410767,621.079346 365.111450,621.640503 362.447327,621.916626 
z"/>
<path fill="#000000" opacity="1.000000" stroke="none" 
	d="
M292.084229,437.595215 
	C282.712219,440.296265 273.228394,442.960907 263.613251,445.008881 
	C253.624802,447.136414 244.082306,444.288147 234.643402,441.305603 
	C233.086807,440.813751 231.503693,440.405914 229.548660,439.944092 
	C227.786469,430.900970 226.408432,421.873016 225.038300,412.419891 
	C231.776825,410.593323 238.567078,409.421021 245.212570,407.692291 
	C248.460419,406.847412 251.195511,404.768799 251.027283,400.298096 
	C257.217163,406.295563 263.096008,413.009338 269.650513,418.981659 
	C276.743225,425.444458 284.466461,431.215302 292.084229,437.595215 
z"/>
<path fill="#FCF9F9" opacity="1.000000" stroke="none" 
	d="
M294.998596,369.033234 
	C287.568970,364.513702 281.526917,358.989868 279.487122,349.956116 
	C276.453918,336.522980 283.004517,322.956757 296.019043,316.434753 
	C309.182007,309.838318 323.203033,312.877563 332.801727,324.407837 
	C341.150177,334.436249 341.896423,348.781860 333.827789,358.895752 
	C330.828156,362.655792 326.235718,365.145142 321.745087,368.489655 
	C312.386047,366.201538 303.693146,367.698151 294.998596,369.033234 
M329.117065,342.435547 
	C329.058563,341.273438 329.088287,340.099030 328.927795,338.951172 
	C327.475800,328.566833 316.463654,320.271942 306.120514,321.941132 
	C304.684906,322.172821 303.426178,323.500580 302.085571,324.320923 
	C302.741638,325.158264 303.240479,326.228607 304.079529,326.794769 
	C309.085724,330.172760 310.240417,333.765594 307.493744,337.906097 
	C304.333984,342.669312 299.076141,343.556091 294.148926,340.319763 
	C293.022919,339.580200 291.547363,339.372833 290.232666,338.920532 
	C289.883148,340.286011 289.139618,341.683044 289.246155,343.011963 
	C290.130646,354.040833 298.670349,362.198364 309.107269,362.163849 
	C319.923859,362.128082 327.967804,354.516235 329.117065,342.435547 
z"/>
<path fill="#FCF9FA" opacity="1.000000" stroke="none" 
	d="
M431.060577,368.725098 
	C423.572052,364.138031 417.817230,358.214752 416.063660,349.221252 
	C413.222076,334.647675 421.388092,320.379456 435.613861,315.047943 
	C449.597260,309.807281 464.566223,315.243042 472.129791,328.308044 
	C480.729218,343.162354 475.594299,359.153320 458.718994,368.491699 
	C451.373108,368.521484 444.637146,368.150574 437.896271,368.002472 
	C435.624084,367.952545 433.339508,368.468018 431.060577,368.725098 
M451.256927,322.861450 
	C448.143066,322.570923 445.027008,322.073730 441.916595,322.106750 
	C440.886536,322.117706 439.870941,323.493713 438.848724,324.245575 
	C439.632324,325.159546 440.260529,326.306915 441.225067,326.949127 
	C446.960571,330.768005 446.881042,337.417816 440.955139,341.007507 
	C437.208984,343.276794 433.794464,342.809235 430.455353,339.951996 
	C428.313477,338.119202 426.172943,337.533386 425.884827,341.574249 
	C425.239594,350.623596 433.357666,360.623688 442.384949,361.885071 
	C453.038422,363.373657 462.297974,357.578949 465.079498,347.682587 
	C468.081451,337.001892 463.308472,328.003448 451.256927,322.861450 
z"/>
<path fill="#F9445F" opacity="1.000000" stroke="none" 
	d="
M294.947845,369.369263 
	C303.693146,367.698151 312.386047,366.201538 321.525085,368.740173 
	C322.424255,369.128815 322.865662,369.641052 323.421448,369.942078 
	C336.443298,376.994293 337.888031,388.266510 327.066559,398.513947 
	C318.032745,407.068573 299.566437,408.558655 289.347290,401.557648 
	C278.958496,394.440338 279.956696,380.281128 291.395477,372.338806 
	C292.594269,371.506470 293.731384,370.585236 294.947845,369.369263 
z"/>
<path fill="#FFFDFD" opacity="1.000000" stroke="none" 
	d="
M281.577972,172.228821 
	C279.397491,167.218689 281.030304,163.082474 283.570618,159.243820 
	C291.623535,147.075104 311.986816,142.993805 324.147675,151.017197 
	C334.104736,157.586609 334.853882,166.065842 325.311981,173.033310 
	C314.802307,180.707413 302.985504,184.187317 290.203369,179.068848 
	C287.027313,177.797028 284.553223,174.772232 281.577972,172.228821 
z"/>
<path fill="#F9445F" opacity="1.000000" stroke="none" 
	d="
M430.954102,369.069061 
	C433.339508,368.468018 435.624084,367.952545 437.896271,368.002472 
	C444.637146,368.150574 451.373108,368.521484 458.520782,368.759888 
	C462.310089,371.969299 465.689606,375.224060 469.175140,378.827087 
	C459.228302,385.925293 450.254913,393.747498 443.982361,404.744995 
	C432.913177,404.598724 422.510101,396.594513 421.110138,387.486206 
	C420.172546,381.386047 422.191040,376.395630 427.080322,372.578064 
	C428.372223,371.569305 429.593750,370.470459 430.954102,369.069061 
z"/>
<path fill="#FFFCFD" opacity="1.000000" stroke="none" 
	d="
M245.745941,179.062256 
	C249.135834,174.432816 253.146881,171.416260 258.642731,170.889725 
	C265.155426,170.265778 269.612976,172.421005 272.039307,177.237213 
	C274.330383,181.784943 273.295135,188.220825 269.576508,192.548203 
	C265.493317,197.299789 257.536377,198.986420 251.307007,196.420761 
	C246.488861,194.436325 243.568741,189.847931 244.060791,184.579163 
	C244.225357,182.817184 245.030518,181.115036 245.745941,179.062256 
z"/>
<path fill="#380506" opacity="1.000000" stroke="none" 
	d="
M377.909058,378.376953 
	C383.886749,377.687439 387.302795,374.386566 389.209229,369.344482 
	C390.411987,366.163513 392.276764,363.946960 395.919647,365.377777 
	C399.816345,366.908264 398.883698,369.959076 397.720490,372.911041 
	C394.172241,381.915649 385.933044,387.807739 377.135956,387.613953 
	C368.141510,387.415863 359.532471,380.678284 356.850311,371.133850 
	C356.398346,369.525482 357.538818,366.458069 358.916504,365.563843 
	C361.548248,363.855560 363.981445,365.297089 365.248108,368.220978 
	C367.614990,373.684387 370.862061,378.074768 377.909058,378.376953 
z"/>
<path fill="#000000" opacity="1.000000" stroke="none" 
	d="
M244.916443,390.651001 
	C239.983673,391.645630 234.949600,392.306793 229.511734,392.974976 
	C229.411484,383.297699 229.714996,373.613464 230.090607,363.466705 
	C235.046860,372.108673 239.930984,381.213135 244.916443,390.651001 
z"/>
<path fill="#F9445F" opacity="1.000000" stroke="none" 
	d="
M418.979736,457.973572 
	C419.074249,457.938690 419.188538,457.925964 419.173431,457.974335 
	C419.044006,458.035400 418.999573,457.995789 418.979736,457.973572 
z"/>
<path fill="#A1E2FF" opacity="1.000000" stroke="none" 
	d="
M473.972412,494.019928 
	C466.491669,480.840332 461.430176,467.160156 460.101990,452.404510 
	C459.379028,444.373016 458.556213,435.972168 460.096161,428.196930 
	C462.978119,413.645508 472.855103,403.656342 485.624420,396.755463 
	C503.932983,386.861023 523.643188,384.376831 544.099548,386.826141 
	C557.781189,388.464294 570.875549,391.813843 582.088196,400.422791 
	C595.074463,410.393463 602.665466,423.117920 603.056519,439.865173 
	C603.577026,462.159973 597.137817,482.282593 583.872070,499.987061 
	C571.860962,516.017090 556.583130,527.721558 536.107239,530.708679 
	C519.558838,533.122803 504.893280,527.725769 492.815552,516.886047 
	C485.632446,510.439209 480.300507,501.929779 473.972412,494.019928 
M549.611389,450.911377 
	C548.482178,450.635956 547.316467,450.024048 546.229858,450.141785 
	C540.730896,450.737671 540.313049,447.534607 539.832031,443.128326 
	C539.190002,437.247650 537.681396,431.397888 535.900696,425.737518 
	C535.216248,423.561951 532.760620,421.943542 531.112061,420.071289 
	C529.353088,421.845734 526.666321,423.333740 526.013000,425.449554 
	C524.217529,431.264343 522.984558,437.299835 522.098572,443.331665 
	C521.517395,447.288666 521.151001,449.909332 515.944458,450.297424 
	C510.079712,450.734558 504.206635,452.506348 498.617859,454.488861 
	C496.380554,455.282501 494.201416,457.945831 493.397278,460.247681 
	C493.068359,461.189178 496.180359,464.259125 498.197357,464.915619 
	C503.671112,466.697266 509.345215,468.038879 515.038391,468.915253 
	C519.561218,469.611450 521.947021,470.759338 522.232727,476.175293 
	C522.559326,482.365814 524.437012,488.534821 526.184631,494.555298 
	C526.750305,496.504242 529.031860,497.955048 530.528564,499.633728 
	C532.235413,498.004242 534.877563,496.659546 535.476440,494.692688 
	C537.393066,488.398529 539.101807,481.932373 539.797119,475.415924 
	C540.210388,471.542908 541.175049,470.039703 544.996094,469.384460 
	C551.333557,468.297607 557.663147,466.876465 563.771423,464.901489 
	C565.842712,464.231720 568.732849,461.294067 568.554321,459.693054 
	C568.336060,457.734344 565.583618,455.354187 563.396118,454.470428 
	C559.286377,452.810211 554.795471,452.093353 549.611389,450.911377 
z"/>
<path fill="#000000" opacity="1.000000" stroke="none" 
	d="
M110.899414,267.908936 
	C107.254639,269.446899 102.790855,270.125397 100.112549,272.677582 
	C90.561951,281.778442 79.621582,288.044769 66.510201,288.727570 
	C59.043331,289.116425 51.582127,287.022461 44.870731,282.592285 
	C36.651108,277.166534 30.625456,270.260101 27.532293,260.994781 
	C23.550392,249.067291 26.304491,238.126587 33.392178,228.148163 
	C41.207436,217.145432 52.829254,212.935013 65.494972,211.036057 
	C84.456795,208.193130 103.087425,210.861313 121.625046,214.819046 
	C126.067314,215.767456 130.600327,216.290909 135.509918,217.045929 
	C131.475220,228.904129 134.024033,240.151016 138.427124,251.609039 
	C126.965134,250.133530 117.284508,257.699310 110.899414,267.908936 
z"/>
<path fill="#FFB0BB" opacity="1.000000" stroke="none" 
	d="
M169.019440,347.592438 
	C160.709198,348.130981 154.356140,345.119843 150.559219,337.245331 
	C147.477585,330.854340 145.153168,330.850555 139.699814,335.655457 
	C136.055328,338.866577 132.138962,342.234131 127.731369,344.013550 
	C119.529961,347.324677 113.525635,342.755585 113.010269,333.333801 
	C119.979370,334.067139 123.707306,331.835114 124.832558,325.843262 
	C125.663284,321.419739 122.291832,317.560547 116.489128,315.848419 
	C113.984932,315.109558 111.498634,314.036621 109.305939,312.641327 
	C108.342407,312.028168 107.451614,310.005219 107.772812,309.034241 
	C108.091820,308.069916 109.934639,307.146484 111.179146,307.042572 
	C114.311432,306.780914 117.486618,307.094818 120.638268,306.989044 
	C125.789154,306.816284 129.146957,303.816406 128.987366,299.716095 
	C128.829468,295.659515 125.336029,292.675385 120.242561,293.038422 
	C116.670067,293.293060 113.194229,294.780121 109.616997,295.143402 
	C107.790123,295.328918 104.736633,294.765076 104.204338,293.623108 
	C103.468613,292.044769 104.123909,289.359253 105.042572,287.595337 
	C105.993591,285.769226 108.444473,284.725128 109.398605,282.899567 
	C111.239395,279.377625 112.488419,275.546387 114.276093,271.268005 
	C124.356850,258.269440 132.458176,256.645782 142.994507,264.995728 
	C144.329376,269.070435 145.664246,273.145142 146.659454,277.761078 
	C144.561157,278.707428 142.513199,278.681854 141.114090,279.621979 
	C139.179108,280.922150 136.787735,282.758942 136.390579,284.728607 
	C136.098434,286.177551 138.326050,289.060791 140.069839,289.802551 
	C143.779892,291.380646 147.906036,291.980438 151.861649,292.981171 
	C153.245193,297.392609 154.628754,301.804016 155.561264,306.607697 
	C151.207947,307.452576 147.102310,307.325134 143.485779,308.592926 
	C141.563354,309.266785 139.251984,312.425598 139.356247,314.340759 
	C139.475952,316.539917 141.625320,319.631744 143.682083,320.530914 
	C149.445404,323.050537 154.234589,319.142792 159.168579,316.816864 
	C162.447800,326.946075 165.727036,337.075287 169.019440,347.592438 
z"/>
<path fill="#FF9DB2" opacity="1.000000" stroke="none" 
	d="
M159.121338,316.441254 
	C154.234589,319.142792 149.445404,323.050537 143.682083,320.530914 
	C141.625320,319.631744 139.475952,316.539917 139.356247,314.340759 
	C139.251984,312.425598 141.563354,309.266785 143.485779,308.592926 
	C147.102310,307.325134 151.207947,307.452576 155.565735,306.997498 
	C157.038849,310.018585 158.056473,313.042114 159.121338,316.441254 
z"/>
<path fill="#FE9FB4" opacity="1.000000" stroke="none" 
	d="
M142.993530,264.607239 
	C132.458176,256.645782 124.356850,258.269440 114.269196,270.851013 
	C112.989464,270.189911 112.009956,269.370422 110.964928,268.229950 
	C117.284508,257.699310 126.965134,250.133530 138.503082,251.978729 
	C140.253891,256.046173 141.623230,260.132446 142.993530,264.607239 
z"/>
<path fill="#FF9DB2" opacity="1.000000" stroke="none" 
	d="
M151.791931,292.618408 
	C147.906036,291.980438 143.779892,291.380646 140.069839,289.802551 
	C138.326050,289.060791 136.098434,286.177551 136.390579,284.728607 
	C136.787735,282.758942 139.179108,280.922150 141.114090,279.621979 
	C142.513199,278.681854 144.561157,278.707428 146.666138,278.149750 
	C148.582397,282.750000 150.152298,287.502838 151.791931,292.618408 
z"/>
<path fill="#FE7A88" opacity="1.000000" stroke="none" 
	d="
M388.193298,528.201294 
	C395.220886,526.850525 401.812134,525.579102 408.403351,524.307678 
	C408.638458,524.684998 408.873535,525.062317 409.108612,525.439697 
	C408.097046,526.327087 407.223389,527.693542 406.053253,528.030457 
	C387.058929,533.499390 367.966278,535.634583 348.770355,528.995911 
	C347.062958,528.405396 345.553162,527.243591 343.951569,526.347107 
	C344.128052,525.808594 344.304504,525.270020 344.480988,524.731506 
	C351.497650,526.163269 358.460052,528.270630 365.546021,528.840149 
	C372.887268,529.430237 380.348297,528.529419 388.193298,528.201294 
z"/>
<path fill="#FE7A88" opacity="1.000000" stroke="none" 
	d="
M353.035217,508.166992 
	C370.065857,514.420959 386.835449,512.194458 403.771118,508.720428 
	C400.024200,513.872131 394.246918,514.022705 389.145050,514.753662 
	C375.036713,516.774902 361.102844,516.352844 348.195435,509.738586 
	C348.266174,509.093048 348.336914,508.447510 348.407623,507.801941 
	C349.827484,507.886353 351.247314,507.970764 353.035217,508.166992 
z"/>
<path fill="#FE7A88" opacity="1.000000" stroke="none" 
	d="
M353.983734,473.112030 
	C351.648560,472.025208 349.698120,471.048828 347.747650,470.072449 
	C347.967651,469.221741 348.187653,468.371033 348.407654,467.520325 
	C366.010132,474.470978 383.729248,474.229797 402.266144,468.206818 
	C398.459930,476.328583 372.051331,478.241608 353.983734,473.112030 
z"/>
<path fill="#FE7A88" opacity="1.000000" stroke="none" 
	d="
M382.039612,496.018372 
	C365.506653,496.688538 357.498322,495.202454 354.502228,489.703308 
	C369.074188,493.646790 382.857513,493.857513 396.771240,490.796539 
	C392.728210,495.095856 387.522980,495.314423 382.039612,496.018372 
z"/>
<path fill="#340505" opacity="1.000000" stroke="none" 
	d="
M329.078033,342.869141 
	C327.967804,354.516235 319.923859,362.128082 309.107269,362.163849 
	C298.670349,362.198364 290.130646,354.040833 289.246155,343.011963 
	C289.139618,341.683044 289.883148,340.286011 290.232666,338.920532 
	C291.547363,339.372833 293.022919,339.580200 294.148926,340.319763 
	C299.076141,343.556091 304.333984,342.669312 307.493744,337.906097 
	C310.240417,333.765594 309.085724,330.172760 304.079529,326.794769 
	C303.240479,326.228607 302.741638,325.158264 302.085571,324.320923 
	C303.426178,323.500580 304.684906,322.172821 306.120514,321.941132 
	C316.463654,320.271942 327.475800,328.566833 328.927795,338.951172 
	C329.088287,340.099030 329.058563,341.273438 329.078033,342.869141 
z"/>
<path fill="#340606" opacity="1.000000" stroke="none" 
	d="
M451.645081,322.974060 
	C463.308472,328.003448 468.081451,337.001892 465.079498,347.682587 
	C462.297974,357.578949 453.038422,363.373657 442.384949,361.885071 
	C433.357666,360.623688 425.239594,350.623596 425.884827,341.574249 
	C426.172943,337.533386 428.313477,338.119202 430.455353,339.951996 
	C433.794464,342.809235 437.208984,343.276794 440.955139,341.007507 
	C446.881042,337.417816 446.960571,330.768005 441.225067,326.949127 
	C440.260529,326.306915 439.632324,325.159546 438.848724,324.245575 
	C439.870941,323.493713 440.886536,322.117706 441.916595,322.106750 
	C445.027008,322.073730 448.143066,322.570923 451.645081,322.974060 
z"/>
<path fill="#7BCDEA" opacity="1.000000" stroke="none" 
	d="
M550.037231,450.947815 
	C554.795471,452.093353 559.286377,452.810211 563.396118,454.470428 
	C565.583618,455.354187 568.336060,457.734344 568.554321,459.693054 
	C568.732849,461.294067 565.842712,464.231720 563.771423,464.901489 
	C557.663147,466.876465 551.333557,468.297607 544.996094,469.384460 
	C541.175049,470.039703 540.210388,471.542908 539.797119,475.415924 
	C539.101807,481.932373 537.393066,488.398529 535.476440,494.692688 
	C534.877563,496.659546 532.235413,498.004242 530.528564,499.633728 
	C529.031860,497.955048 526.750305,496.504242 526.184631,494.555298 
	C524.437012,488.534821 522.559326,482.365814 522.232727,476.175293 
	C521.947021,470.759338 519.561218,469.611450 515.038391,468.915253 
	C509.345215,468.038879 503.671112,466.697266 498.197357,464.915619 
	C496.180359,464.259125 493.068359,461.189178 493.397278,460.247681 
	C494.201416,457.945831 496.380554,455.282501 498.617859,454.488861 
	C504.206635,452.506348 510.079712,450.734558 515.944458,450.297424 
	C521.151001,449.909332 521.517395,447.288666 522.098572,443.331665 
	C522.984558,437.299835 524.217529,431.264343 526.013000,425.449554 
	C526.666321,423.333740 529.353088,421.845734 531.112061,420.071289 
	C532.760620,421.943542 535.216248,423.561951 535.900696,425.737518 
	C537.681396,431.397888 539.190002,437.247650 539.832031,443.128326 
	C540.313049,447.534607 540.730896,450.737671 546.229858,450.141785 
	C547.316467,450.024048 548.482178,450.635956 550.037231,450.947815 
z"/>
</svg>