<svg version="1.1" id="Layer_1" xmlns="http://www.w3.org/2000/svg" xmlns:xlink="http://www.w3.org/1999/xlink" x="0px" y="0px"
	 width="100%" viewBox="0 0 750 750" enable-background="new 0 0 750 750" xml:space="preserve">
<path fill="#000000" opacity="1.000000" stroke="none" 
	d="
M445.000000,751.000000 
	C296.666656,751.000000 148.833328,751.000000 1.000000,751.000000 
	C1.000000,501.000000 1.000000,251.000000 1.000000,1.000000 
	C251.000000,1.000000 501.000000,1.000000 751.000000,1.000000 
	C751.000000,251.000000 751.000000,501.000000 751.000000,751.000000 
	C649.166687,751.000000 547.333313,751.000000 445.000000,751.000000 
M319.205414,666.985779 
	C309.971008,667.101868 300.720093,666.923889 291.508087,667.439636 
	C285.589630,667.771057 279.634338,668.732239 273.865295,670.117920 
	C266.698517,671.839294 265.189880,677.302063 270.160126,682.614746 
	C271.668640,684.227173 273.675781,686.054321 275.690643,686.397644 
	C286.158508,688.181641 296.674225,689.806763 307.236206,690.849243 
	C310.808105,691.201843 314.540070,689.405212 318.241760,689.081604 
	C325.804626,688.420593 333.466705,688.575928 340.956879,687.490723 
	C348.421967,686.409119 355.669403,684.195984 363.402527,684.891235 
	C367.307404,685.242371 371.321198,684.162231 375.275818,684.239380 
	C379.567352,684.323120 383.852753,684.952026 388.130463,685.434875 
	C390.930115,685.750977 393.713684,686.215088 396.500397,686.639404 
	C401.519531,687.403687 406.519684,688.701843 411.556274,688.858154 
	C422.460388,689.196472 433.382568,688.974365 444.297150,688.931396 
	C446.271240,688.923584 448.251892,688.744141 450.216614,688.527222 
	C455.363403,687.959045 460.495728,686.936462 465.647827,686.839844 
	C469.972473,686.758606 474.559418,684.169678 475.497375,679.827820 
	C476.522034,675.084412 472.811035,673.641296 469.507538,672.800842 
	C462.150330,670.928955 454.720642,668.705505 447.214844,668.202759 
	C435.855255,667.441772 424.405701,668.024170 412.396698,667.690063 
	C407.253662,661.500916 400.290100,662.930542 393.500061,663.591492 
	C393.306427,662.601440 392.982788,661.933655 393.088776,661.342957 
	C395.371155,648.624756 397.701538,635.915161 400.843079,623.025391 
	C404.906433,622.005188 409.176422,621.473938 412.989807,619.862305 
	C420.768341,616.574890 429.732056,607.241211 430.222412,595.755432 
	C430.827881,581.572571 425.569031,569.731628 418.652496,558.131226 
	C414.417480,551.028198 411.613953,543.569641 415.907959,535.567017 
	C420.710541,526.616577 425.919647,517.882935 431.047272,509.110748 
	C431.418518,508.475616 432.588501,508.332214 433.351257,507.897247 
	C442.199738,502.851135 451.041351,497.792847 460.188721,493.369293 
	C460.721161,494.006104 461.184692,494.719696 461.796112,495.268555 
	C478.342834,510.121307 487.508972,528.878662 490.579071,550.657471 
	C491.335663,556.024597 491.589142,561.809814 490.301147,566.959473 
	C489.727905,569.251282 484.758698,570.442078 481.787811,572.137939 
	C481.499908,572.302307 481.217468,572.484253 480.959473,572.691711 
	C476.418915,576.342041 476.165588,581.334961 479.994934,585.483032 
	C481.091278,586.670654 481.688904,588.532410 482.008636,590.183167 
	C482.974548,595.169922 485.566345,599.007629 490.370819,600.479736 
	C495.192688,601.957092 499.746307,601.219116 503.537842,597.065979 
	C509.007935,591.074219 510.250702,581.510376 504.183014,575.273926 
	C499.179810,570.131592 498.829285,564.783875 498.924438,558.565613 
	C498.987488,554.447388 498.539764,550.288025 497.956512,546.198975 
	C495.386566,528.182434 488.251617,512.098511 476.538239,498.214417 
	C473.453308,494.557800 469.203094,491.884216 465.956696,488.223114 
	C467.185089,487.433929 468.598297,486.831390 469.613251,485.826569 
	C479.494751,476.044159 489.942902,466.741425 499.007324,456.246368 
	C516.180359,436.362946 524.409546,412.691620 524.873291,386.514984 
	C525.029236,377.712799 523.710022,368.884521 523.732971,360.220917 
	C525.140198,361.299408 526.427490,362.606934 527.975220,363.416992 
	C534.929077,367.056824 541.956848,370.555328 548.995361,374.889954 
	C549.682800,380.884308 553.202454,385.097046 557.620728,388.807343 
	C549.611938,401.664459 555.588989,412.816620 562.549438,418.934235 
	C574.137634,429.119232 587.567200,428.965424 601.301208,418.966614 
	C607.729370,425.468689 615.084717,430.640869 624.692749,429.831024 
	C629.205505,429.450623 633.563171,427.229431 638.768372,425.982117 
	C640.427429,426.012573 642.341797,426.594788 643.696594,425.967804 
	C647.435730,424.237335 651.381653,422.512421 654.452209,419.864868 
	C662.206421,413.178711 668.845581,405.011169 677.170410,399.217163 
	C691.236877,389.427032 706.316956,381.102295 720.858093,371.981781 
	C729.098022,366.813568 736.351624,360.517212 741.482178,352.054016 
	C749.545776,338.752563 750.762878,324.313782 747.937073,309.490417 
	C743.580017,286.635071 729.933716,271.317566 708.371521,263.016998 
	C687.390259,254.940063 665.246887,255.685120 643.350769,255.109634 
	C632.112244,254.814255 620.828186,256.173248 609.593567,255.833115 
	C601.153625,255.577591 592.551636,254.625305 584.384399,252.553543 
	C560.628540,246.527359 539.080566,235.403061 518.637207,222.097290 
	C498.260773,208.835037 477.866089,195.741989 454.822296,187.260284 
	C433.300964,179.338959 411.124756,174.502960 388.378784,173.193344 
	C366.976135,171.961060 345.529358,172.851807 324.325378,176.954330 
	C307.266357,180.254868 290.709503,185.154236 274.812683,192.087967 
	C257.018372,199.849350 239.467041,208.166306 221.705444,216.004639 
	C205.159637,223.306427 187.816452,228.894699 169.840118,229.628647 
	C153.484818,230.296432 136.988983,228.054977 120.582207,226.754013 
	C108.347946,225.783920 96.180267,223.679825 83.938766,223.194092 
	C75.133553,222.844727 66.217209,224.013321 57.419434,225.076019 
	C45.755539,226.484909 34.948273,230.793732 26.152328,238.521851 
	C9.456332,253.190948 1.756330,271.614288 3.838739,294.215881 
	C5.026750,307.110077 10.261444,317.837952 19.213156,326.398560 
	C27.801783,334.611908 37.210812,342.150299 47.035259,348.846924 
	C62.989990,359.722137 76.075310,373.359863 87.665337,388.505646 
	C91.795944,393.903503 96.266663,396.801361 103.674202,396.151733 
	C117.049431,406.162964 130.466293,401.726318 140.417694,392.322510 
	C148.288620,405.264679 164.218002,405.757141 176.121445,398.727631 
	C180.874359,395.920807 185.157776,390.992523 187.641830,386.023560 
	C190.418701,380.468842 189.801163,373.857422 187.221558,369.635590 
	C190.851791,364.264679 193.947083,359.685181 197.736267,354.794647 
	C206.463837,351.212982 215.191391,347.631317 223.988373,344.872864 
	C220.447006,361.635040 217.645142,378.370422 220.924942,395.622406 
	C226.014084,422.391663 238.434647,445.276276 256.717285,465.170135 
	C261.697784,470.589508 266.989594,475.722809 271.183502,480.991730 
	C264.723724,480.664948 258.223175,480.689392 251.811951,479.944611 
	C233.502289,477.817596 217.287552,470.616150 203.267792,458.672882 
	C202.235764,457.793671 202.159760,455.444366 202.155411,453.777222 
	C202.145554,450.008057 203.738831,445.674683 202.378510,442.583679 
	C199.386078,435.784088 200.206848,428.932281 200.010910,422.037354 
	C199.911606,418.542755 200.511002,414.897064 199.677841,411.601990 
	C199.146591,409.500977 196.569382,407.917267 194.909515,406.101593 
	C193.107056,407.752930 190.189072,409.147156 189.736725,411.109711 
	C188.823746,415.070648 188.343414,419.576843 189.346024,423.425323 
	C190.717667,428.690247 188.585220,429.581207 184.328171,431.207214 
	C179.963211,432.874512 174.600845,435.665375 172.745834,439.464050 
	C167.322067,450.570801 175.564072,463.894440 187.931396,462.181152 
	C190.508026,461.824188 194.035629,463.044617 196.057663,464.781036 
	C218.745621,484.264160 245.146927,491.867767 274.614655,489.887512 
	C276.816498,489.739502 278.946533,488.523193 281.722382,488.116241 
	C286.305511,491.450836 290.905792,494.762329 295.462341,498.132904 
	C297.014404,499.281036 299.031982,500.280548 299.847656,501.859100 
	C303.117554,508.187073 306.058594,514.688599 309.010529,521.176392 
	C313.472046,530.981812 314.658203,540.513550 307.663727,549.983582 
	C303.154053,556.089355 299.077942,562.583313 295.441833,569.249329 
	C290.828033,577.707520 289.434814,587.233887 291.414978,596.434998 
	C293.841095,607.708313 303.225159,613.117371 313.179749,616.961365 
	C319.609161,619.444031 326.368591,621.072083 332.999847,623.909729 
	C335.307861,637.007629 337.615845,650.105591 340.049011,663.913879 
	C332.436615,662.282104 325.819275,662.474304 319.205414,666.985779 
M525.300659,161.315994 
	C520.133545,163.806564 518.128723,167.925217 519.292847,173.390259 
	C510.482056,177.797394 508.821106,182.811218 513.144897,191.241577 
	C518.386414,201.461288 536.304688,210.110458 547.560059,207.853790 
	C552.260742,206.911316 556.068054,201.683197 555.861450,196.926407 
	C555.803833,195.598022 556.398132,193.418350 557.312439,193.007721 
	C562.299194,190.768112 563.324890,186.760910 563.693176,181.803574 
	C566.877808,177.324387 570.268188,172.974548 573.189026,168.329468 
	C576.086243,163.721848 579.308533,160.636505 585.375061,160.871948 
	C591.768188,161.120102 598.303955,160.939529 604.595154,159.872086 
	C616.651794,157.826447 626.657043,152.304672 631.840576,140.414291 
	C635.655579,131.663223 634.088318,122.795494 631.976990,114.014778 
	C627.948486,97.260063 619.449036,83.673088 604.287598,74.614838 
	C595.889893,69.597603 586.923950,67.118797 577.287292,65.863083 
	C557.711609,63.312256 540.860229,67.924438 526.931458,82.471664 
	C518.242493,91.546425 516.795532,102.328621 520.268799,113.337029 
	C522.950867,121.838089 527.767761,129.750916 532.301270,137.537674 
	C533.956238,140.380142 534.268921,142.406845 532.990601,145.156693 
	C530.552979,150.400543 528.247559,155.705826 525.300659,161.315994 
z"/>
<path fill="#FF7F8C" opacity="1.000000" stroke="none" 
	d="
M103.020805,395.836548 
	C96.266663,396.801361 91.795944,393.903503 87.665337,388.505646 
	C76.075310,373.359863 62.989990,359.722137 47.035259,348.846924 
	C37.210812,342.150299 27.801783,334.611908 19.213156,326.398560 
	C10.261444,317.837952 5.026750,307.110077 3.838739,294.215881 
	C1.756330,271.614288 9.456332,253.190948 26.152328,238.521851 
	C34.948273,230.793732 45.755539,226.484909 57.419434,225.076019 
	C66.217209,224.013321 75.133553,222.844727 83.938766,223.194092 
	C96.180267,223.679825 108.347946,225.783920 120.582207,226.754013 
	C136.988983,228.054977 153.484818,230.296432 169.840118,229.628647 
	C187.816452,228.894699 205.159637,223.306427 221.705444,216.004639 
	C239.467041,208.166306 257.018372,199.849350 274.812683,192.087967 
	C290.709503,185.154236 307.266357,180.254868 324.325378,176.954330 
	C345.529358,172.851807 366.976135,171.961060 388.378784,173.193344 
	C411.124756,174.502960 433.300964,179.338959 454.822296,187.260284 
	C477.866089,195.741989 498.260773,208.835037 518.637207,222.097290 
	C539.080566,235.403061 560.628540,246.527359 584.384399,252.553543 
	C592.551636,254.625305 601.153625,255.577591 609.593567,255.833115 
	C620.828186,256.173248 632.112244,254.814255 643.350769,255.109634 
	C665.246887,255.685120 687.390259,254.940063 708.371521,263.016998 
	C729.933716,271.317566 743.580017,286.635071 747.937073,309.490417 
	C750.762878,324.313782 749.545776,338.752563 741.482178,352.054016 
	C736.351624,360.517212 729.098022,366.813568 720.858093,371.981781 
	C706.316956,381.102295 691.236877,389.427032 677.170410,399.217163 
	C668.845581,405.011169 662.206421,413.178711 654.452209,419.864868 
	C651.381653,422.512421 647.435730,424.237335 643.696594,425.967804 
	C642.341797,426.594788 640.427429,426.012573 638.201172,425.612518 
	C633.699097,419.551758 633.871643,417.620544 638.647034,412.813354 
	C641.331299,410.111237 644.145874,407.503754 646.519165,404.546631 
	C647.338623,403.525543 647.462158,401.408264 646.993042,400.124420 
	C646.768677,399.510406 644.263733,399.194275 643.064514,399.583557 
	C640.584595,400.388519 638.287292,401.756256 635.538574,402.986603 
	C629.305664,404.696686 626.191467,403.483032 624.096375,398.767883 
	C621.635071,393.229004 625.257507,387.614349 632.180603,386.179413 
	C634.268311,385.746674 636.740845,385.734802 638.286316,384.550476 
	C639.669250,383.490723 640.018433,381.082092 640.823730,379.268616 
	C639.262207,378.752533 637.733521,377.974823 636.132446,377.774292 
	C632.704834,377.344910 628.889038,378.015228 625.901184,376.707092 
	C623.515930,375.662720 620.797974,372.464111 620.601746,370.030243 
	C620.320435,366.542297 622.906982,363.256409 627.050598,363.149109 
	C629.951965,363.073914 632.908813,363.867706 635.783936,364.523041 
	C637.544861,364.924408 639.168884,366.213715 640.908691,366.336792 
	C642.506226,366.449860 644.793762,366.018250 645.641418,364.936523 
	C646.491638,363.851654 646.509949,361.399139 645.868103,360.024445 
	C644.842468,357.827515 643.203979,355.771973 641.404175,354.112701 
	C638.093750,351.060730 636.510437,347.497986 637.064148,342.754608 
	C638.517822,341.282104 639.795959,340.092133 641.460327,338.943848 
	C643.901489,339.820526 646.281433,340.247437 647.946167,341.572632 
	C651.807678,344.646576 655.160278,348.358276 659.011047,351.447510 
	C669.679138,360.005707 681.648926,364.222900 695.378235,360.949310 
	C709.030640,357.694122 718.818970,349.224670 723.854980,336.391144 
	C731.840149,316.041870 718.461243,294.859100 699.864563,287.064117 
	C682.373291,279.732483 664.028198,281.180603 645.921753,283.217285 
	C629.118530,285.107361 612.488342,288.491425 595.743835,290.959137 
	C577.814392,293.601410 560.507996,297.966461 544.478760,306.823212 
	C533.406921,312.940765 525.406860,321.217133 522.587036,334.254669 
	C519.465698,343.135834 522.034546,351.579895 523.065063,360.068146 
	C523.710022,368.884521 525.029236,377.712799 524.873291,386.514984 
	C524.409546,412.691620 516.180359,436.362946 499.007324,456.246368 
	C489.942902,466.741425 479.494751,476.044159 469.613251,485.826569 
	C468.598297,486.831390 467.185089,487.433929 465.406372,488.541870 
	C463.198975,490.153046 461.541870,491.445435 459.884766,492.737823 
	C451.041351,497.792847 442.199738,502.851135 433.351257,507.897247 
	C432.588501,508.332214 431.418518,508.475616 431.047272,509.110748 
	C425.919647,517.882935 420.710541,526.616577 415.907959,535.567017 
	C411.613953,543.569641 414.417480,551.028198 418.652496,558.131226 
	C425.569031,569.731628 430.827881,581.572571 430.222412,595.755432 
	C429.732056,607.241211 420.768341,616.574890 412.989807,619.862305 
	C409.176422,621.473938 404.906433,622.005188 400.024536,623.075684 
	C396.471710,623.467285 393.737396,623.808594 390.590088,624.241943 
	C388.595795,624.555908 387.010864,624.993103 385.433746,624.966492 
	C370.633209,624.717590 355.834015,624.389221 340.703888,623.842896 
	C337.908966,623.429077 335.444550,623.256104 332.980164,623.083130 
	C326.368591,621.072083 319.609161,619.444031 313.179749,616.961365 
	C303.225159,613.117371 293.841095,607.708313 291.414978,596.434998 
	C289.434814,587.233887 290.828033,577.707520 295.441833,569.249329 
	C299.077942,562.583313 303.154053,556.089355 307.663727,549.983582 
	C314.658203,540.513550 313.472046,530.981812 309.010529,521.176392 
	C306.058594,514.688599 303.117554,508.187073 299.847656,501.859100 
	C299.031982,500.280548 297.014404,499.281036 295.462341,498.132904 
	C290.905792,494.762329 286.305511,491.450836 281.283020,487.653168 
	C277.941956,485.122528 275.040253,483.054962 272.138519,480.987396 
	C266.989594,475.722809 261.697784,470.589508 256.717285,465.170135 
	C238.434647,445.276276 226.014084,422.391663 220.924942,395.622406 
	C217.645142,378.370422 220.447006,361.635040 224.110092,344.117493 
	C225.479767,338.410797 227.048569,333.511658 227.864548,328.490173 
	C228.422501,325.056549 227.930832,321.452332 227.945343,317.520447 
	C226.569214,307.445465 222.445694,299.091125 215.084686,292.674713 
	C206.328629,285.042328 196.421921,278.902924 185.491196,275.147095 
	C167.643387,269.014526 149.673233,263.050446 131.407410,258.370789 
	C109.851578,252.848267 88.181366,246.919785 65.419922,249.957413 
	C54.295509,251.442017 43.668156,254.875031 36.457947,263.383423 
	C21.877129,280.589478 22.119585,297.970978 37.257233,314.568634 
	C53.580345,332.466156 77.673538,330.213287 95.416504,316.104797 
	C99.711021,312.689941 103.620918,308.400421 109.960899,309.237335 
	C111.009933,310.374908 111.987434,311.192566 112.977142,312.426331 
	C113.415863,318.183350 111.106430,322.121582 106.831650,325.138611 
	C105.483040,326.090424 103.837250,327.099121 103.212105,328.481781 
	C102.356125,330.375061 101.384857,333.272827 102.238342,334.587524 
	C103.105438,335.923187 106.162727,336.399384 108.199638,336.272125 
	C110.797302,336.109833 113.297806,334.775177 115.903870,334.282990 
	C120.944092,333.331055 126.598015,337.155060 126.782646,341.440857 
	C126.977661,345.967651 123.361404,348.960419 117.551674,348.952148 
	C115.733543,348.949585 113.893906,348.410706 112.103294,348.566772 
	C109.744194,348.772461 107.423744,349.421509 105.086685,349.879944 
	C106.762985,352.073059 108.335045,354.360229 110.178787,356.402161 
	C110.735657,357.018860 112.059891,356.911133 113.008858,357.210541 
	C118.872017,359.060455 121.776520,362.936157 120.871567,367.664764 
	C119.974388,372.352753 116.002342,375.016998 109.836723,374.666107 
	C106.781082,372.694305 104.071564,370.699615 101.064980,369.383453 
	C99.921165,368.882721 97.701935,369.521881 96.722084,370.440582 
	C96.101089,371.022888 96.417557,373.366516 97.094627,374.416626 
	C98.607269,376.762695 100.504776,378.891693 102.430916,380.934265 
	C108.103699,386.950134 108.244415,389.489929 103.020805,395.836548 
M370.493164,603.001953 
	C373.991577,602.984436 377.522003,603.263672 380.981934,602.889893 
	C389.122192,602.010437 397.517639,601.087158 402.932556,593.934082 
	C409.606567,585.117798 407.157227,576.111206 402.631531,567.179688 
	C393.275909,548.716187 390.812286,550.456238 402.777466,526.549988 
	C403.744080,524.618713 404.957977,522.812256 405.959595,520.896912 
	C406.666443,519.545227 407.208435,518.107300 407.992065,516.325928 
	C406.504791,516.182861 405.821686,515.950134 405.219879,516.083679 
	C390.819366,519.279724 379.071655,514.976074 369.434998,503.925323 
	C365.890717,499.860901 363.604218,500.093170 359.362762,504.106415 
	C353.568939,509.588531 346.770416,512.929993 338.791382,512.988647 
	C332.432556,513.035400 326.067993,512.300171 319.015076,511.869995 
	C321.815674,518.200562 324.374756,524.628540 327.453949,530.796936 
	C332.255310,540.415283 331.788086,549.253662 324.938660,557.779236 
	C322.455414,560.870239 320.326385,564.339966 318.562561,567.898071 
	C311.770020,581.600098 316.079407,592.192871 330.208649,597.975159 
	C342.903076,603.170288 356.148560,603.304443 370.493164,603.001953 
M417.915405,458.469727 
	C426.805481,469.291901 443.313629,470.140442 454.733643,465.496277 
	C467.048676,460.488159 469.313721,448.005554 460.655518,437.879547 
	C452.023438,427.784088 433.145386,427.382660 424.554474,431.665161 
	C413.702148,437.075012 410.726410,447.752686 417.915405,458.469727 
M300.328766,455.852692 
	C305.028870,454.333649 310.071930,453.456909 314.360443,451.167023 
	C324.490204,445.758331 326.055573,432.599365 317.995728,424.425262 
	C309.125031,415.428802 291.594788,413.202606 280.958069,420.071564 
	C265.834137,429.838226 268.870422,445.033112 280.604279,450.229492 
	C286.561371,452.867584 293.163696,454.048706 300.328766,455.852692 
M298.729980,232.059189 
	C310.063538,234.777039 320.550415,232.464859 330.117767,226.202072 
	C339.358063,220.153381 339.473938,211.526108 330.753662,204.627930 
	C321.427429,197.250427 305.119293,197.164536 294.709167,204.636078 
	C289.419220,208.432739 284.845215,213.189209 285.628845,220.216949 
	C286.395599,227.092896 292.125793,229.756729 298.729980,232.059189 
M276.898712,228.788788 
	C273.870667,222.303772 269.565460,219.566132 263.360016,220.179596 
	C256.251404,220.882355 249.464935,226.061920 248.205414,232.033035 
	C247.249329,236.565659 248.365906,240.587845 252.035751,243.693802 
	C256.650269,247.599304 264.221283,248.179138 269.824860,245.040253 
	C275.519897,241.850128 278.151031,236.206314 276.898712,228.788788 
M353.056244,446.409851 
	C365.184448,458.995514 383.730103,455.231934 390.218109,438.974518 
	C391.373199,436.080200 391.015808,433.596252 388.229584,432.920349 
	C386.364471,432.467926 383.781311,433.662933 381.956665,434.813904 
	C380.721558,435.592957 380.384644,437.678375 379.408112,439.004333 
	C373.571533,446.929535 363.304565,446.351685 358.456848,437.818390 
	C357.561859,436.242950 356.970703,434.487030 356.314972,432.785217 
	C355.096436,429.622681 352.916382,428.232361 349.668243,429.512299 
	C346.411621,430.795563 346.376465,433.468140 347.608307,436.159363 
	C349.119965,439.461700 350.907745,442.637604 353.056244,446.409851 
M443.381226,417.782593 
	C445.309113,419.323853 447.396698,420.705933 449.128143,422.442993 
	C451.847595,425.171387 454.774994,426.321869 457.868469,423.544739 
	C460.972961,420.757751 460.073669,417.675629 457.700195,414.715149 
	C448.502167,403.242096 430.068909,401.703857 419.275330,411.502930 
	C416.592010,413.938995 415.389557,416.786621 417.700714,419.819763 
	C420.151001,423.035583 423.351837,422.865082 426.416809,420.373627 
	C431.309235,416.396576 436.668182,415.071320 443.381226,417.782593 
M285.225616,409.616638 
	C287.403259,409.253448 289.996948,409.527222 291.689667,408.421600 
	C301.201843,402.208221 306.893005,402.582703 315.015656,410.682220 
	C317.657898,413.316925 320.536682,414.115967 323.364868,411.587921 
	C326.183899,409.068176 325.675629,405.980377 323.543640,403.080719 
	C314.941620,391.381256 295.462189,389.559692 284.823639,399.467926 
	C281.167480,402.873108 281.111115,405.117035 285.225616,409.616638 
z"/>
<path fill="#FEC72E" opacity="1.000000" stroke="none" 
	d="
M525.887329,160.985626 
	C528.247559,155.705826 530.552979,150.400543 532.990601,145.156693 
	C534.268921,142.406845 533.956238,140.380142 532.301270,137.537674 
	C527.767761,129.750916 522.950867,121.838089 520.268799,113.337029 
	C516.795532,102.328621 518.242493,91.546425 526.931458,82.471664 
	C540.860229,67.924438 557.711609,63.312256 577.287292,65.863083 
	C586.923950,67.118797 595.889893,69.597603 604.287598,74.614838 
	C619.449036,83.673088 627.948486,97.260063 631.976990,114.014778 
	C634.088318,122.795494 635.655579,131.663223 631.840576,140.414291 
	C626.657043,152.304672 616.651794,157.826447 604.595154,159.872086 
	C598.303955,160.939529 591.768188,161.120102 585.375061,160.871948 
	C579.308533,160.636505 576.086243,163.721848 573.189026,168.329468 
	C570.268188,172.974548 566.877808,177.324387 563.253906,181.550812 
	C559.628113,178.263275 556.441589,175.228516 552.901978,171.857513 
	C555.896423,166.067200 559.239868,159.965439 562.225098,153.693222 
	C564.014771,149.933060 565.949829,148.266846 570.602112,149.276230 
	C574.318848,150.082642 578.597290,149.502655 582.374146,148.544098 
	C587.875854,147.147827 592.100403,143.458923 592.508789,137.549927 
	C592.712952,134.595352 591.550415,130.545181 589.480408,128.740631 
	C587.716187,127.202660 583.523254,127.394180 580.853760,128.239090 
	C578.008972,129.139435 575.394775,131.411636 573.212524,133.612869 
	C569.865112,136.989304 566.973328,140.817383 563.695740,144.680618 
	C561.957458,143.678131 560.325928,142.737244 558.594360,141.738632 
	C559.492004,139.677597 560.183044,138.178635 560.803528,136.651001 
	C563.747437,129.403473 565.641479,122.067619 562.021912,114.484528 
	C560.222473,110.714546 557.725586,107.338142 553.002319,108.018150 
	C548.422913,108.677437 546.556702,112.247513 545.869263,116.524460 
	C544.440430,125.414726 546.519348,133.282990 552.339172,140.246750 
	C553.255554,141.343246 553.949463,143.698608 553.395081,144.777908 
	C549.688049,151.995361 545.614685,159.024628 541.754211,165.946564 
	C536.161316,164.197891 531.024353,162.591766 525.887329,160.985626 
M536.863586,84.421410 
	C531.863708,90.640076 530.804932,95.733772 533.680481,99.734673 
	C536.642456,103.855667 543.076904,105.630920 549.631836,102.473862 
	C555.462524,99.665596 560.903442,95.645737 565.727966,91.287834 
	C569.109314,88.233604 570.318787,83.453438 567.870605,78.909882 
	C565.517029,74.541840 561.194397,73.725571 556.712036,73.847099 
	C548.671936,74.065071 542.695129,78.412880 536.863586,84.421410 
z"/>
<path fill="#FF9DB2" opacity="1.000000" stroke="none" 
	d="
M641.074097,338.902161 
	C639.795959,340.092133 638.517822,341.282104 636.750916,342.665009 
	C627.825073,331.826599 617.588440,330.136841 605.496399,336.602631 
	C600.043030,339.518646 595.269897,337.617310 590.987366,333.569885 
	C588.280029,331.011169 584.759705,328.257233 581.277771,330.724976 
	C578.826050,332.462585 577.350098,336.112122 576.384766,339.203461 
	C575.838745,340.951904 576.942749,343.406586 577.754761,345.355072 
	C581.326721,353.925934 581.056396,354.266937 572.523315,357.299194 
	C570.747375,357.930267 569.741516,360.728119 568.380798,362.527405 
	C570.385071,363.981110 572.434937,366.652771 574.381958,366.579712 
	C576.806213,366.488770 579.499817,364.500366 581.419922,362.649536 
	C583.273926,360.862427 584.364014,358.248718 585.665344,355.928345 
	C590.513367,347.283661 599.574829,345.646240 608.095276,349.204742 
	C610.355835,350.148926 611.959351,352.666473 613.864563,354.461609 
	C611.599609,356.460602 609.403503,358.547821 607.027100,360.404236 
	C606.326843,360.951263 605.111755,360.824036 604.140869,361.042480 
	C600.260254,361.915375 596.137756,362.264008 592.592468,363.877991 
	C590.308655,364.917664 588.874207,367.823090 587.059143,369.892334 
	C589.411194,371.911896 591.525330,374.385773 594.201111,375.787079 
	C595.908569,376.681274 598.668762,375.412140 600.562439,376.139709 
	C603.456726,377.251740 606.630005,378.759460 608.460693,381.069336 
	C609.453735,382.322235 608.676208,386.884949 607.353882,387.658752 
	C604.812317,389.145935 601.267700,389.596924 598.227356,389.357391 
	C595.351257,389.130829 592.648743,387.239777 589.765015,386.476898 
	C578.857910,383.591492 567.061768,393.244507 568.057800,404.266693 
	C568.472168,408.851715 570.601440,412.811310 575.091492,414.371033 
	C581.260132,416.513855 587.334106,415.817200 592.251770,411.119141 
	C594.381226,409.084839 595.857300,406.371887 597.662476,403.991699 
	C600.132202,400.735413 602.756531,399.891510 605.865234,403.316010 
	C607.991150,405.657837 610.414246,407.729919 612.537964,410.073486 
	C616.380798,414.314148 621.379822,415.253784 626.654114,414.902893 
	C632.554810,414.510406 637.274414,408.140137 635.914917,402.892517 
	C638.287292,401.756256 640.584595,400.388519 643.064514,399.583557 
	C644.263733,399.194275 646.768677,399.510406 646.993042,400.124420 
	C647.462158,401.408264 647.338623,403.525543 646.519165,404.546631 
	C644.145874,407.503754 641.331299,410.111237 638.647034,412.813354 
	C633.871643,417.620544 633.699097,419.551758 637.812500,425.542664 
	C633.563171,427.229431 629.205505,429.450623 624.692749,429.831024 
	C615.084717,430.640869 607.729370,425.468689 601.301208,418.966614 
	C587.567200,428.965424 574.137634,429.119232 562.549438,418.934235 
	C555.588989,412.816620 549.611938,401.664459 557.620728,388.807343 
	C553.202454,385.097046 549.682800,380.884308 548.970581,374.083496 
	C548.953613,369.903076 548.578613,366.470245 549.085693,363.173065 
	C549.523193,360.328003 550.964417,357.637268 552.087646,354.564880 
	C554.802917,352.332550 557.147217,349.735504 560.050964,348.685638 
	C562.948486,347.638092 563.495911,345.715912 563.925476,343.461823 
	C564.231140,341.857880 563.843323,340.134186 564.019104,338.491119 
	C564.883972,330.408875 568.467468,323.576660 575.881958,320.229340 
	C584.630981,316.279510 591.520264,316.646423 599.132568,323.739502 
	C601.008728,325.487701 602.221680,325.818542 604.334839,324.232544 
	C609.372925,320.451355 614.972351,320.185669 620.917847,321.908295 
	C630.201843,324.598114 635.637817,331.720001 641.074097,338.902161 
z"/>
<path fill="#FF9DB1" opacity="1.000000" stroke="none" 
	d="
M103.347504,395.994141 
	C108.244415,389.489929 108.103699,386.950134 102.430916,380.934265 
	C100.504776,378.891693 98.607269,376.762695 97.094627,374.416626 
	C96.417557,373.366516 96.101089,371.022888 96.722084,370.440582 
	C97.701935,369.521881 99.921165,368.882721 101.064980,369.383453 
	C104.071564,370.699615 106.781082,372.694305 109.582306,374.956970 
	C108.523010,381.581573 110.473778,384.697021 116.075546,386.233215 
	C123.791176,388.348999 129.090363,384.417419 134.139023,379.409973 
	C139.895523,373.700378 143.014954,374.722809 146.974350,381.649963 
	C149.135971,385.431793 152.824158,388.940308 156.666794,390.997894 
	C160.720276,393.168365 165.702789,392.996643 169.817520,389.666504 
	C173.759720,386.476074 175.803482,382.415558 174.803925,377.384979 
	C173.455811,370.600159 169.851120,365.560516 163.000397,363.093811 
	C157.416046,361.083038 152.174454,362.073761 146.973618,364.176514 
	C143.224854,365.692169 139.763916,365.051788 137.642822,361.843842 
	C136.477386,360.081299 136.197952,357.096100 136.745010,354.978912 
	C137.699921,351.283234 141.141785,350.948212 144.469254,350.984406 
	C147.633987,351.018829 150.924713,351.483063 153.922302,350.765350 
	C156.015625,350.264160 158.564560,348.427643 159.304199,346.553741 
	C159.877563,345.101196 158.392090,342.284851 157.038544,340.778595 
	C155.697525,339.286316 153.454391,338.465240 151.467636,337.722290 
	C147.582260,336.269287 143.410934,335.460449 139.719833,333.648071 
	C136.972687,332.299164 133.658188,329.715332 135.450592,326.270844 
	C136.535126,324.186676 140.000458,322.372253 142.531540,322.175110 
	C154.506012,321.242188 159.217377,324.403259 164.231735,335.439117 
	C165.322769,337.840332 166.224197,340.851196 168.170258,342.195648 
	C170.183456,343.586517 173.402161,343.747437 176.010910,343.515747 
	C177.101974,343.418854 179.099030,340.399323 178.734680,339.619720 
	C177.820038,337.662689 175.836792,336.179871 174.184372,334.609711 
	C173.745209,334.192383 172.932877,334.192108 172.326355,333.922760 
	C167.915466,331.963562 167.319626,329.540833 169.762482,325.292175 
	C171.229691,322.740387 172.615646,320.015503 173.332001,317.189423 
	C174.290771,313.406921 173.423141,309.301880 169.738693,307.774139 
	C167.328400,306.774750 163.895966,307.809967 161.047516,308.474609 
	C159.561829,308.821320 158.376862,310.378204 157.007782,311.318115 
	C152.991425,314.075470 148.303970,313.672516 144.792740,310.284454 
	C143.474045,309.012024 142.218170,307.674316 140.896255,306.405334 
	C135.352951,301.083984 129.190140,300.358948 122.770294,304.581787 
	C119.352066,306.830261 116.223976,309.519775 112.964935,312.010223 
	C111.987434,311.192566 111.009933,310.374908 110.099121,308.927002 
	C112.402451,306.067230 114.533272,303.717682 116.897018,301.632172 
	C122.404991,296.772583 128.746292,292.949493 136.209549,294.225525 
	C141.212311,295.080933 145.846985,298.089142 151.031250,300.298065 
	C158.366425,293.653564 165.953415,292.627777 175.300705,297.791138 
	C184.130768,302.668823 187.390808,312.502930 185.753647,324.905365 
	C189.507477,328.542236 192.772324,331.705322 196.040680,335.272949 
	C198.652588,342.036652 198.399094,348.542816 197.042358,355.105682 
	C193.947083,359.685181 190.851791,364.264679 187.221558,369.635590 
	C189.801163,373.857422 190.418701,380.468842 187.641830,386.023560 
	C185.157776,390.992523 180.874359,395.920807 176.121445,398.727631 
	C164.218002,405.757141 148.288620,405.264679 140.417694,392.322510 
	C130.466293,401.726318 117.049431,406.162964 103.347504,395.994141 
z"/>
<path fill="#141414" opacity="1.000000" stroke="none" 
	d="
M412.994354,668.035767 
	C424.405701,668.024170 435.855255,667.441772 447.214844,668.202759 
	C454.720642,668.705505 462.150330,670.928955 469.507538,672.800842 
	C472.811035,673.641296 476.522034,675.084412 475.497375,679.827820 
	C474.559418,684.169678 469.972473,686.758606 465.647827,686.839844 
	C460.495728,686.936462 455.363403,687.959045 450.216614,688.527222 
	C448.251892,688.744141 446.271240,688.923584 444.297150,688.931396 
	C433.382568,688.974365 422.460388,689.196472 411.556274,688.858154 
	C406.519684,688.701843 401.519531,687.403687 396.500397,686.639404 
	C393.713684,686.215088 390.930115,685.750977 388.130463,685.434875 
	C383.852753,684.952026 379.567352,684.323120 375.275818,684.239380 
	C371.321198,684.162231 367.307404,685.242371 363.402527,684.891235 
	C355.669403,684.195984 348.421967,686.409119 340.956879,687.490723 
	C333.466705,688.575928 325.804626,688.420593 318.241760,689.081604 
	C314.540070,689.405212 310.808105,691.201843 307.236206,690.849243 
	C296.674225,689.806763 286.158508,688.181641 275.690643,686.397644 
	C273.675781,686.054321 271.668640,684.227173 270.160126,682.614746 
	C265.189880,677.302063 266.698517,671.839294 273.865295,670.117920 
	C279.634338,668.732239 285.589630,667.771057 291.508087,667.439636 
	C300.720093,666.923889 309.971008,667.101868 319.555725,667.369385 
	C314.810150,677.206848 318.268646,683.140625 329.118927,682.902954 
	C334.006989,682.795959 338.917419,681.844177 343.733856,680.863831 
	C348.362305,679.921631 350.963135,677.095886 350.485229,671.993164 
	C361.606415,671.994873 372.282806,671.993042 382.969666,672.406738 
	C382.493103,676.828735 383.772095,679.831543 388.058746,680.516724 
	C394.044678,681.473389 400.115356,683.000183 406.079834,682.731201 
	C414.943604,682.331543 417.688538,675.775879 412.994354,668.035767 
z"/>
<path fill="#300000" opacity="1.000000" stroke="none" 
	d="
M271.661011,480.989563 
	C275.040253,483.054962 277.941956,485.122528 280.976807,487.496796 
	C278.946533,488.523193 276.816498,489.739502 274.614655,489.887512 
	C245.146927,491.867767 218.745621,484.264160 196.057663,464.781036 
	C194.035629,463.044617 190.508026,461.824188 187.931396,462.181152 
	C175.564072,463.894440 167.322067,450.570801 172.745834,439.464050 
	C174.600845,435.665375 179.963211,432.874512 184.328171,431.207214 
	C188.585220,429.581207 190.717667,428.690247 189.346024,423.425323 
	C188.343414,419.576843 188.823746,415.070648 189.736725,411.109711 
	C190.189072,409.147156 193.107056,407.752930 194.909515,406.101624 
	C196.569382,407.917267 199.146591,409.500977 199.677841,411.601990 
	C200.511002,414.897064 199.911606,418.542755 200.010910,422.037354 
	C200.206848,428.932281 199.386078,435.784088 202.378510,442.583679 
	C203.738831,445.674683 202.145554,450.008057 202.155411,453.777222 
	C202.159760,455.444366 202.235764,457.793671 203.267792,458.672882 
	C217.287552,470.616150 233.502289,477.817596 251.811951,479.944611 
	C258.223175,480.689392 264.723724,480.664948 271.661011,480.989563 
z"/>
<path fill="#300000" opacity="1.000000" stroke="none" 
	d="
M460.036743,493.053558 
	C461.541870,491.445435 463.198975,490.153046 465.172028,488.809937 
	C469.203094,491.884216 473.453308,494.557800 476.538239,498.214417 
	C488.251617,512.098511 495.386566,528.182434 497.956512,546.198975 
	C498.539764,550.288025 498.987488,554.447388 498.924438,558.565613 
	C498.829285,564.783875 499.179810,570.131592 504.183014,575.273926 
	C510.250702,581.510376 509.007935,591.074219 503.537842,597.065979 
	C499.746307,601.219116 495.192688,601.957092 490.370819,600.479736 
	C485.566345,599.007629 482.974548,595.169922 482.008636,590.183167 
	C481.688904,588.532410 481.091278,586.670654 479.994934,585.483032 
	C476.165588,581.334961 476.418915,576.342041 480.959473,572.691711 
	C481.217468,572.484253 481.499908,572.302307 481.787811,572.137939 
	C484.758698,570.442078 489.727905,569.251282 490.301147,566.959473 
	C491.589142,561.809814 491.335663,556.024597 490.579071,550.657471 
	C487.508972,528.878662 478.342834,510.121307 461.796112,495.268555 
	C461.184692,494.719696 460.721161,494.006104 460.036743,493.053558 
z"/>
<path fill="#3C0C03" opacity="1.000000" stroke="none" 
	d="
M525.593994,161.150818 
	C531.024353,162.591766 536.161316,164.197891 541.754211,165.946564 
	C545.614685,159.024628 549.688049,151.995361 553.395081,144.777908 
	C553.949463,143.698608 553.255554,141.343246 552.339172,140.246750 
	C546.519348,133.282990 544.440430,125.414726 545.869263,116.524460 
	C546.556702,112.247513 548.422913,108.677437 553.002319,108.018150 
	C557.725586,107.338142 560.222473,110.714546 562.021912,114.484528 
	C565.641479,122.067619 563.747437,129.403473 560.803528,136.651001 
	C560.183044,138.178635 559.492004,139.677597 558.594360,141.738632 
	C560.325928,142.737244 561.957458,143.678131 563.695740,144.680618 
	C566.973328,140.817383 569.865112,136.989304 573.212524,133.612869 
	C575.394775,131.411636 578.008972,129.139435 580.853760,128.239090 
	C583.523254,127.394180 587.716187,127.202660 589.480408,128.740631 
	C591.550415,130.545181 592.712952,134.595352 592.508789,137.549927 
	C592.100403,143.458923 587.875854,147.147827 582.374146,148.544098 
	C578.597290,149.502655 574.318848,150.082642 570.602112,149.276230 
	C565.949829,148.266846 564.014771,149.933060 562.225098,153.693222 
	C559.239868,159.965439 555.896423,166.067200 552.901978,171.857513 
	C556.441589,175.228516 559.628113,178.263275 562.924561,181.621246 
	C563.324890,186.760910 562.299194,190.768112 557.312439,193.007721 
	C556.398132,193.418350 555.803833,195.598022 555.861450,196.926407 
	C556.068054,201.683197 552.260742,206.911316 547.560059,207.853790 
	C536.304688,210.110458 518.386414,201.461288 513.144897,191.241577 
	C508.821106,182.811218 510.482056,177.797394 519.292847,173.390259 
	C518.128723,167.925217 520.133545,163.806564 525.593994,161.150818 
M559.318787,182.299301 
	C559.127258,181.841995 559.064514,181.225906 558.725281,180.950592 
	C550.130310,173.976303 540.720947,168.424484 530.045837,165.334549 
	C528.808716,164.976456 527.056458,166.397995 524.896179,167.199341 
	C520.625549,171.219543 524.335754,173.390167 526.804749,176.004837 
	C527.663269,176.914017 527.949951,178.363190 528.497803,179.565750 
	C527.197754,179.622528 525.465820,180.243561 524.673462,179.637070 
	C521.489868,177.200211 518.058167,177.506256 516.483154,180.480560 
	C515.310242,182.695526 515.524475,186.802124 516.870789,188.988983 
	C522.039307,197.384369 530.421204,201.484650 539.787720,203.290512 
	C542.602539,203.833191 546.022705,203.148834 548.712219,201.981857 
	C552.795471,200.210190 552.958191,197.038696 549.449524,194.311005 
	C547.101440,192.485580 544.338074,191.193756 541.993286,189.364853 
	C540.980591,188.574966 540.555298,187.031952 539.863159,185.831070 
	C541.316162,185.770691 542.883301,185.336105 544.195801,185.736450 
	C546.236633,186.358978 548.041809,187.717926 550.057739,188.465683 
	C554.992981,190.296249 558.060425,188.384842 559.318787,182.299301 
M560.906128,126.119102 
	C560.081909,122.135460 559.976318,117.802719 558.253357,114.255676 
	C556.052063,109.724121 551.922729,110.175575 549.622498,114.608337 
	C545.939331,121.706253 549.388184,134.340408 556.841248,139.261887 
	C558.200134,135.047821 559.502441,131.009399 560.906128,126.119102 
M572.066650,146.674286 
	C574.711182,146.548248 577.415039,146.728256 579.987366,146.229752 
	C584.717346,145.313095 588.495178,142.695938 589.373718,137.755157 
	C589.756714,135.601105 589.074829,132.479507 587.634521,131.040543 
	C586.594910,130.001907 583.159241,130.337967 581.391418,131.237900 
	C575.351624,134.312561 571.140015,139.354431 567.489502,145.504257 
	C569.104431,145.968689 570.172668,146.275879 572.066650,146.674286 
M556.899841,145.231171 
	C552.761719,152.598434 548.623596,159.965683 544.274780,167.708023 
	C546.175049,168.794327 547.824951,169.737518 549.822571,170.879486 
	C554.014038,162.818542 558.023621,155.107574 562.164307,147.144394 
	C560.476501,146.298920 559.014648,145.566635 556.899841,145.231171 
z"/>
<path fill="#300000" opacity="1.000000" stroke="none" 
	d="
M350.040405,671.989685 
	C350.963135,677.095886 348.362305,679.921631 343.733856,680.863831 
	C338.917419,681.844177 334.006989,682.795959 329.118927,682.902954 
	C318.268646,683.140625 314.810150,677.206848 319.979156,667.399048 
	C325.819275,662.474304 332.436615,662.282104 340.049011,663.913879 
	C337.615845,650.105591 335.307861,637.007629 332.989990,623.496460 
	C335.444550,623.256104 337.908966,623.429077 340.860352,624.194702 
	C344.244995,640.521484 347.142700,656.255615 350.040405,671.989685 
z"/>
<path fill="#300000" opacity="1.000000" stroke="none" 
	d="
M412.695526,667.862915 
	C417.688538,675.775879 414.943604,682.331543 406.079834,682.731201 
	C400.115356,683.000183 394.044678,681.473389 388.058746,680.516724 
	C383.772095,679.831543 382.493103,676.828735 382.983948,671.983398 
	C383.188477,669.670715 383.343353,668.189026 383.597137,666.724365 
	C386.056305,652.531250 388.532043,638.341003 391.003052,624.149902 
	C393.737396,623.808594 396.471710,623.467285 399.614319,623.164917 
	C397.701538,635.915161 395.371155,648.624756 393.088776,661.342957 
	C392.982788,661.933655 393.306427,662.601440 393.500061,663.591492 
	C400.290100,662.930542 407.253662,661.500916 412.695526,667.862915 
z"/>
<path fill="#FFB0BB" opacity="1.000000" stroke="none" 
	d="
M197.389313,354.950165 
	C198.399094,348.542816 198.652588,342.036652 196.433990,335.325439 
	C208.976013,332.555267 218.782898,325.860992 227.908401,317.924377 
	C227.930832,321.452332 228.422501,325.056549 227.864548,328.490173 
	C227.048569,333.511658 225.479767,338.410797 224.075378,343.705872 
	C215.191391,347.631317 206.463837,351.212982 197.389313,354.950165 
z"/>
<path fill="#FFB0BB" opacity="1.000000" stroke="none" 
	d="
M551.961914,354.878326 
	C550.964417,357.637268 549.523193,360.328003 549.085693,363.173065 
	C548.578613,366.470245 548.953613,369.903076 548.951904,373.690918 
	C541.956848,370.555328 534.929077,367.056824 527.975220,363.416992 
	C526.427490,362.606934 525.140198,361.299408 523.399048,360.144531 
	C522.034546,351.579895 519.465698,343.135834 522.727417,334.577820 
	C530.386108,344.718414 540.314270,351.022217 551.961914,354.878326 
z"/>
<path fill="#000000" opacity="1.000000" stroke="none" 
	d="
M227.945343,317.520447 
	C218.782898,325.860992 208.976013,332.555267 196.430466,334.920898 
	C192.772324,331.705322 189.507477,328.542236 185.753647,324.905365 
	C187.390808,312.502930 184.130768,302.668823 175.300705,297.791138 
	C165.953415,292.627777 158.366425,293.653564 151.031250,300.298065 
	C145.846985,298.089142 141.212311,295.080933 136.209549,294.225525 
	C128.746292,292.949493 122.404991,296.772583 116.897018,301.632172 
	C114.533272,303.717682 112.402451,306.067230 110.027588,308.607117 
	C103.620918,308.400421 99.711021,312.689941 95.416504,316.104797 
	C77.673538,330.213287 53.580345,332.466156 37.257233,314.568634 
	C22.119585,297.970978 21.877129,280.589478 36.457947,263.383423 
	C43.668156,254.875031 54.295509,251.442017 65.419922,249.957413 
	C88.181366,246.919785 109.851578,252.848267 131.407410,258.370789 
	C149.673233,263.050446 167.643387,269.014526 185.491196,275.147095 
	C196.421921,278.902924 206.328629,285.042328 215.084686,292.674713 
	C222.445694,299.091125 226.569214,307.445465 227.945343,317.520447 
z"/>
<path fill="#000000" opacity="1.000000" stroke="none" 
	d="
M552.087646,354.564880 
	C540.314270,351.022217 530.386108,344.718414 522.983032,334.296875 
	C525.406860,321.217133 533.406921,312.940765 544.478760,306.823212 
	C560.507996,297.966461 577.814392,293.601410 595.743835,290.959137 
	C612.488342,288.491425 629.118530,285.107361 645.921753,283.217285 
	C664.028198,281.180603 682.373291,279.732483 699.864563,287.064117 
	C718.461243,294.859100 731.840149,316.041870 723.854980,336.391144 
	C718.818970,349.224670 709.030640,357.694122 695.378235,360.949310 
	C681.648926,364.222900 669.679138,360.005707 659.011047,351.447510 
	C655.160278,348.358276 651.807678,344.646576 647.946167,341.572632 
	C646.281433,340.247437 643.901489,339.820526 641.460327,338.943848 
	C635.637817,331.720001 630.201843,324.598114 620.917847,321.908295 
	C614.972351,320.185669 609.372925,320.451355 604.334839,324.232544 
	C602.221680,325.818542 601.008728,325.487701 599.132568,323.739502 
	C591.520264,316.646423 584.630981,316.279510 575.881958,320.229340 
	C568.467468,323.576660 564.883972,330.408875 564.019104,338.491119 
	C563.843323,340.134186 564.231140,341.857880 563.925476,343.461823 
	C563.495911,345.715912 562.948486,347.638092 560.050964,348.685638 
	C557.147217,349.735504 554.802917,352.332550 552.087646,354.564880 
z"/>
<path fill="#F9445F" opacity="1.000000" stroke="none" 
	d="
M369.994293,603.003296 
	C356.148560,603.304443 342.903076,603.170288 330.208649,597.975159 
	C316.079407,592.192871 311.770020,581.600098 318.562561,567.898071 
	C320.326385,564.339966 322.455414,560.870239 324.938660,557.779236 
	C331.788086,549.253662 332.255310,540.415283 327.453949,530.796936 
	C324.374756,524.628540 321.815674,518.200562 319.015076,511.869995 
	C326.067993,512.300171 332.432556,513.035400 338.791382,512.988647 
	C346.770416,512.929993 353.568939,509.588531 359.362762,504.106415 
	C363.604218,500.093170 365.890717,499.860901 369.434998,503.925323 
	C379.071655,514.976074 390.819366,519.279724 405.219879,516.083679 
	C405.821686,515.950134 406.504791,516.182861 407.992065,516.325928 
	C407.208435,518.107300 406.666443,519.545227 405.959595,520.896912 
	C404.957977,522.812256 403.744080,524.618713 402.777466,526.549988 
	C390.812286,550.456238 393.275909,548.716187 402.631531,567.179688 
	C407.157227,576.111206 409.606567,585.117798 402.932556,593.934082 
	C397.517639,601.087158 389.122192,602.010437 380.981934,602.889893 
	C377.522003,603.263672 373.991577,602.984436 369.994293,603.003296 
M386.116058,586.753418 
	C388.743896,585.906616 391.371765,585.059814 393.999603,584.213074 
	C393.822845,583.705566 393.646057,583.198120 393.469299,582.690674 
	C382.699677,583.554932 371.886932,585.444336 361.172699,584.993469 
	C350.576111,584.547607 340.078918,581.738525 329.538147,579.966125 
	C329.360016,580.330017 329.181885,580.693909 329.003754,581.057800 
	C332.798096,582.668518 336.486938,584.621704 340.405548,585.828979 
	C355.230469,590.396301 370.245514,589.640259 386.116058,586.753418 
M388.095245,565.438965 
	C369.952301,570.064331 352.070160,568.738281 334.192139,562.679077 
	C335.468964,564.723755 336.891602,566.029968 338.563690,566.586121 
	C342.964417,568.049927 347.433502,569.358154 351.947571,570.421692 
	C363.339874,573.105835 374.680725,571.985107 385.929138,569.437012 
	C387.598145,569.059021 390.832947,569.154907 388.095245,565.438965 
M370.437592,532.044617 
	C375.537506,531.442505 380.659576,530.976013 385.722687,530.148682 
	C387.090118,529.925232 388.278839,528.608154 389.549561,527.793030 
	C388.011505,527.468750 386.347046,526.588928 384.954834,526.905640 
	C369.916290,530.327515 355.256531,529.580200 340.928040,523.602478 
	C339.659851,523.073425 338.052521,523.357483 336.602692,523.263916 
	C336.522766,523.833252 336.442810,524.402588 336.362885,524.971924 
	C346.554413,530.805359 357.754303,532.471130 370.437592,532.044617 
M352.326111,547.296509 
	C349.041443,546.570984 345.756805,545.845520 342.472137,545.119995 
	C348.391571,553.802002 378.391449,554.942200 383.516663,547.555176 
	C373.254333,547.555176 363.193390,547.555176 352.326111,547.296509 
z"/>
<path fill="#FFB0BB" opacity="1.000000" stroke="none" 
	d="
M112.977150,312.426331 
	C116.223976,309.519775 119.352066,306.830261 122.770294,304.581787 
	C129.190140,300.358948 135.352951,301.083984 140.896255,306.405334 
	C142.218170,307.674316 143.474045,309.012024 144.792740,310.284454 
	C148.303970,313.672516 152.991425,314.075470 157.007782,311.318115 
	C158.376862,310.378204 159.561829,308.821320 161.047516,308.474609 
	C163.895966,307.809967 167.328400,306.774750 169.738693,307.774139 
	C173.423141,309.301880 174.290771,313.406921 173.332001,317.189423 
	C172.615646,320.015503 171.229691,322.740387 169.762482,325.292175 
	C167.319626,329.540833 167.915466,331.963562 172.326355,333.922760 
	C172.932877,334.192108 173.745209,334.192383 174.184372,334.609711 
	C175.836792,336.179871 177.820038,337.662689 178.734680,339.619720 
	C179.099030,340.399323 177.101974,343.418854 176.010910,343.515747 
	C173.402161,343.747437 170.183456,343.586517 168.170258,342.195648 
	C166.224197,340.851196 165.322769,337.840332 164.231735,335.439117 
	C159.217377,324.403259 154.506012,321.242188 142.531540,322.175110 
	C140.000458,322.372253 136.535126,324.186676 135.450592,326.270844 
	C133.658188,329.715332 136.972687,332.299164 139.719833,333.648071 
	C143.410934,335.460449 147.582260,336.269287 151.467636,337.722290 
	C153.454391,338.465240 155.697525,339.286316 157.038544,340.778595 
	C158.392090,342.284851 159.877563,345.101196 159.304199,346.553741 
	C158.564560,348.427643 156.015625,350.264160 153.922302,350.765350 
	C150.924713,351.483063 147.633987,351.018829 144.469254,350.984406 
	C141.141785,350.948212 137.699921,351.283234 136.745010,354.978912 
	C136.197952,357.096100 136.477386,360.081299 137.642822,361.843842 
	C139.763916,365.051788 143.224854,365.692169 146.973618,364.176514 
	C152.174454,362.073761 157.416046,361.083038 163.000397,363.093811 
	C169.851120,365.560516 173.455811,370.600159 174.803925,377.384979 
	C175.803482,382.415558 173.759720,386.476074 169.817520,389.666504 
	C165.702789,392.996643 160.720276,393.168365 156.666794,390.997894 
	C152.824158,388.940308 149.135971,385.431793 146.974350,381.649963 
	C143.014954,374.722809 139.895523,373.700378 134.139023,379.409973 
	C129.090363,384.417419 123.791176,388.348999 116.075546,386.233215 
	C110.473778,384.697021 108.523010,381.581573 109.810089,375.204407 
	C116.002342,375.016998 119.974388,372.352753 120.871567,367.664764 
	C121.776520,362.936157 118.872017,359.060455 113.008858,357.210541 
	C112.059891,356.911133 110.735657,357.018860 110.178787,356.402161 
	C108.335045,354.360229 106.762985,352.073059 105.086685,349.879944 
	C107.423744,349.421509 109.744194,348.772461 112.103294,348.566772 
	C113.893906,348.410706 115.733543,348.949585 117.551674,348.952148 
	C123.361404,348.960419 126.977661,345.967651 126.782646,341.440857 
	C126.598015,337.155060 120.944092,333.331055 115.903870,334.282990 
	C113.297806,334.775177 110.797302,336.109833 108.199638,336.272125 
	C106.162727,336.399384 103.105438,335.923187 102.238342,334.587524 
	C101.384857,333.272827 102.356125,330.375061 103.212105,328.481781 
	C103.837250,327.099121 105.483040,326.090424 106.831650,325.138611 
	C111.106430,322.121582 113.415863,318.183350 112.977150,312.426331 
z"/>
<path fill="#FFB0BB" opacity="1.000000" stroke="none" 
	d="
M635.538574,402.986603 
	C637.274414,408.140137 632.554810,414.510406 626.654114,414.902893 
	C621.379822,415.253784 616.380798,414.314148 612.537964,410.073486 
	C610.414246,407.729919 607.991150,405.657837 605.865234,403.316010 
	C602.756531,399.891510 600.132202,400.735413 597.662476,403.991699 
	C595.857300,406.371887 594.381226,409.084839 592.251770,411.119141 
	C587.334106,415.817200 581.260132,416.513855 575.091492,414.371033 
	C570.601440,412.811310 568.472168,408.851715 568.057800,404.266693 
	C567.061768,393.244507 578.857910,383.591492 589.765015,386.476898 
	C592.648743,387.239777 595.351257,389.130829 598.227356,389.357391 
	C601.267700,389.596924 604.812317,389.145935 607.353882,387.658752 
	C608.676208,386.884949 609.453735,382.322235 608.460693,381.069336 
	C606.630005,378.759460 603.456726,377.251740 600.562439,376.139709 
	C598.668762,375.412140 595.908569,376.681274 594.201111,375.787079 
	C591.525330,374.385773 589.411194,371.911896 587.059143,369.892334 
	C588.874207,367.823090 590.308655,364.917664 592.592468,363.877991 
	C596.137756,362.264008 600.260254,361.915375 604.140869,361.042480 
	C605.111755,360.824036 606.326843,360.951263 607.027100,360.404236 
	C609.403503,358.547821 611.599609,356.460602 613.864563,354.461609 
	C611.959351,352.666473 610.355835,350.148926 608.095276,349.204742 
	C599.574829,345.646240 590.513367,347.283661 585.665344,355.928345 
	C584.364014,358.248718 583.273926,360.862427 581.419922,362.649536 
	C579.499817,364.500366 576.806213,366.488770 574.381958,366.579712 
	C572.434937,366.652771 570.385071,363.981110 568.380798,362.527405 
	C569.741516,360.728119 570.747375,357.930267 572.523315,357.299194 
	C581.056396,354.266937 581.326721,353.925934 577.754761,345.355072 
	C576.942749,343.406586 575.838745,340.951904 576.384766,339.203461 
	C577.350098,336.112122 578.826050,332.462585 581.277771,330.724976 
	C584.759705,328.257233 588.280029,331.011169 590.987366,333.569885 
	C595.269897,337.617310 600.043030,339.518646 605.496399,336.602631 
	C617.588440,330.136841 627.825073,331.826599 636.575317,342.947510 
	C636.510437,347.497986 638.093750,351.060730 641.404175,354.112701 
	C643.203979,355.771973 644.842468,357.827515 645.868103,360.024445 
	C646.509949,361.399139 646.491638,363.851654 645.641418,364.936523 
	C644.793762,366.018250 642.506226,366.449860 640.908691,366.336792 
	C639.168884,366.213715 637.544861,364.924408 635.783936,364.523041 
	C632.908813,363.867706 629.951965,363.073914 627.050598,363.149109 
	C622.906982,363.256409 620.320435,366.542297 620.601746,370.030243 
	C620.797974,372.464111 623.515930,375.662720 625.901184,376.707092 
	C628.889038,378.015228 632.704834,377.344910 636.132446,377.774292 
	C637.733521,377.974823 639.262207,378.752533 640.823730,379.268616 
	C640.018433,381.082092 639.669250,383.490723 638.286316,384.550476 
	C636.740845,385.734802 634.268311,385.746674 632.180603,386.179413 
	C625.257507,387.614349 621.635071,393.229004 624.096375,398.767883 
	C626.191467,403.483032 629.305664,404.696686 635.538574,402.986603 
z"/>
<path fill="#000000" opacity="1.000000" stroke="none" 
	d="
M390.590088,624.241882 
	C388.532043,638.341003 386.056305,652.531250 383.597137,666.724365 
	C383.343353,668.189026 383.188477,669.670715 382.973450,671.567871 
	C372.282806,671.993042 361.606415,671.994873 350.485229,671.993164 
	C347.142700,656.255615 344.244995,640.521484 341.190857,624.435669 
	C355.834015,624.389221 370.633209,624.717590 385.433746,624.966492 
	C387.010864,624.993103 388.595795,624.555908 390.590088,624.241882 
z"/>
<path fill="#F9445E" opacity="1.000000" stroke="none" 
	d="
M417.662170,458.199554 
	C410.726410,447.752686 413.702148,437.075012 424.554474,431.665161 
	C433.145386,427.382660 452.023438,427.784088 460.655518,437.879547 
	C469.313721,448.005554 467.048676,460.488159 454.733643,465.496277 
	C443.313629,470.140442 426.805481,469.291901 417.662170,458.199554 
z"/>
<path fill="#F9445E" opacity="1.000000" stroke="none" 
	d="
M299.901550,455.870575 
	C293.163696,454.048706 286.561371,452.867584 280.604279,450.229492 
	C268.870422,445.033112 265.834137,429.838226 280.958069,420.071564 
	C291.594788,413.202606 309.125031,415.428802 317.995728,424.425262 
	C326.055573,432.599365 324.490204,445.758331 314.360443,451.167023 
	C310.071930,453.456909 305.028870,454.333649 299.901550,455.870575 
z"/>
<path fill="#FFFDFD" opacity="1.000000" stroke="none" 
	d="
M298.336670,231.948105 
	C292.125793,229.756729 286.395599,227.092896 285.628845,220.216949 
	C284.845215,213.189209 289.419220,208.432739 294.709167,204.636078 
	C305.119293,197.164536 321.427429,197.250427 330.753662,204.627930 
	C339.473938,211.526108 339.358063,220.153381 330.117767,226.202072 
	C320.550415,232.464859 310.063538,234.777039 298.336670,231.948105 
z"/>
<path fill="#FFFCFC" opacity="1.000000" stroke="none" 
	d="
M276.975220,229.163696 
	C278.151031,236.206314 275.519897,241.850128 269.824860,245.040253 
	C264.221283,248.179138 256.650269,247.599304 252.035751,243.693802 
	C248.365906,240.587845 247.249329,236.565659 248.205414,232.033035 
	C249.464935,226.061920 256.251404,220.882355 263.360016,220.179596 
	C269.565460,219.566132 273.870667,222.303772 276.975220,229.163696 
z"/>
<path fill="#360405" opacity="1.000000" stroke="none" 
	d="
M352.816193,446.139008 
	C350.907745,442.637604 349.119965,439.461700 347.608307,436.159363 
	C346.376465,433.468140 346.411621,430.795563 349.668243,429.512299 
	C352.916382,428.232361 355.096436,429.622681 356.314972,432.785217 
	C356.970703,434.487030 357.561859,436.242950 358.456848,437.818390 
	C363.304565,446.351685 373.571533,446.929535 379.408112,439.004333 
	C380.384644,437.678375 380.721558,435.592957 381.956665,434.813904 
	C383.781311,433.662933 386.364471,432.467926 388.229584,432.920349 
	C391.015808,433.596252 391.373199,436.080200 390.218109,438.974518 
	C383.730103,455.231934 365.184448,458.995514 352.816193,446.139008 
z"/>
<path fill="#360405" opacity="1.000000" stroke="none" 
	d="
M443.041077,417.601044 
	C436.668182,415.071320 431.309235,416.396576 426.416809,420.373627 
	C423.351837,422.865082 420.151001,423.035583 417.700714,419.819763 
	C415.389557,416.786621 416.592010,413.938995 419.275330,411.502930 
	C430.068909,401.703857 448.502167,403.242096 457.700195,414.715149 
	C460.073669,417.675629 460.972961,420.757751 457.868469,423.544739 
	C454.774994,426.321869 451.847595,425.171387 449.128143,422.442993 
	C447.396698,420.705933 445.309113,419.323853 443.041077,417.601044 
z"/>
<path fill="#360404" opacity="1.000000" stroke="none" 
	d="
M284.902893,409.388794 
	C281.111115,405.117035 281.167480,402.873108 284.823639,399.467926 
	C295.462189,389.559692 314.941620,391.381256 323.543640,403.080719 
	C325.675629,405.980377 326.183899,409.068176 323.364868,411.587921 
	C320.536682,414.115967 317.657898,413.316925 315.015656,410.682220 
	C306.893005,402.582703 301.201843,402.208221 291.689667,408.421600 
	C289.996948,409.527222 287.403259,409.253448 284.902893,409.388794 
z"/>
<path fill="#FFFEFA" opacity="1.000000" stroke="none" 
	d="
M537.097412,84.149384 
	C542.695129,78.412880 548.671936,74.065071 556.712036,73.847099 
	C561.194397,73.725571 565.517029,74.541840 567.870605,78.909882 
	C570.318787,83.453438 569.109314,88.233604 565.727966,91.287834 
	C560.903442,95.645737 555.462524,99.665596 549.631836,102.473862 
	C543.076904,105.630920 536.642456,103.855667 533.680481,99.734673 
	C530.804932,95.733772 531.863708,90.640076 537.097412,84.149384 
z"/>
<path fill="#000000" opacity="1.000000" stroke="none" 
	d="
M559.104614,183.011703 
	C558.060425,188.384842 554.992981,190.296249 550.057739,188.465683 
	C548.041809,187.717926 546.236633,186.358978 544.195801,185.736450 
	C542.883301,185.336105 541.316162,185.770691 539.863159,185.831070 
	C540.555298,187.031952 540.980591,188.574966 541.993286,189.364853 
	C544.338074,191.193756 547.101440,192.485580 549.449524,194.311005 
	C552.958191,197.038696 552.795471,200.210190 548.712219,201.981857 
	C546.022705,203.148834 542.602539,203.833191 539.787720,203.290512 
	C530.421204,201.484650 522.039307,197.384369 516.870789,188.988983 
	C515.524475,186.802124 515.310242,182.695526 516.483154,180.480560 
	C518.058167,177.506256 521.489868,177.200211 524.673462,179.637070 
	C525.465820,180.243561 527.197754,179.622528 528.497803,179.565750 
	C527.949951,178.363190 527.663269,176.914017 526.804749,176.004837 
	C524.335754,173.390167 520.625549,171.219543 525.414429,167.427734 
	C526.583679,168.897141 526.997620,170.361069 527.922546,171.344376 
	C536.381897,180.337631 547.091248,183.447052 559.104614,183.011703 
z"/>
<path fill="#FAC42D" opacity="1.000000" stroke="none" 
	d="
M559.211670,182.655502 
	C547.091248,183.447052 536.381897,180.337631 527.922546,171.344376 
	C526.997620,170.361069 526.583679,168.897141 525.737915,167.325287 
	C527.056458,166.397995 528.808716,164.976456 530.045837,165.334549 
	C540.720947,168.424484 550.130310,173.976303 558.725281,180.950592 
	C559.064514,181.225906 559.127258,181.841995 559.211670,182.655502 
z"/>
<path fill="#F8C12C" opacity="1.000000" stroke="none" 
	d="
M560.855469,126.545029 
	C559.502441,131.009399 558.200134,135.047821 556.841248,139.261887 
	C549.388184,134.340408 545.939331,121.706253 549.622498,114.608337 
	C551.922729,110.175575 556.052063,109.724121 558.253357,114.255676 
	C559.976318,117.802719 560.081909,122.135460 560.855469,126.545029 
z"/>
<path fill="#F6C02C" opacity="1.000000" stroke="none" 
	d="
M571.653809,146.628693 
	C570.172668,146.275879 569.104431,145.968689 567.489502,145.504257 
	C571.140015,139.354431 575.351624,134.312561 581.391418,131.237900 
	C583.159241,130.337967 586.594910,130.001907 587.634521,131.040543 
	C589.074829,132.479507 589.756714,135.601105 589.373718,137.755157 
	C588.495178,142.695938 584.717346,145.313095 579.987366,146.229752 
	C577.415039,146.728256 574.711182,146.548248 571.653809,146.628693 
z"/>
<path fill="#F3BD2C" opacity="1.000000" stroke="none" 
	d="
M557.226318,145.032776 
	C559.014648,145.566635 560.476501,146.298920 562.164307,147.144394 
	C558.023621,155.107574 554.014038,162.818542 549.822571,170.879486 
	C547.824951,169.737518 546.175049,168.794327 544.274780,167.708023 
	C548.623596,159.965683 552.761719,152.598434 557.226318,145.032776 
z"/>
<path fill="#FE7A88" opacity="1.000000" stroke="none" 
	d="
M385.697845,586.832275 
	C370.245514,589.640259 355.230469,590.396301 340.405548,585.828979 
	C336.486938,584.621704 332.798096,582.668518 329.003754,581.057800 
	C329.181885,580.693909 329.360016,580.330017 329.538147,579.966125 
	C340.078918,581.738525 350.576111,584.547607 361.172699,584.993469 
	C371.886932,585.444336 382.699677,583.554932 393.469299,582.690674 
	C393.646057,583.198120 393.822845,583.705566 393.999603,584.213074 
	C391.371765,585.059814 388.743896,585.906616 385.697845,586.832275 
z"/>
<path fill="#FE7B88" opacity="1.000000" stroke="none" 
	d="
M388.435120,565.549683 
	C390.832947,569.154907 387.598145,569.059021 385.929138,569.437012 
	C374.680725,571.985107 363.339874,573.105835 351.947571,570.421692 
	C347.433502,569.358154 342.964417,568.049927 338.563690,566.586121 
	C336.891602,566.029968 335.468964,564.723755 334.192139,562.679077 
	C352.070160,568.738281 369.952301,570.064331 388.435120,565.549683 
z"/>
<path fill="#FE7B88" opacity="1.000000" stroke="none" 
	d="
M369.948669,532.046021 
	C357.754303,532.471130 346.554413,530.805359 336.362885,524.971924 
	C336.442810,524.402588 336.522766,523.833252 336.602692,523.263916 
	C338.052521,523.357483 339.659851,523.073425 340.928040,523.602478 
	C355.256531,529.580200 369.916290,530.327515 384.954834,526.905640 
	C386.347046,526.588928 388.011505,527.468750 389.549561,527.793030 
	C388.278839,528.608154 387.090118,529.925232 385.722687,530.148682 
	C380.659576,530.976013 375.537506,531.442505 369.948669,532.046021 
z"/>
<path fill="#FF7C8A" opacity="1.000000" stroke="none" 
	d="
M352.729279,547.425842 
	C363.193390,547.555176 373.254333,547.555176 383.516663,547.555176 
	C378.391449,554.942200 348.391571,553.802002 342.472137,545.119995 
	C345.756805,545.845520 349.041443,546.570984 352.729279,547.425842 
z"/>
</svg>