<svg version="1.1" id="Layer_1" xmlns="http://www.w3.org/2000/svg" xmlns:xlink="http://www.w3.org/1999/xlink" x="0px" y="0px"
	 width="100%" viewBox="0 0 750 750" enable-background="new 0 0 750 750" xml:space="preserve">
<path fill="#000000" opacity="1.000000" stroke="none" 
	d="
M425.000000,751.000000 
	C283.333344,751.000000 142.166672,751.000000 1.000000,751.000000 
	C1.000000,501.000000 1.000000,251.000000 1.000000,1.000000 
	C251.000000,1.000000 501.000000,1.000000 751.000000,1.000000 
	C751.000000,251.000000 751.000000,501.000000 751.000000,751.000000 
	C642.500000,751.000000 534.000000,751.000000 425.000000,751.000000 
M424.342224,616.679871 
	C418.903534,611.147522 412.457886,610.950989 404.997528,613.475891 
	C407.710663,597.406311 410.353455,581.753296 413.824280,566.013062 
	C417.893921,564.998474 422.165070,564.470459 425.997803,562.883545 
	C441.250946,556.568542 448.374634,545.632812 445.274994,527.494019 
	C443.549255,517.395325 438.399231,509.124084 433.230621,500.718262 
	C430.189789,495.772919 426.853729,491.055359 426.926239,484.726105 
	C427.050598,473.870605 432.947693,465.404358 438.010132,456.607025 
	C439.886688,453.346008 442.060425,449.823486 445.017609,447.700073 
	C453.016815,441.956329 461.509216,436.899445 470.098785,432.244476 
	C470.903198,433.072021 471.737823,433.872528 472.507202,434.731445 
	C478.449951,441.365814 485.076019,447.523071 490.157104,454.763763 
	C498.566589,466.747528 502.819427,480.539032 504.873108,495.041412 
	C505.976898,502.836365 505.310455,504.600555 498.131195,508.430389 
	C497.690918,508.665283 497.223480,508.854858 496.802490,509.119324 
	C491.030884,512.744873 490.464111,518.694702 495.204987,523.639343 
	C496.220642,524.698669 496.653534,526.405212 497.118774,527.887695 
	C498.679016,532.859924 501.791656,536.395691 506.840546,537.710632 
	C511.644012,538.961609 515.624023,536.946289 518.952148,533.533936 
	C523.837219,528.525208 525.095459,519.532593 519.959229,513.917175 
	C514.591187,508.048309 512.311279,501.799530 512.201599,494.231262 
	C512.165833,491.761810 511.780121,489.287689 511.426514,486.834137 
	C509.277405,471.921600 503.787842,458.168823 494.836731,446.232086 
	C489.459351,439.061188 482.201447,433.300415 476.113617,426.289581 
	C484.520599,417.918671 493.699310,410.177704 501.161804,401.035828 
	C513.766296,385.594696 522.884094,368.038879 526.763977,348.275177 
	C528.205933,340.930206 528.947510,333.293457 528.760681,325.820984 
	C528.512207,315.882538 527.043945,305.974609 526.764038,296.246185 
	C535.162048,300.532654 543.560120,304.819122 552.007141,309.850861 
	C554.879822,314.358398 557.752563,318.865967 560.935669,323.860535 
	C556.024902,331.106812 557.658997,343.807465 567.432739,351.994019 
	C579.582703,362.171051 594.445618,361.225403 606.510498,349.224731 
	C612.533508,357.606934 627.881165,365.093445 643.805420,354.997498 
	C648.539490,356.145081 652.594788,355.140961 656.035522,351.514130 
	C664.026367,343.091095 671.351990,333.810913 680.335754,326.610504 
	C692.844482,316.584839 706.601379,308.112091 719.863525,299.032257 
	C729.134949,292.684601 737.654358,285.610992 742.896484,275.381439 
	C748.921631,263.623779 750.062805,251.296036 748.131531,238.247971 
	C745.635864,221.387619 737.138306,208.258881 724.100281,198.136841 
	C710.764404,187.783554 694.658630,184.161545 678.272888,184.228485 
	C654.988953,184.323578 631.716797,186.157837 608.429199,186.939270 
	C593.796631,187.430283 579.530762,185.209244 565.349731,181.219650 
	C541.652100,174.552765 520.524719,162.510254 499.428009,150.554443 
	C481.017822,140.121170 462.189606,130.990005 441.775757,125.414787 
	C421.669983,119.923706 401.207062,116.615959 380.282379,117.028130 
	C372.352448,117.184341 364.394684,117.314926 356.511017,118.085602 
	C346.621002,119.052391 336.728943,120.304558 326.953247,122.072319 
	C304.994751,126.043129 284.248657,133.645523 264.448029,143.903687 
	C246.898849,152.995422 229.508331,162.427078 211.679153,170.936340 
	C188.183350,182.150101 163.691254,189.177353 137.128708,186.081238 
	C127.004135,184.901123 116.763969,184.048569 106.586243,184.139420 
	C90.071663,184.286850 73.466797,184.451920 57.085739,186.276627 
	C43.528156,187.786804 31.396023,193.708725 21.486576,203.852493 
	C11.675290,213.895767 5.827816,225.444229 3.773860,239.374924 
	C1.104341,257.480591 4.651787,273.783813 17.628899,286.789459 
	C24.932178,294.108734 33.825375,299.904938 42.288326,305.989502 
	C56.341682,316.093353 71.744576,324.415497 83.298058,337.760742 
	C86.971397,342.003754 90.989418,345.949066 94.648560,350.203583 
	C98.478516,354.656708 103.058174,356.442780 109.148849,355.736145 
	C122.895523,362.941254 134.986206,360.794067 145.339371,349.180573 
	C151.487289,358.779480 164.694672,361.863800 177.764420,355.754486 
	C184.775040,352.477386 189.750870,347.573242 192.170731,340.280487 
	C194.244354,334.031128 193.110016,327.931122 191.144287,323.875793 
	C194.551346,318.221924 197.296173,313.666992 200.715134,308.816193 
	C209.115616,304.574188 217.516098,300.332184 225.989731,296.955444 
	C225.977341,298.286224 226.173599,299.658173 225.920609,300.941528 
	C223.118896,315.154572 222.234528,329.459808 225.082672,343.709839 
	C227.753540,357.072998 232.205139,369.848724 239.147156,381.730591 
	C246.551331,394.403442 255.790833,405.552216 265.555450,416.474396 
	C261.008942,417.313446 256.493378,418.588623 251.910385,418.913605 
	C234.881012,420.121277 218.430008,417.565918 203.088379,409.806305 
	C196.620117,406.534698 188.087967,404.206787 191.975739,393.606750 
	C192.135956,393.169922 192.015579,392.611572 191.960403,392.117157 
	C191.262405,385.862671 188.200958,383.638367 181.924698,384.451141 
	C180.418228,384.646210 178.729858,384.124878 177.235764,383.611237 
	C169.652786,381.004333 161.397980,384.338531 160.295731,391.096741 
	C159.511642,395.904236 158.959641,401.048065 163.221817,405.100494 
	C168.257614,409.888489 173.731415,412.285492 180.866241,410.325104 
	C183.052399,409.724457 186.184860,409.991699 188.047302,411.176636 
	C214.833923,428.218842 243.244812,432.850006 274.097992,423.617310 
	C283.939209,430.783356 293.764496,437.971436 303.634705,445.097351 
	C305.677307,446.572052 308.694641,447.321411 309.876434,449.253143 
	C314.433533,456.702148 318.973541,464.255127 322.481415,472.226379 
	C326.052521,480.341248 326.576630,488.542114 321.167236,496.832703 
	C314.291351,507.370850 307.824127,518.345764 306.364990,531.283569 
	C305.338287,540.387085 307.233093,548.705566 314.363068,555.048767 
	C322.795227,562.550415 333.188263,565.523865 344.358765,568.012268 
	C346.940369,582.825012 349.521973,597.637756 352.248474,613.281860 
	C343.940277,610.877380 337.475830,611.653259 331.442993,616.528442 
	C330.617523,616.033447 329.778473,615.088623 328.968719,615.113037 
	C320.846924,615.357971 312.729919,615.761719 304.611786,616.125305 
	C304.449219,616.132507 304.290985,616.208801 304.127716,616.231628 
	C299.776642,616.841309 295.439850,617.770142 291.069824,617.969421 
	C286.247009,618.189514 280.767700,621.569092 280.107513,625.421021 
	C279.212677,630.642273 281.011017,633.201904 287.521362,635.281799 
	C307.127441,641.545471 327.041229,640.124634 346.999542,637.523193 
	C356.502441,636.284607 366.046722,634.053406 375.528351,634.262634 
	C390.539001,634.593872 405.494324,637.323181 420.506866,637.703552 
	C437.750153,638.140442 455.032410,637.194763 472.292480,636.675720 
	C475.558716,636.577515 478.816956,635.749023 482.048981,635.106934 
	C485.494385,634.422424 487.852814,632.480652 487.937164,628.737549 
	C488.019928,625.066284 485.748444,623.418396 482.536163,621.908447 
	C470.809143,616.395569 458.052673,617.780762 445.782013,616.214355 
	C438.975006,615.345459 431.886627,616.680420 424.342224,616.679871 
z"/>
<path fill="#FF7F8C" opacity="1.000000" stroke="none" 
	d="
M344.024811,567.326172 
	C333.188263,565.523865 322.795227,562.550415 314.363068,555.048767 
	C307.233093,548.705566 305.338287,540.387085 306.364990,531.283569 
	C307.824127,518.345764 314.291351,507.370850 321.167236,496.832703 
	C326.576630,488.542114 326.052521,480.341248 322.481415,472.226379 
	C318.973541,464.255127 314.433533,456.702148 309.876434,449.253143 
	C308.694641,447.321411 305.677307,446.572052 303.634705,445.097351 
	C293.764496,437.971436 283.939209,430.783356 273.819550,423.011902 
	C271.059052,420.237274 268.576996,418.068054 266.094940,415.898834 
	C255.790833,405.552216 246.551331,394.403442 239.147156,381.730591 
	C232.205139,369.848724 227.753540,357.072998 225.082672,343.709839 
	C222.234528,329.459808 223.118896,315.154572 225.920609,300.941528 
	C226.173599,299.658173 225.977341,298.286224 226.245193,296.271423 
	C227.316483,287.029419 228.132294,278.471405 228.826447,269.554657 
	C225.196014,262.360382 223.052444,254.163391 217.885101,248.981888 
	C208.097198,239.167175 195.511276,232.775986 182.078598,229.099182 
	C165.395203,224.532608 148.444489,220.947556 131.628723,216.858414 
	C112.114067,212.112976 92.368950,209.085968 72.253876,210.106155 
	C61.834377,210.634628 51.589012,212.988419 42.856483,219.094269 
	C31.059315,227.342941 25.130844,238.668121 25.927475,253.389297 
	C26.375622,261.670746 30.231836,268.332703 35.181507,274.360992 
	C43.071930,283.970917 53.817516,289.070343 66.007637,288.758301 
	C79.146706,288.421906 90.349541,282.261475 99.597069,272.872314 
	C102.741066,269.680145 106.289192,267.658875 110.951050,268.232788 
	C111.985291,269.378418 112.960617,270.201080 113.952728,271.438538 
	C113.696487,273.798279 114.010658,276.132050 113.032112,277.609833 
	C110.774010,281.019989 107.652122,283.854919 105.359329,287.246765 
	C104.243546,288.897369 103.253441,291.737183 103.959541,293.181732 
	C104.575241,294.441315 107.695328,295.097595 109.631271,294.956390 
	C113.213387,294.695221 116.713730,293.263184 120.293762,293.035156 
	C125.379478,292.711182 128.855789,295.707703 128.986298,299.781525 
	C129.117569,303.879364 125.753822,306.841309 120.586990,307.001556 
	C117.435867,307.099304 114.261604,306.786133 111.131279,307.052216 
	C109.894020,307.157379 108.050499,308.119171 107.753990,309.082214 
	C107.450394,310.068237 108.367027,312.066284 109.342186,312.680603 
	C111.545540,314.068604 114.043686,315.106476 116.548248,315.875122 
	C122.604294,317.733673 125.843330,321.796906 124.671577,326.462341 
	C123.226143,332.217438 119.797409,334.124847 112.787506,332.691132 
	C110.391945,331.242371 108.326088,329.699402 106.005165,328.984406 
	C104.372803,328.481537 102.393417,329.105194 100.568985,329.225800 
	C100.887360,330.890808 100.817558,332.779480 101.617142,334.167236 
	C102.753242,336.138977 104.483215,337.783752 106.039497,339.495453 
	C111.108459,345.070648 114.709587,344.969330 108.808372,355.050659 
	C103.058174,356.442780 98.478516,354.656708 94.648560,350.203583 
	C90.989418,345.949066 86.971397,342.003754 83.298058,337.760742 
	C71.744576,324.415497 56.341682,316.093353 42.288326,305.989502 
	C33.825375,299.904938 24.932178,294.108734 17.628899,286.789459 
	C4.651787,273.783813 1.104341,257.480591 3.773860,239.374924 
	C5.827816,225.444229 11.675290,213.895767 21.486576,203.852493 
	C31.396023,193.708725 43.528156,187.786804 57.085739,186.276627 
	C73.466797,184.451920 90.071663,184.286850 106.586243,184.139420 
	C116.763969,184.048569 127.004135,184.901123 137.128708,186.081238 
	C163.691254,189.177353 188.183350,182.150101 211.679153,170.936340 
	C229.508331,162.427078 246.898849,152.995422 264.448029,143.903687 
	C284.248657,133.645523 304.994751,126.043129 326.953247,122.072319 
	C336.728943,120.304558 346.621002,119.052391 356.511017,118.085602 
	C364.394684,117.314926 372.352448,117.184341 380.282379,117.028130 
	C401.207062,116.615959 421.669983,119.923706 441.775757,125.414787 
	C462.189606,130.990005 481.017822,140.121170 499.428009,150.554443 
	C520.524719,162.510254 541.652100,174.552765 565.349731,181.219650 
	C579.530762,185.209244 593.796631,187.430283 608.429199,186.939270 
	C631.716797,186.157837 654.988953,184.323578 678.272888,184.228485 
	C694.658630,184.161545 710.764404,187.783554 724.100281,198.136841 
	C737.138306,208.258881 745.635864,221.387619 748.131531,238.247971 
	C750.062805,251.296036 748.921631,263.623779 742.896484,275.381439 
	C737.654358,285.610992 729.134949,292.684601 719.863525,299.032257 
	C706.601379,308.112091 692.844482,316.584839 680.335754,326.610504 
	C671.351990,333.810913 664.026367,343.091095 656.035522,351.514130 
	C652.594788,355.140961 648.539490,356.145081 643.354614,354.576599 
	C638.742737,348.034760 638.967834,346.633484 644.421204,340.998230 
	C646.839294,338.499390 649.169556,335.866394 651.152710,333.024200 
	C651.794922,332.103790 651.655945,330.041931 651.025024,329.033569 
	C650.584900,328.330017 648.511841,328.040619 647.496765,328.427795 
	C645.215271,329.297974 643.138306,330.704376 640.612183,331.971344 
	C636.241089,333.795013 632.369568,335.000183 629.239441,330.422943 
	C625.140076,324.428436 627.449158,318.114166 634.508301,316.045074 
	C637.179626,315.262085 639.941467,314.526489 642.340332,313.191193 
	C643.455933,312.570160 644.553223,310.385345 644.274536,309.248718 
	C644.027710,308.241821 641.912842,307.197510 640.535706,307.063385 
	C637.406982,306.758789 634.223511,307.070831 631.064636,307.009491 
	C626.348206,306.917847 623.034302,303.997864 623.013245,300.042297 
	C622.992188,296.077972 626.352478,292.738861 630.961487,293.063141 
	C634.682312,293.324921 638.298889,294.889709 642.025879,295.319855 
	C643.899841,295.536102 646.694946,295.113647 647.645569,293.879822 
	C648.558167,292.695312 648.119019,289.871735 647.366638,288.169434 
	C646.609436,286.456329 644.799316,285.167267 643.336670,283.815613 
	C639.883850,280.624878 637.599731,276.937439 638.106445,271.737305 
	C639.561768,270.266602 640.833801,269.089447 642.492371,267.948883 
	C648.051819,268.012177 650.903503,271.820526 654.381409,274.800629 
	C667.806519,286.304230 682.635620,292.663147 700.445862,285.962311 
	C713.953430,280.880341 725.019165,267.775269 725.899170,254.128296 
	C727.206604,233.853210 713.455200,217.899597 694.573120,212.043915 
	C677.407532,206.720566 660.211182,209.145996 643.110291,212.469177 
	C627.674927,215.468719 612.299316,218.778839 596.910889,222.016052 
	C581.841248,225.186188 566.892883,228.890167 553.149048,236.057266 
	C544.679565,240.473892 535.844238,244.903488 530.514771,253.228378 
	C527.266541,258.302338 525.488770,264.317688 523.019775,270.336060 
	C522.169922,279.420746 522.519531,287.935822 526.099670,296.053558 
	C527.043945,305.974609 528.512207,315.882538 528.760681,325.820984 
	C528.947510,333.293457 528.205933,340.930206 526.763977,348.275177 
	C522.884094,368.038879 513.766296,385.594696 501.161804,401.035828 
	C493.699310,410.177704 484.520599,417.918671 475.617188,426.618896 
	C473.349182,428.488861 471.577606,430.029480 469.806000,431.570099 
	C461.509216,436.899445 453.016815,441.956329 445.017609,447.700073 
	C442.060425,449.823486 439.886688,453.346008 438.010132,456.607025 
	C432.947693,465.404358 427.050598,473.870605 426.926239,484.726105 
	C426.853729,491.055359 430.189789,495.772919 433.230621,500.718262 
	C438.399231,509.124084 443.549255,517.395325 445.274994,527.494019 
	C448.374634,545.632812 441.250946,556.568542 425.997803,562.883545 
	C422.165070,564.470459 417.893921,564.998474 413.010498,565.940674 
	C409.791260,566.280579 407.385773,566.692871 404.556091,567.072144 
	C397.014160,567.692749 389.907593,568.681091 382.775970,568.919312 
	C372.859802,569.250549 362.924866,569.019592 352.747742,568.731567 
	C349.673279,568.064575 346.849060,567.695374 344.024811,567.326172 
M459.310883,368.042114 
	C476.744385,359.697845 479.812653,341.283813 472.089966,328.228973 
	C464.484528,315.372437 449.888916,309.921631 436.032288,314.913574 
	C421.660492,320.091125 413.384552,334.071136 415.981628,348.751862 
	C417.614075,357.979431 423.398804,364.058014 430.847168,369.415039 
	C430.013916,370.209412 429.254852,371.104279 428.336029,371.782715 
	C418.887817,378.759277 418.205933,390.334229 427.253479,398.015594 
	C437.012909,406.301331 448.270538,408.135742 460.374634,403.995850 
	C473.851898,399.386292 477.094421,385.760193 467.120789,375.621735 
	C464.600708,373.059967 461.665344,370.906677 459.310883,368.042114 
M294.894989,369.699432 
	C293.730225,370.580292 292.594421,371.502838 291.396210,372.335602 
	C279.960022,380.283630 278.958557,394.439331 289.340973,401.553925 
	C299.566223,408.560852 318.010315,407.072968 327.066162,398.510681 
	C337.892181,388.274689 336.449738,377.018433 323.420197,369.929077 
	C322.864960,369.626984 322.422729,369.117096 322.373047,368.208405 
	C328.174805,365.355194 332.971954,361.423920 336.102722,355.634674 
	C342.240479,344.285095 339.933441,331.300720 329.994781,321.517029 
	C320.149536,311.825287 306.855255,310.281006 294.228912,317.362366 
	C282.524353,323.926758 276.606323,337.320160 279.462799,349.972748 
	C281.503174,359.010498 287.574799,364.509552 294.894989,369.699432 
M336.995728,506.526855 
	C335.208252,510.265869 332.952240,513.857422 331.720581,517.771362 
	C327.923187,529.838562 332.314209,538.870178 344.321716,542.876404 
	C365.325867,549.884338 386.650543,548.472961 407.617950,543.065125 
	C420.436401,539.759094 425.469818,526.911072 419.836121,514.810913 
	C417.808807,510.456543 415.315308,506.289948 412.731598,502.230499 
	C408.272339,495.224243 406.398987,488.127380 410.035645,480.078705 
	C413.360352,472.720490 416.247314,465.164490 419.332611,457.682556 
	C419.248779,457.625397 419.098419,457.437134 418.975830,457.453735 
	C418.328400,457.541504 417.672821,457.628632 417.047363,457.809967 
	C402.769836,461.949707 390.635925,458.487091 380.316162,447.822876 
	C376.587585,443.969879 374.104553,444.106293 370.200531,448.336761 
	C360.733612,458.595276 348.873962,460.291412 335.902069,458.507324 
	C334.404236,458.301331 332.877869,458.303009 330.188019,458.134827 
	C333.212616,464.240204 335.203796,469.582214 338.279083,474.202698 
	C345.564514,485.148804 345.466766,495.564606 336.995728,506.526855 
M314.812225,147.278717 
	C311.822174,147.178421 308.792542,146.719025 305.849365,147.043640 
	C296.153748,148.112976 287.816376,151.826813 282.734467,160.684448 
	C278.359283,168.310318 280.709930,175.032196 288.731537,178.662918 
	C300.971710,184.203033 319.825012,180.067154 328.739319,169.886322 
	C333.009308,165.009674 333.465973,159.513748 328.678436,155.233978 
	C324.981384,151.929047 320.031189,150.025909 314.812225,147.278717 
M268.338074,172.917923 
	C262.087708,169.525925 255.384979,170.122391 249.820801,174.565811 
	C242.697342,180.254425 241.865173,188.870071 247.916992,194.275925 
	C253.243454,199.033844 263.631592,198.554901 268.888123,193.309052 
	C274.599762,187.609039 274.622864,179.543671 268.338074,172.917923 
M362.084320,380.399750 
	C372.974152,392.928833 392.767395,388.739777 398.088257,371.105591 
	C398.558960,369.545624 396.798340,367.312347 396.074097,365.391785 
	C394.008881,366.211884 391.883972,366.915741 389.916351,367.925995 
	C389.356171,368.213562 389.277252,369.402771 388.937073,370.160339 
	C386.797913,374.924530 383.309509,378.089447 377.964661,378.367035 
	C372.745941,378.638123 369.234192,375.697632 366.790802,371.335632 
	C366.061584,370.033844 365.807220,368.116913 364.731659,367.437836 
	C362.997589,366.342987 360.389893,365.095215 358.855621,365.699738 
	C357.596710,366.195740 356.394257,369.590179 356.880402,371.173920 
	C357.827606,374.260071 359.974823,376.977875 362.084320,380.399750 
z"/>
<path fill="#FF9DB2" opacity="1.000000" stroke="none" 
	d="
M640.978088,331.892456 
	C643.138306,330.704376 645.215271,329.297974 647.496765,328.427795 
	C648.511841,328.040619 650.584900,328.330017 651.025024,329.033569 
	C651.655945,330.041931 651.794922,332.103790 651.152710,333.024200 
	C649.169556,335.866394 646.839294,338.499390 644.421204,340.998230 
	C638.967834,346.633484 638.742737,348.034760 642.969116,354.504089 
	C627.881165,365.093445 612.533508,357.606934 606.510498,349.224731 
	C594.445618,361.225403 579.582703,362.171051 567.432739,351.994019 
	C557.658997,343.807465 556.024902,331.106812 560.935669,323.860535 
	C557.752563,318.865967 554.879822,314.358398 551.981567,309.053040 
	C549.743469,301.498108 551.450134,295.146790 554.085571,288.567505 
	C557.573059,285.489990 560.937378,282.723816 564.768677,279.573700 
	C564.118652,258.127899 572.294250,253.357162 583.303650,250.297684 
	C588.921387,248.736526 598.107605,252.554428 601.492126,257.743652 
	C609.750732,249.842865 620.367249,249.503143 629.135498,255.830368 
	C633.889587,259.260956 637.809631,263.847290 642.105835,267.912292 
	C640.833801,269.089447 639.561768,270.266602 637.772217,271.683044 
	C636.435852,271.377899 635.524475,270.933319 634.812195,270.273834 
	C625.280151,261.448090 620.602539,260.924957 608.883301,266.417053 
	C605.573608,267.968079 601.528564,269.052216 597.994812,268.683258 
	C595.023132,268.373016 592.256470,265.716614 589.483521,263.965149 
	C583.753906,260.346069 579.911804,261.785980 577.747009,268.263489 
	C576.346680,272.453705 577.227173,275.989746 579.841797,279.435089 
	C583.401611,284.125885 582.390625,287.077606 576.750427,289.203766 
	C575.817017,289.555573 574.819763,289.761078 573.924072,290.186035 
	C569.704163,292.187927 569.209229,296.340057 573.346130,298.352448 
	C575.233215,299.270447 578.807129,298.956879 580.424072,297.685760 
	C583.046143,295.624512 585.073059,292.518951 586.671143,289.494873 
	C592.017029,279.378967 601.156006,275.959503 611.371948,280.799805 
	C612.810974,281.481598 614.786865,283.212433 614.730896,284.371521 
	C614.640015,286.251007 613.443665,288.457336 612.021484,289.782288 
	C610.673340,291.038361 608.475525,291.476746 606.580139,292.031342 
	C602.763000,293.148224 598.858887,293.975861 595.063721,295.157562 
	C591.888489,296.146179 588.869324,298.060730 589.634949,301.766052 
	C590.351318,305.232727 593.035034,307.243195 597.051147,307.061462 
	C600.013916,306.927368 603.057983,307.039246 605.964722,307.582428 
	C610.336304,308.399323 612.681885,311.175110 611.943848,315.806213 
	C611.249451,320.163849 608.167603,321.354309 604.244141,320.972565 
	C602.635437,320.816010 600.952820,320.567078 599.487305,319.934845 
	C591.951599,316.683899 584.573975,316.951080 578.487915,322.479248 
	C572.354370,328.050568 570.272400,334.849396 574.139954,342.138031 
	C577.003845,347.534943 585.170532,349.767517 591.799622,346.350067 
	C595.092529,344.652466 598.172485,341.594177 600.107178,338.399536 
	C604.639587,330.915222 606.732483,330.357819 612.862793,336.313965 
	C615.118408,338.505554 617.458740,340.678955 620.042786,342.448181 
	C624.448730,345.464752 629.501770,346.166534 634.182190,343.626984 
	C638.548828,341.257599 641.741760,337.551666 640.978088,331.892456 
z"/>
<path fill="#FF9DB2" opacity="1.000000" stroke="none" 
	d="
M108.978607,355.393402 
	C114.709587,344.969330 111.108459,345.070648 106.039497,339.495453 
	C104.483215,337.783752 102.753242,336.138977 101.617142,334.167236 
	C100.817558,332.779480 100.887360,330.890808 100.568985,329.225800 
	C102.393417,329.105194 104.372803,328.481537 106.005165,328.984406 
	C108.326088,329.699402 110.391945,331.242371 112.784668,333.102539 
	C113.560646,343.015350 119.302994,347.335968 127.774132,344.018280 
	C131.927811,342.391510 135.710037,339.330322 139.071243,336.271027 
	C145.370590,330.537506 147.265701,330.593872 151.097855,338.320526 
	C153.983826,344.139435 158.938019,346.873932 164.881210,347.878204 
	C172.334198,349.137512 179.012192,343.043640 179.000153,335.458099 
	C178.982086,324.068817 168.433319,315.854523 157.155548,318.448853 
	C153.468216,319.297058 149.819351,320.500153 146.084244,320.900665 
	C142.282700,321.308319 139.613052,319.216339 139.115341,315.303497 
	C138.655533,311.688507 140.428558,308.960938 143.982498,308.224945 
	C147.680557,307.459106 151.632050,307.803345 155.259552,306.850586 
	C157.651810,306.222229 160.567169,304.641541 161.645050,302.628723 
	C163.350113,299.444641 160.967941,296.823181 157.916260,295.689270 
	C154.047852,294.251923 150.000687,293.283905 146.008453,292.194672 
	C141.648453,291.005066 136.180389,289.977173 136.347977,284.604095 
	C136.532211,278.696838 142.787186,279.561890 146.847412,278.298737 
	C147.555237,278.078552 148.452591,278.519257 149.268036,278.585236 
	C157.585785,279.258179 162.827774,283.742981 166.285080,291.239349 
	C167.723648,294.358582 170.374878,297.226837 173.142822,299.329803 
	C175.475449,301.101990 180.130341,298.718628 180.783661,295.915802 
	C181.496078,292.859406 180.295837,290.920685 177.090897,289.967865 
	C168.785172,287.498627 168.322952,286.152588 172.641586,278.586578 
	C175.362656,273.819397 174.614883,266.147156 170.773056,263.399780 
	C165.838684,259.871094 162.522400,263.807922 159.003662,266.464661 
	C157.948990,267.260986 156.817123,267.960724 155.688599,268.652466 
	C152.451599,270.636658 149.382233,270.352570 146.468735,267.937744 
	C144.680908,266.455963 142.781097,265.100159 141.071274,263.535156 
	C136.212952,259.088257 131.286880,257.927917 125.672310,261.330292 
	C121.378799,263.932098 117.820999,267.747925 113.935944,271.023743 
	C112.960617,270.201080 111.985291,269.378418 110.995575,267.876160 
	C114.259697,263.688354 117.191643,259.751465 120.889450,256.761902 
	C128.397873,250.691605 139.627716,248.971024 147.499359,255.778870 
	C148.312622,256.482239 151.040359,256.256012 151.888229,255.435944 
	C160.080856,247.511993 172.628830,249.176300 179.862671,256.348145 
	C185.603592,262.039856 187.258774,269.076416 187.101410,276.883636 
	C187.067703,278.556000 187.805496,280.738495 188.980576,281.841522 
	C191.746109,284.437439 194.990143,286.523621 198.036224,289.216553 
	C200.651703,295.914398 201.436691,302.400879 200.041016,309.112091 
	C197.296173,313.666992 194.551346,318.221924 191.144287,323.875793 
	C193.110016,327.931122 194.244354,334.031128 192.170731,340.280487 
	C189.750870,347.573242 184.775040,352.477386 177.764420,355.754486 
	C164.694672,361.863800 151.487289,358.779480 145.339371,349.180573 
	C134.986206,360.794067 122.895523,362.941254 108.978607,355.393402 
z"/>
<path fill="#141414" opacity="1.000000" stroke="none" 
	d="
M424.925049,617.022034 
	C431.886627,616.680420 438.975006,615.345459 445.782013,616.214355 
	C458.052673,617.780762 470.809143,616.395569 482.536163,621.908447 
	C485.748444,623.418396 488.019928,625.066284 487.937164,628.737549 
	C487.852814,632.480652 485.494385,634.422424 482.048981,635.106934 
	C478.816956,635.749023 475.558716,636.577515 472.292480,636.675720 
	C455.032410,637.194763 437.750153,638.140442 420.506866,637.703552 
	C405.494324,637.323181 390.539001,634.593872 375.528351,634.262634 
	C366.046722,634.053406 356.502441,636.284607 346.999542,637.523193 
	C327.041229,640.124634 307.127441,641.545471 287.521362,635.281799 
	C281.011017,633.201904 279.212677,630.642273 280.107513,625.421021 
	C280.767700,621.569092 286.247009,618.189514 291.069824,617.969421 
	C295.439850,617.770142 299.776642,616.841309 304.127716,616.231628 
	C304.290985,616.208801 304.449219,616.132507 304.611786,616.125305 
	C312.729919,615.761719 320.846924,615.357971 328.968719,615.113037 
	C329.778473,615.088623 330.617523,616.033447 331.583374,617.106323 
	C327.425842,626.762512 331.015289,632.677002 341.034882,632.983643 
	C342.861420,633.039612 344.703217,633.080383 346.519257,632.918335 
	C358.827454,631.820618 361.914246,629.221863 362.412262,620.140198 
	C365.685669,620.733643 368.588287,621.179199 371.498352,621.569458 
	C375.008423,622.040039 378.540497,622.914734 382.034454,622.793213 
	C386.361450,622.642639 390.659119,621.649170 394.977417,621.437439 
	C394.209015,627.198181 396.967865,630.141968 401.839783,631.019409 
	C407.019257,631.952332 412.306519,632.906128 417.530029,632.821289 
	C424.353058,632.710510 428.914520,628.142334 427.797333,623.337402 
	C427.283875,621.129089 425.909210,619.120972 424.925049,617.022034 
z"/>
<path fill="#300000" opacity="1.000000" stroke="none" 
	d="
M265.825195,416.186615 
	C268.576996,418.068054 271.059052,420.237274 273.622437,422.718170 
	C243.244812,432.850006 214.833923,428.218842 188.047302,411.176636 
	C186.184860,409.991699 183.052399,409.724457 180.866241,410.325104 
	C173.731415,412.285492 168.257614,409.888489 163.221817,405.100494 
	C158.959641,401.048065 159.511642,395.904236 160.295731,391.096741 
	C161.397980,384.338531 169.652786,381.004333 177.235764,383.611237 
	C178.729858,384.124878 180.418228,384.646210 181.924698,384.451141 
	C188.200958,383.638367 191.262405,385.862671 191.960403,392.117157 
	C192.015579,392.611572 192.135956,393.169922 191.975739,393.606750 
	C188.087967,404.206787 196.620117,406.534698 203.088379,409.806305 
	C218.430008,417.565918 234.881012,420.121277 251.910385,418.913605 
	C256.493378,418.588623 261.008942,417.313446 265.825195,416.186615 
z"/>
<path fill="#300000" opacity="1.000000" stroke="none" 
	d="
M469.952393,431.907288 
	C471.577606,430.029480 473.349182,428.488861 475.454712,426.927094 
	C482.201447,433.300415 489.459351,439.061188 494.836731,446.232086 
	C503.787842,458.168823 509.277405,471.921600 511.426514,486.834137 
	C511.780121,489.287689 512.165833,491.761810 512.201599,494.231262 
	C512.311279,501.799530 514.591187,508.048309 519.959229,513.917175 
	C525.095459,519.532593 523.837219,528.525208 518.952148,533.533936 
	C515.624023,536.946289 511.644012,538.961609 506.840546,537.710632 
	C501.791656,536.395691 498.679016,532.859924 497.118774,527.887695 
	C496.653534,526.405212 496.220642,524.698669 495.204987,523.639343 
	C490.464111,518.694702 491.030884,512.744873 496.802490,509.119324 
	C497.223480,508.854858 497.690918,508.665283 498.131195,508.430389 
	C505.310455,504.600555 505.976898,502.836365 504.873108,495.041412 
	C502.819427,480.539032 498.566589,466.747528 490.157104,454.763763 
	C485.076019,447.523071 478.449951,441.365814 472.507202,434.731445 
	C471.737823,433.872528 470.903198,433.072021 469.952393,431.907288 
z"/>
<path fill="#300000" opacity="1.000000" stroke="none" 
	d="
M424.633636,616.850952 
	C425.909210,619.120972 427.283875,621.129089 427.797333,623.337402 
	C428.914520,628.142334 424.353058,632.710510 417.530029,632.821289 
	C412.306519,632.906128 407.019257,631.952332 401.839783,631.019409 
	C396.967865,630.141968 394.209015,627.198181 394.999878,621.025146 
	C396.353516,612.877625 397.662872,605.554321 399.038971,598.243652 
	C400.993683,587.859314 402.997467,577.484192 404.980286,567.105225 
	C407.385773,566.692871 409.791260,566.280579 412.596466,565.984253 
	C410.353455,581.753296 407.710663,597.406311 404.997528,613.475891 
	C412.457886,610.950989 418.903534,611.147522 424.633636,616.850952 
z"/>
<path fill="#300000" opacity="1.000000" stroke="none" 
	d="
M362.044769,619.967773 
	C361.914246,629.221863 358.827454,631.820618 346.519257,632.918335 
	C344.703217,633.080383 342.861420,633.039612 341.034882,632.983643 
	C331.015289,632.677002 327.425842,626.762512 331.896851,617.342590 
	C337.475830,611.653259 343.940277,610.877380 352.248474,613.281860 
	C349.521973,597.637756 346.940369,582.825012 344.191772,567.669189 
	C346.849060,567.695374 349.673279,568.064575 352.748474,569.149231 
	C353.513794,572.950012 353.987946,576.042725 354.549347,579.119446 
	C357.034119,592.738037 359.543976,606.352112 362.044769,619.967773 
z"/>
<path fill="#FFB0BB" opacity="1.000000" stroke="none" 
	d="
M553.962341,288.878906 
	C551.450134,295.146790 549.743469,301.498108 551.957031,308.680420 
	C543.560120,304.819122 535.162048,300.532654 526.431885,296.149872 
	C522.519531,287.935822 522.169922,279.420746 523.332886,270.458557 
	C531.928406,279.378357 541.718994,286.112274 553.962341,288.878906 
z"/>
<path fill="#FFB0BB" opacity="1.000000" stroke="none" 
	d="
M200.378082,308.964142 
	C201.436691,302.400879 200.651703,295.914398 198.414246,289.294495 
	C210.692734,285.538971 220.451630,278.724792 228.948105,269.913391 
	C228.132294,278.471405 227.316483,287.029419 226.208618,295.838806 
	C217.516098,300.332184 209.115616,304.574188 200.378082,308.964142 
z"/>
<path fill="#000000" opacity="1.000000" stroke="none" 
	d="
M228.826447,269.554657 
	C220.451630,278.724792 210.692734,285.538971 198.418594,288.893982 
	C194.990143,286.523621 191.746109,284.437439 188.980576,281.841522 
	C187.805496,280.738495 187.067703,278.556000 187.101410,276.883636 
	C187.258774,269.076416 185.603592,262.039856 179.862671,256.348145 
	C172.628830,249.176300 160.080856,247.511993 151.888229,255.435944 
	C151.040359,256.256012 148.312622,256.482239 147.499359,255.778870 
	C139.627716,248.971024 128.397873,250.691605 120.889450,256.761902 
	C117.191643,259.751465 114.259697,263.688354 110.936661,267.553192 
	C106.289192,267.658875 102.741066,269.680145 99.597069,272.872314 
	C90.349541,282.261475 79.146706,288.421906 66.007637,288.758301 
	C53.817516,289.070343 43.071930,283.970917 35.181507,274.360992 
	C30.231836,268.332703 26.375622,261.670746 25.927475,253.389297 
	C25.130844,238.668121 31.059315,227.342941 42.856483,219.094269 
	C51.589012,212.988419 61.834377,210.634628 72.253876,210.106155 
	C92.368950,209.085968 112.114067,212.112976 131.628723,216.858414 
	C148.444489,220.947556 165.395203,224.532608 182.078598,229.099182 
	C195.511276,232.775986 208.097198,239.167175 217.885101,248.981888 
	C223.052444,254.163391 225.196014,262.360382 228.826447,269.554657 
z"/>
<path fill="#000000" opacity="1.000000" stroke="none" 
	d="
M554.085571,288.567505 
	C541.718994,286.112274 531.928406,279.378357 523.363647,270.032715 
	C525.488770,264.317688 527.266541,258.302338 530.514771,253.228378 
	C535.844238,244.903488 544.679565,240.473892 553.149048,236.057266 
	C566.892883,228.890167 581.841248,225.186188 596.910889,222.016052 
	C612.299316,218.778839 627.674927,215.468719 643.110291,212.469177 
	C660.211182,209.145996 677.407532,206.720566 694.573120,212.043915 
	C713.455200,217.899597 727.206604,233.853210 725.899170,254.128296 
	C725.019165,267.775269 713.953430,280.880341 700.445862,285.962311 
	C682.635620,292.663147 667.806519,286.304230 654.381409,274.800629 
	C650.903503,271.820526 648.051819,268.012177 642.492371,267.948914 
	C637.809631,263.847290 633.889587,259.260956 629.135498,255.830368 
	C620.367249,249.503143 609.750732,249.842865 601.492126,257.743652 
	C598.107605,252.554428 588.921387,248.736526 583.303650,250.297684 
	C572.294250,253.357162 564.118652,258.127899 564.768677,279.573700 
	C560.937378,282.723816 557.573059,285.489990 554.085571,288.567505 
z"/>
<path fill="#F9445F" opacity="1.000000" stroke="none" 
	d="
M337.211548,506.230896 
	C345.466766,495.564606 345.564514,485.148804 338.279083,474.202698 
	C335.203796,469.582214 333.212616,464.240204 330.188019,458.134827 
	C332.877869,458.303009 334.404236,458.301331 335.902069,458.507324 
	C348.873962,460.291412 360.733612,458.595276 370.200531,448.336761 
	C374.104553,444.106293 376.587585,443.969879 380.316162,447.822876 
	C390.635925,458.487091 402.769836,461.949707 417.047363,457.809967 
	C417.672821,457.628632 418.328400,457.541504 418.975830,457.453735 
	C419.098419,457.437134 419.248779,457.625397 419.332611,457.682556 
	C416.247314,465.164490 413.360352,472.720490 410.035645,480.078705 
	C406.398987,488.127380 408.272339,495.224243 412.731598,502.230499 
	C415.315308,506.289948 417.808807,510.456543 419.836121,514.810913 
	C425.469818,526.911072 420.436401,539.759094 407.617950,543.065125 
	C386.650543,548.472961 365.325867,549.884338 344.321716,542.876404 
	C332.314209,538.870178 327.923187,529.838562 331.720581,517.771362 
	C332.952240,513.857422 335.208252,510.265869 337.211548,506.230896 
M345.863861,527.879211 
	C365.986237,535.965515 386.143921,533.708862 406.271179,527.957520 
	C407.357697,527.647095 408.115936,526.187744 409.917999,524.359070 
	C407.677124,524.359070 407.014771,524.223022 406.430084,524.378784 
	C386.633911,529.651855 366.863434,532.363403 346.965759,524.654785 
	C344.617157,523.744812 343.358093,525.049683 345.863861,527.879211 
M378.345093,515.940796 
	C396.843384,514.170349 402.209351,512.670715 403.886658,508.125641 
	C402.170837,508.355286 400.784149,508.387909 399.483063,508.738373 
	C383.909088,512.933228 368.405182,513.635864 352.923828,508.206696 
	C351.625458,507.751404 349.975769,508.297852 348.489319,508.378876 
	C349.651825,509.526459 350.667114,511.440643 352.000824,511.696777 
	C360.434998,513.316589 368.939697,514.569153 378.345093,515.940796 
M355.666260,469.944092 
	C353.361542,469.298309 351.056854,468.652527 348.752167,468.006775 
	C348.527313,468.618958 348.302460,469.231171 348.077606,469.843384 
	C352.533295,474.364319 359.057526,474.898346 364.823517,475.506744 
	C377.414337,476.835236 390.094299,476.863098 401.630188,470.134369 
	C394.180847,470.366364 386.894073,472.533630 379.568115,472.675262 
	C371.889221,472.823792 364.172760,471.028564 355.666260,469.944092 
M379.849579,496.047729 
	C389.600677,495.891449 394.789734,494.171051 396.878265,489.268890 
	C382.690430,494.387634 369.002747,493.505432 354.543243,489.715302 
	C357.347900,494.997070 369.603119,497.557404 379.849579,496.047729 
z"/>
<path fill="#FFB0BB" opacity="1.000000" stroke="none" 
	d="
M113.952728,271.438538 
	C117.820999,267.747925 121.378799,263.932098 125.672310,261.330292 
	C131.286880,257.927917 136.212952,259.088257 141.071274,263.535156 
	C142.781097,265.100159 144.680908,266.455963 146.468735,267.937744 
	C149.382233,270.352570 152.451599,270.636658 155.688599,268.652466 
	C156.817123,267.960724 157.948990,267.260986 159.003662,266.464661 
	C162.522400,263.807922 165.838684,259.871094 170.773056,263.399780 
	C174.614883,266.147156 175.362656,273.819397 172.641586,278.586578 
	C168.322952,286.152588 168.785172,287.498627 177.090897,289.967865 
	C180.295837,290.920685 181.496078,292.859406 180.783661,295.915802 
	C180.130341,298.718628 175.475449,301.101990 173.142822,299.329803 
	C170.374878,297.226837 167.723648,294.358582 166.285080,291.239349 
	C162.827774,283.742981 157.585785,279.258179 149.268036,278.585236 
	C148.452591,278.519257 147.555237,278.078552 146.847412,278.298737 
	C142.787186,279.561890 136.532211,278.696838 136.347977,284.604095 
	C136.180389,289.977173 141.648453,291.005066 146.008453,292.194672 
	C150.000687,293.283905 154.047852,294.251923 157.916260,295.689270 
	C160.967941,296.823181 163.350113,299.444641 161.645050,302.628723 
	C160.567169,304.641541 157.651810,306.222229 155.259552,306.850586 
	C151.632050,307.803345 147.680557,307.459106 143.982498,308.224945 
	C140.428558,308.960938 138.655533,311.688507 139.115341,315.303497 
	C139.613052,319.216339 142.282700,321.308319 146.084244,320.900665 
	C149.819351,320.500153 153.468216,319.297058 157.155548,318.448853 
	C168.433319,315.854523 178.982086,324.068817 179.000153,335.458099 
	C179.012192,343.043640 172.334198,349.137512 164.881210,347.878204 
	C158.938019,346.873932 153.983826,344.139435 151.097855,338.320526 
	C147.265701,330.593872 145.370590,330.537506 139.071243,336.271027 
	C135.710037,339.330322 131.927811,342.391510 127.774132,344.018280 
	C119.302994,347.335968 113.560646,343.015350 113.005402,333.362091 
	C119.797409,334.124847 123.226143,332.217438 124.671577,326.462341 
	C125.843330,321.796906 122.604294,317.733673 116.548248,315.875122 
	C114.043686,315.106476 111.545540,314.068604 109.342186,312.680603 
	C108.367027,312.066284 107.450394,310.068237 107.753990,309.082214 
	C108.050499,308.119171 109.894020,307.157379 111.131279,307.052216 
	C114.261604,306.786133 117.435867,307.099304 120.586990,307.001556 
	C125.753822,306.841309 129.117569,303.879364 128.986298,299.781525 
	C128.855789,295.707703 125.379478,292.711182 120.293762,293.035156 
	C116.713730,293.263184 113.213387,294.695221 109.631271,294.956390 
	C107.695328,295.097595 104.575241,294.441315 103.959541,293.181732 
	C103.253441,291.737183 104.243546,288.897369 105.359329,287.246765 
	C107.652122,283.854919 110.774010,281.019989 113.032112,277.609833 
	C114.010658,276.132050 113.696487,273.798279 113.952728,271.438538 
z"/>
<path fill="#FFB0BB" opacity="1.000000" stroke="none" 
	d="
M640.612183,331.971344 
	C641.741760,337.551666 638.548828,341.257599 634.182190,343.626984 
	C629.501770,346.166534 624.448730,345.464752 620.042786,342.448181 
	C617.458740,340.678955 615.118408,338.505554 612.862793,336.313965 
	C606.732483,330.357819 604.639587,330.915222 600.107178,338.399536 
	C598.172485,341.594177 595.092529,344.652466 591.799622,346.350067 
	C585.170532,349.767517 577.003845,347.534943 574.139954,342.138031 
	C570.272400,334.849396 572.354370,328.050568 578.487915,322.479248 
	C584.573975,316.951080 591.951599,316.683899 599.487305,319.934845 
	C600.952820,320.567078 602.635437,320.816010 604.244141,320.972565 
	C608.167603,321.354309 611.249451,320.163849 611.943848,315.806213 
	C612.681885,311.175110 610.336304,308.399323 605.964722,307.582428 
	C603.057983,307.039246 600.013916,306.927368 597.051147,307.061462 
	C593.035034,307.243195 590.351318,305.232727 589.634949,301.766052 
	C588.869324,298.060730 591.888489,296.146179 595.063721,295.157562 
	C598.858887,293.975861 602.763000,293.148224 606.580139,292.031342 
	C608.475525,291.476746 610.673340,291.038361 612.021484,289.782288 
	C613.443665,288.457336 614.640015,286.251007 614.730896,284.371521 
	C614.786865,283.212433 612.810974,281.481598 611.371948,280.799805 
	C601.156006,275.959503 592.017029,279.378967 586.671143,289.494873 
	C585.073059,292.518951 583.046143,295.624512 580.424072,297.685760 
	C578.807129,298.956879 575.233215,299.270447 573.346130,298.352448 
	C569.209229,296.340057 569.704163,292.187927 573.924072,290.186035 
	C574.819763,289.761078 575.817017,289.555573 576.750427,289.203766 
	C582.390625,287.077606 583.401611,284.125885 579.841797,279.435089 
	C577.227173,275.989746 576.346680,272.453705 577.747009,268.263489 
	C579.911804,261.785980 583.753906,260.346069 589.483521,263.965149 
	C592.256470,265.716614 595.023132,268.373016 597.994812,268.683258 
	C601.528564,269.052216 605.573608,267.968079 608.883301,266.417053 
	C620.602539,260.924957 625.280151,261.448090 634.812195,270.273834 
	C635.524475,270.933319 636.435852,271.377899 637.588867,271.976624 
	C637.599731,276.937439 639.883850,280.624878 643.336670,283.815613 
	C644.799316,285.167267 646.609436,286.456329 647.366638,288.169434 
	C648.119019,289.871735 648.558167,292.695312 647.645569,293.879822 
	C646.694946,295.113647 643.899841,295.536102 642.025879,295.319855 
	C638.298889,294.889709 634.682312,293.324921 630.961487,293.063141 
	C626.352478,292.738861 622.992188,296.077972 623.013245,300.042297 
	C623.034302,303.997864 626.348206,306.917847 631.064636,307.009491 
	C634.223511,307.070831 637.406982,306.758789 640.535706,307.063385 
	C641.912842,307.197510 644.027710,308.241821 644.274536,309.248718 
	C644.553223,310.385345 643.455933,312.570160 642.340332,313.191193 
	C639.941467,314.526489 637.179626,315.262085 634.508301,316.045074 
	C627.449158,318.114166 625.140076,324.428436 629.239441,330.422943 
	C632.369568,335.000183 636.241089,333.795013 640.612183,331.971344 
z"/>
<path fill="#000000" opacity="1.000000" stroke="none" 
	d="
M362.412262,620.140198 
	C359.543976,606.352112 357.034119,592.738037 354.549347,579.119446 
	C353.987946,576.042725 353.513794,572.950012 352.998718,569.447021 
	C362.924866,569.019592 372.859802,569.250549 382.775970,568.919312 
	C389.907593,568.681091 397.014160,567.692749 404.556091,567.072083 
	C402.997467,577.484192 400.993683,587.859314 399.038971,598.243652 
	C397.662872,605.554321 396.353516,612.877625 394.991882,620.607544 
	C390.659119,621.649170 386.361450,622.642639 382.034454,622.793213 
	C378.540497,622.914734 375.008423,622.040039 371.498352,621.569458 
	C368.588287,621.179199 365.685669,620.733643 362.412262,620.140198 
z"/>
<path fill="#FCF9F9" opacity="1.000000" stroke="none" 
	d="
M294.999359,369.027252 
	C287.574799,364.509552 281.503174,359.010498 279.462799,349.972748 
	C276.606323,337.320160 282.524353,323.926758 294.228912,317.362366 
	C306.855255,310.281006 320.149536,311.825287 329.994781,321.517029 
	C339.933441,331.300720 342.240479,344.285095 336.102722,355.634674 
	C332.971954,361.423920 328.174805,365.355194 321.749146,368.482971 
	C312.388153,366.090973 303.695007,367.679047 294.999359,369.027252 
M308.829102,333.519470 
	C307.025391,341.846985 300.676758,344.590576 293.863800,340.069672 
	C292.854340,339.399811 291.517273,339.223541 290.331787,338.818909 
	C289.936218,340.159149 289.130157,341.524170 289.209229,342.835785 
	C289.917450,354.584686 299.476959,362.946381 310.895813,361.963013 
	C322.344940,360.977051 329.949829,351.731750 328.997742,339.956512 
	C328.138641,329.331085 317.475281,320.653290 306.567261,321.904602 
	C304.868622,322.099487 303.282654,323.276337 301.941467,323.868103 
	C304.572327,327.276184 306.687042,330.015656 308.829102,333.519470 
z"/>
<path fill="#FCF9FA" opacity="1.000000" stroke="none" 
	d="
M431.059631,368.727692 
	C423.398804,364.058014 417.614075,357.979431 415.981628,348.751862 
	C413.384552,334.071136 421.660492,320.091125 436.032288,314.913574 
	C449.888916,309.921631 464.484528,315.372437 472.089966,328.228973 
	C479.812653,341.283813 476.744385,359.697845 458.711792,368.392883 
	C451.374573,368.476715 444.638153,368.122925 437.897369,367.991333 
	C435.623779,367.946960 433.339203,368.466095 431.059631,368.727692 
M431.563507,355.908508 
	C431.788910,356.153107 431.996765,356.417023 432.242249,356.639435 
	C439.460083,363.179016 449.552490,363.933075 457.441681,358.526978 
	C464.779999,353.498383 467.791901,343.753601 464.692352,335.067902 
	C461.792542,326.941956 452.057129,320.831512 443.290497,321.921417 
	C441.708710,322.118073 440.275360,323.509155 438.773499,324.348785 
	C439.744171,325.330017 440.589447,326.494385 441.707611,327.260254 
	C446.111603,330.276917 446.760101,335.255066 443.143860,339.176392 
	C439.690643,342.920929 435.466614,343.181244 430.732941,340.177338 
	C429.602875,339.460205 428.081696,339.359406 426.740387,338.975128 
	C426.479370,340.208618 425.695801,341.622406 426.048309,342.644257 
	C427.535187,346.954376 429.360718,351.147644 431.563507,355.908508 
z"/>
<path fill="#F9445F" opacity="1.000000" stroke="none" 
	d="
M430.953400,369.071350 
	C433.339203,368.466095 435.623779,367.946960 437.897369,367.991333 
	C444.638153,368.122925 451.374573,368.476715 458.516785,368.654663 
	C461.665344,370.906677 464.600708,373.059967 467.120789,375.621735 
	C477.094421,385.760193 473.851898,399.386292 460.374634,403.995850 
	C448.270538,408.135742 437.012909,406.301331 427.253479,398.015594 
	C418.205933,390.334229 418.887817,378.759277 428.336029,371.782715 
	C429.254852,371.104279 430.013916,370.209412 430.953400,369.071350 
z"/>
<path fill="#F9445F" opacity="1.000000" stroke="none" 
	d="
M294.947174,369.363342 
	C303.695007,367.679047 312.388153,366.090973 321.526550,368.730774 
	C322.422729,369.117096 322.864960,369.626984 323.420197,369.929077 
	C336.449738,377.018433 337.892181,388.274689 327.066162,398.510681 
	C318.010315,407.072968 299.566223,408.560852 289.340973,401.553925 
	C278.958557,394.439331 279.960022,380.283630 291.396210,372.335602 
	C292.594421,371.502838 293.730225,370.580292 294.947174,369.363342 
z"/>
<path fill="#FFFDFD" opacity="1.000000" stroke="none" 
	d="
M315.225189,147.389130 
	C320.031189,150.025909 324.981384,151.929047 328.678436,155.233978 
	C333.465973,159.513748 333.009308,165.009674 328.739319,169.886322 
	C319.825012,180.067154 300.971710,184.203033 288.731537,178.662918 
	C280.709930,175.032196 278.359283,168.310318 282.734467,160.684448 
	C287.816376,151.826813 296.153748,148.112976 305.849365,147.043640 
	C308.792542,146.719025 311.822174,147.178421 315.225189,147.389130 
z"/>
<path fill="#FFFCFC" opacity="1.000000" stroke="none" 
	d="
M268.641602,173.159241 
	C274.622864,179.543671 274.599762,187.609039 268.888123,193.309052 
	C263.631592,198.554901 253.243454,199.033844 247.916992,194.275925 
	C241.865173,188.870071 242.697342,180.254425 249.820801,174.565811 
	C255.384979,170.122391 262.087708,169.525925 268.641602,173.159241 
z"/>
<path fill="#380506" opacity="1.000000" stroke="none" 
	d="
M361.854675,380.123993 
	C359.974823,376.977875 357.827606,374.260071 356.880402,371.173920 
	C356.394257,369.590179 357.596710,366.195740 358.855621,365.699738 
	C360.389893,365.095215 362.997589,366.342987 364.731659,367.437836 
	C365.807220,368.116913 366.061584,370.033844 366.790802,371.335632 
	C369.234192,375.697632 372.745941,378.638123 377.964661,378.367035 
	C383.309509,378.089447 386.797913,374.924530 388.937073,370.160339 
	C389.277252,369.402771 389.356171,368.213562 389.916351,367.925995 
	C391.883972,366.915741 394.008881,366.211884 396.074097,365.391785 
	C396.798340,367.312347 398.558960,369.545624 398.088257,371.105591 
	C392.767395,388.739777 372.974152,392.928833 361.854675,380.123993 
z"/>
<path fill="#FE7A88" opacity="1.000000" stroke="none" 
	d="
M345.553741,527.692993 
	C343.358093,525.049683 344.617157,523.744812 346.965759,524.654785 
	C366.863434,532.363403 386.633911,529.651855 406.430084,524.378784 
	C407.014771,524.223022 407.677124,524.359070 409.917999,524.359070 
	C408.115936,526.187744 407.357697,527.647095 406.271179,527.957520 
	C386.143921,533.708862 365.986237,535.965515 345.553741,527.692993 
z"/>
<path fill="#FE7887" opacity="1.000000" stroke="none" 
	d="
M377.883118,515.941895 
	C368.939697,514.569153 360.434998,513.316589 352.000824,511.696777 
	C350.667114,511.440643 349.651825,509.526459 348.489319,508.378906 
	C349.975769,508.297852 351.625458,507.751404 352.923828,508.206696 
	C368.405182,513.635864 383.909088,512.933228 399.483063,508.738373 
	C400.784149,508.387909 402.170837,508.355286 403.886658,508.125641 
	C402.209351,512.670715 396.843384,514.170349 377.883118,515.941895 
z"/>
<path fill="#FE7A88" opacity="1.000000" stroke="none" 
	d="
M356.069489,470.013489 
	C364.172760,471.028564 371.889221,472.823792 379.568115,472.675262 
	C386.894073,472.533630 394.180847,470.366364 401.630188,470.134369 
	C390.094299,476.863098 377.414337,476.835236 364.823517,475.506744 
	C359.057526,474.898346 352.533295,474.364319 348.077606,469.843384 
	C348.302460,469.231171 348.527313,468.618958 348.752167,468.006775 
	C351.056854,468.652527 353.361542,469.298309 356.069489,470.013489 
z"/>
<path fill="#FE7A88" opacity="1.000000" stroke="none" 
	d="
M379.413818,496.063538 
	C369.603119,497.557404 357.347900,494.997070 354.543243,489.715302 
	C369.002747,493.505432 382.690430,494.387634 396.878265,489.268890 
	C394.789734,494.171051 389.600677,495.891449 379.413818,496.063538 
z"/>
<path fill="#340505" opacity="1.000000" stroke="none" 
	d="
M308.815430,333.137299 
	C306.687042,330.015656 304.572327,327.276184 301.941467,323.868103 
	C303.282654,323.276337 304.868622,322.099487 306.567261,321.904602 
	C317.475281,320.653290 328.138641,329.331085 328.997742,339.956512 
	C329.949829,351.731750 322.344940,360.977051 310.895813,361.963013 
	C299.476959,362.946381 289.917450,354.584686 289.209229,342.835785 
	C289.130157,341.524170 289.936218,340.159149 290.331787,338.818909 
	C291.517273,339.223541 292.854340,339.399811 293.863800,340.069672 
	C300.676758,344.590576 307.025391,341.846985 308.815430,333.137299 
z"/>
<path fill="#340606" opacity="1.000000" stroke="none" 
	d="
M431.312958,355.646088 
	C429.360718,351.147644 427.535187,346.954376 426.048309,342.644257 
	C425.695801,341.622406 426.479370,340.208618 426.740387,338.975128 
	C428.081696,339.359406 429.602875,339.460205 430.732941,340.177338 
	C435.466614,343.181244 439.690643,342.920929 443.143860,339.176392 
	C446.760101,335.255066 446.111603,330.276917 441.707611,327.260254 
	C440.589447,326.494385 439.744171,325.330017 438.773499,324.348785 
	C440.275360,323.509155 441.708710,322.118073 443.290497,321.921417 
	C452.057129,320.831512 461.792542,326.941956 464.692352,335.067902 
	C467.791901,343.753601 464.779999,353.498383 457.441681,358.526978 
	C449.552490,363.933075 439.460083,363.179016 432.242249,356.639435 
	C431.996765,356.417023 431.788910,356.153107 431.312958,355.646088 
z"/>
</svg>