<svg xmlns="http://www.w3.org/2000/svg" xmlns:xlink="http://www.w3.org/1999/xlink" width="500" zoomAndPan="magnify" viewBox="0 0 375 374.999991" height="500" preserveAspectRatio="xMidYMid meet" version="1.0"><path fill="#300000" d="M 233.910156 214.960938 C 235.089844 215.8125 236.222656 216.722656 237.316406 217.691406 C 237.847656 218.167969 238.378906 218.65625 238.886719 219.15625 C 239.132812 219.398438 239.375 219.644531 239.621094 219.890625 C 239.734375 220.015625 239.851562 220.132812 239.980469 220.261719 C 240.117188 220.410156 239.9375 220.21875 239.917969 220.195312 C 240 220.292969 240.085938 220.378906 240.171875 220.460938 C 242.125 222.585938 243.863281 224.890625 245.378906 227.332031 C 245.761719 227.9375 246.125 228.554688 246.472656 229.179688 C 246.527344 229.273438 246.738281 229.65625 246.578125 229.371094 C 246.664062 229.519531 246.738281 229.679688 246.824219 229.828125 C 246.992188 230.15625 247.164062 230.484375 247.332031 230.816406 C 247.980469 232.121094 248.574219 233.457031 249.105469 234.808594 C 249.636719 236.167969 250.101562 237.546875 250.503906 238.949219 C 250.601562 239.277344 250.695312 239.617188 250.78125 239.945312 C 250.824219 240.09375 250.855469 240.234375 250.898438 240.382812 C 250.984375 240.699219 250.910156 240.445312 250.898438 240.382812 C 250.929688 240.5 250.953125 240.625 250.984375 240.742188 C 251.152344 241.445312 251.300781 242.144531 251.429688 242.84375 C 251.738281 244.449219 251.949219 246.074219 252.085938 247.707031 C 252.152344 248.492188 252.191406 249.289062 252.226562 250.085938 C 252.234375 250.511719 252.246094 250.925781 252.246094 251.351562 C 252.246094 251.550781 252.246094 251.742188 252.246094 251.945312 C 252.246094 252.144531 252.246094 251.882812 252.246094 251.859375 C 252.246094 252.007812 252.234375 252.15625 252.234375 252.304688 C 252.214844 253.21875 252.691406 254.195312 253.722656 254.300781 C 254.570312 254.386719 255.683594 253.804688 255.714844 252.816406 C 255.875 246.644531 254.910156 240.519531 252.828125 234.710938 C 250.804688 229.0625 247.726562 223.734375 243.769531 219.210938 C 241.488281 216.609375 238.949219 214.25 236.148438 212.222656 C 235.40625 211.691406 234.273438 211.679688 233.675781 212.476562 C 233.125 213.21875 233.113281 214.386719 233.910156 214.960938 Z M 233.910156 214.960938 " fill-opacity="1" fill-rule="nonzero"/><path fill="#300000" d="M 253.019531 254.21875 C 253.488281 254.25 253.933594 254.34375 254.359375 254.484375 C 254.78125 254.621094 255.183594 254.8125 255.554688 255.035156 C 257.59375 256.425781 259.238281 258.644531 259.046875 261.351562 C 259.015625 261.765625 258.953125 262.171875 258.847656 262.574219 C 258.378906 265.144531 255.863281 266.949219 253.421875 266.523438 C 249.59375 265.8125 248.820312 260.960938 250.378906 257.679688 C 250.613281 257.117188 250.898438 256.59375 251.238281 256.117188 C 251.554688 255.671875 251.925781 255.246094 252.339844 254.875 C 252.542969 254.671875 252.777344 254.460938 253.019531 254.21875 Z M 253.019531 254.21875 " fill-opacity="1" fill-rule="nonzero"/><path fill="#300000" d="M 252.796875 255.777344 C 253.136719 255.808594 253.476562 255.851562 253.816406 255.949219 C 253.539062 255.863281 254.050781 256.042969 254.050781 256.03125 C 254.207031 256.097656 254.355469 256.160156 254.507812 256.234375 C 254.546875 256.253906 254.984375 256.53125 254.6875 256.320312 C 254.792969 256.394531 254.886719 256.46875 254.992188 256.542969 C 255.195312 256.691406 255.398438 256.859375 255.578125 257.019531 C 255.671875 257.105469 255.769531 257.191406 255.855469 257.273438 C 255.894531 257.316406 256.191406 257.625 255.929688 257.339844 C 256.097656 257.53125 256.265625 257.722656 256.414062 257.921875 C 256.542969 258.09375 256.660156 258.261719 256.777344 258.441406 C 256.839844 258.550781 256.902344 258.65625 256.96875 258.773438 C 256.777344 258.433594 257.03125 258.921875 257.0625 258.984375 C 257.167969 259.21875 257.253906 259.453125 257.328125 259.695312 C 257.347656 259.78125 257.382812 259.855469 257.402344 259.941406 C 257.308594 259.578125 257.402344 259.992188 257.414062 260.058594 C 257.457031 260.3125 257.488281 260.578125 257.5 260.84375 C 257.5 260.894531 257.476562 261.332031 257.5 260.96875 C 257.488281 261.171875 257.464844 261.375 257.433594 261.574219 C 257.402344 261.832031 257.339844 262.074219 257.285156 262.328125 C 257.253906 262.457031 257.234375 262.585938 257.199219 262.710938 C 257.308594 262.320312 257.179688 262.722656 257.160156 262.796875 C 257.0625 263.03125 256.957031 263.253906 256.828125 263.476562 C 257.03125 263.113281 256.820312 263.476562 256.777344 263.539062 C 256.703125 263.636719 256.628906 263.742188 256.542969 263.835938 C 256.457031 263.933594 256.375 264.015625 256.289062 264.113281 C 256.023438 264.410156 256.542969 263.933594 256.226562 264.167969 C 256.023438 264.316406 255.832031 264.453125 255.628906 264.601562 C 255.300781 264.824219 255.917969 264.484375 255.554688 264.644531 C 255.460938 264.6875 255.375 264.730469 255.28125 264.769531 C 255.183594 264.8125 255.089844 264.847656 254.992188 264.878906 C 254.917969 264.898438 254.84375 264.929688 254.761719 264.953125 C 254.953125 264.910156 254.972656 264.898438 254.804688 264.941406 C 254.558594 264.984375 254.324219 265.003906 254.082031 265.027344 C 253.6875 265.058594 254.390625 265.078125 254.007812 265.015625 C 253.902344 265.003906 253.804688 264.996094 253.699219 264.984375 C 253.59375 264.960938 253.496094 264.941406 253.402344 264.921875 C 253.011719 264.847656 253.710938 265.058594 253.347656 264.898438 C 253.191406 264.835938 252.710938 264.730469 252.628906 264.570312 C 252.679688 264.601562 252.746094 264.644531 252.796875 264.675781 C 252.734375 264.632812 252.679688 264.589844 252.617188 264.546875 C 252.53125 264.484375 252.449219 264.421875 252.363281 264.347656 C 252.308594 264.304688 252.257812 264.25 252.203125 264.199219 C 251.925781 263.953125 252.414062 264.472656 252.191406 264.1875 C 252.054688 264.015625 251.925781 263.847656 251.8125 263.667969 C 251.757812 263.582031 251.535156 263.339844 251.789062 263.644531 C 251.703125 263.539062 251.652344 263.371094 251.597656 263.242188 C 251.523438 263.074219 251.460938 262.890625 251.40625 262.722656 C 251.375 262.617188 251.34375 262.511719 251.3125 262.394531 C 251.417969 262.785156 251.324219 262.414062 251.3125 262.339844 C 251.226562 261.882812 251.195312 261.417969 251.183594 260.949219 C 251.195312 261.351562 251.183594 260.960938 251.195312 260.886719 C 251.207031 260.726562 251.214844 260.566406 251.238281 260.40625 C 251.269531 260.132812 251.3125 259.855469 251.375 259.589844 C 251.398438 259.515625 251.40625 259.429688 251.429688 259.355469 C 251.449219 259.28125 251.472656 259.207031 251.492188 259.121094 C 251.429688 259.335938 251.429688 259.355469 251.480469 259.1875 C 251.578125 258.929688 251.671875 258.675781 251.777344 258.421875 C 251.925781 258.082031 252.085938 257.753906 252.257812 257.433594 C 252.277344 257.402344 252.425781 257.167969 252.289062 257.382812 C 252.40625 257.199219 252.53125 257.019531 252.671875 256.851562 C 253.199219 256.160156 253.59375 255.875 254.261719 255.226562 C 254.855469 254.652344 254.664062 253.472656 254.039062 253.007812 C 253.285156 252.445312 252.457031 252.613281 251.820312 253.230469 C 251.757812 253.292969 251.695312 253.347656 251.640625 253.410156 C 251.441406 253.601562 251.777344 253.28125 251.597656 253.453125 C 251.460938 253.589844 251.3125 253.71875 251.175781 253.855469 C 250.835938 254.175781 250.515625 254.492188 250.242188 254.863281 C 249.71875 255.535156 249.308594 256.277344 248.96875 257.050781 C 248.488281 258.136719 248.160156 259.304688 248.109375 260.480469 C 247.992188 262.890625 248.679688 265.609375 250.769531 267.066406 C 253.042969 268.636719 256.128906 268.476562 258.21875 266.652344 C 260.457031 264.6875 261.160156 261.457031 260.320312 258.644531 C 259.40625 255.609375 256.46875 252.953125 253.296875 252.675781 C 252.480469 252.601562 251.597656 253.125 251.515625 254.003906 C 251.386719 254.789062 251.917969 255.691406 252.796875 255.777344 Z M 252.796875 255.777344 " fill-opacity="1" fill-rule="nonzero"/><path fill="#300000" d="M 248.710938 257.464844 C 248.574219 257.679688 248.449219 257.902344 248.289062 258.101562 C 248.246094 258.167969 248.203125 258.21875 248.148438 258.273438 C 248.183594 258.242188 248.214844 258.210938 248.246094 258.175781 C 248.332031 258.167969 248.785156 258.019531 248.820312 258.09375 C 248.765625 258.09375 248.722656 258.082031 248.671875 258.070312 C 248.585938 258.050781 248.605469 258.0625 248.722656 258.09375 C 248.839844 258.136719 248.859375 258.136719 248.777344 258.101562 C 248.722656 258.082031 248.679688 258.0625 248.628906 258.039062 C 248.375 257.953125 248.734375 258.070312 248.710938 258.101562 C 248.679688 258.082031 248.660156 258.0625 248.628906 258.039062 C 248.523438 257.945312 248.523438 257.953125 248.617188 258.050781 C 248.691406 258.136719 248.710938 258.15625 248.660156 258.09375 C 248.628906 258.050781 248.597656 258.019531 248.574219 257.976562 C 248.648438 257.964844 248.722656 258.328125 248.722656 258.378906 C 248.679688 258.101562 248.753906 258.65625 248.734375 258.464844 C 248.722656 258.359375 248.660156 258.625 248.734375 258.476562 C 248.785156 258.367188 248.828125 258.25 248.871094 258.144531 C 248.925781 258.019531 248.945312 257.988281 248.859375 258.136719 C 248.988281 257.933594 249.148438 257.753906 249.296875 257.574219 C 249.371094 257.476562 249.421875 257.433594 249.308594 257.550781 C 249.390625 257.464844 249.488281 257.390625 249.582031 257.316406 C 249.753906 257.179688 249.933594 257.050781 250.113281 256.933594 C 250.199219 256.882812 250.28125 256.828125 250.367188 256.785156 C 250.132812 256.925781 250.421875 256.765625 250.464844 256.742188 C 250.65625 256.648438 250.867188 256.5625 251.058594 256.480469 C 251.96875 256.085938 252.894531 255.746094 253.859375 255.5 C 253.476562 254.523438 253.09375 253.546875 252.722656 252.5625 C 251.449219 252.890625 250.316406 253.84375 249.667969 254.980469 C 249.371094 255.511719 249.074219 256.042969 248.820312 256.585938 C 248.710938 256.808594 248.605469 257.042969 248.523438 257.273438 C 248.351562 257.742188 248.320312 258.167969 248.339844 258.65625 C 248.363281 259.484375 249.296875 260.164062 250.082031 260.046875 C 250.984375 259.910156 251.492188 259.1875 251.472656 258.304688 C 251.460938 257.914062 251.417969 258.558594 251.40625 258.550781 C 251.398438 258.539062 251.515625 258.304688 251.523438 258.285156 C 251.609375 258.070312 251.703125 257.871094 251.8125 257.65625 C 252.011719 257.234375 252.246094 256.808594 252.488281 256.40625 C 252.40625 256.542969 252.46875 256.4375 252.53125 256.363281 C 252.597656 256.289062 252.660156 256.203125 252.722656 256.128906 C 252.796875 256.03125 252.859375 255.980469 252.734375 256.097656 C 252.796875 256.03125 252.871094 255.96875 252.945312 255.914062 C 253.019531 255.863281 253.09375 255.808594 253.167969 255.757812 C 253.488281 255.535156 253.042969 255.777344 253.242188 255.714844 C 253.457031 255.640625 253.648438 255.554688 253.871094 255.5 C 254.664062 255.289062 255.078125 254.183594 254.769531 253.464844 C 254.398438 252.601562 253.59375 252.347656 252.734375 252.5625 C 251.480469 252.878906 250.21875 253.335938 249.074219 253.941406 C 247.746094 254.640625 246.546875 255.628906 245.933594 257.03125 C 245.613281 257.753906 245.445312 258.527344 245.71875 259.292969 C 245.976562 260.003906 246.527344 260.503906 247.164062 260.863281 C 247.789062 261.226562 248.660156 261.394531 249.347656 261.152344 C 250.199219 260.851562 250.675781 260.207031 251.140625 259.484375 C 251.589844 258.792969 251.652344 257.804688 250.917969 257.265625 C 250.304688 256.777344 249.199219 256.722656 248.710938 257.464844 Z M 248.710938 257.464844 " fill-opacity="1" fill-rule="nonzero"/><path fill="#300000" d="M 135.835938 207.15625 C 134.46875 207.644531 133.078125 208.070312 131.667969 208.433594 C 130.976562 208.601562 130.277344 208.761719 129.578125 208.898438 C 129.238281 208.960938 128.898438 209.027344 128.558594 209.089844 C 128.386719 209.121094 128.21875 209.144531 128.046875 209.175781 C 127.847656 209.207031 128.113281 209.164062 128.132812 209.164062 C 128.015625 209.1875 127.890625 209.195312 127.773438 209.21875 C 124.917969 209.632812 122.03125 209.757812 119.15625 209.632812 C 118.445312 209.601562 117.734375 209.546875 117.015625 209.484375 C 116.90625 209.472656 116.472656 209.429688 116.800781 209.460938 C 116.632812 209.441406 116.460938 209.429688 116.28125 209.410156 C 115.910156 209.367188 115.550781 209.324219 115.179688 209.269531 C 113.734375 209.070312 112.300781 208.804688 110.878906 208.472656 C 109.460938 208.144531 108.058594 207.742188 106.667969 207.285156 C 106.339844 207.179688 106.011719 207.0625 105.679688 206.945312 C 105.542969 206.890625 105.40625 206.851562 105.269531 206.796875 C 104.960938 206.679688 105.203125 206.773438 105.269531 206.796875 C 105.152344 206.753906 105.035156 206.710938 104.917969 206.667969 C 104.25 206.414062 103.582031 206.136719 102.921875 205.851562 C 101.425781 205.191406 99.960938 204.460938 98.539062 203.652344 C 97.851562 203.261719 97.171875 202.847656 96.503906 202.421875 C 96.152344 202.199219 95.792969 201.964844 95.453125 201.722656 C 95.292969 201.605469 95.125 201.5 94.964844 201.382812 C 94.796875 201.265625 95.007812 201.414062 95.027344 201.433594 C 94.910156 201.347656 94.785156 201.265625 94.667969 201.167969 C 93.925781 200.628906 92.851562 200.480469 92.183594 201.265625 C 91.632812 201.921875 91.484375 203.164062 92.28125 203.75 C 97.277344 207.371094 102.871094 210.035156 108.832031 211.597656 C 114.636719 213.113281 120.769531 213.59375 126.734375 212.878906 C 130.160156 212.464844 133.546875 211.710938 136.792969 210.542969 C 137.652344 210.238281 138.296875 209.300781 137.980469 208.367188 C 137.726562 207.488281 136.761719 206.816406 135.835938 207.15625 Z M 135.835938 207.15625 " fill-opacity="1" fill-rule="nonzero"/><path fill="#300000" d="M 92.683594 200.734375 C 92.386719 201.09375 92.066406 201.414062 91.707031 201.6875 C 91.355469 201.964844 90.976562 202.1875 90.570312 202.367188 C 88.28125 203.269531 85.523438 203.367188 83.390625 201.679688 C 83.058594 201.414062 82.761719 201.125 82.496094 200.828125 C 80.640625 198.980469 80.578125 195.890625 82.304688 194.117188 C 85.054688 191.359375 89.488281 193.460938 91.324219 196.601562 C 91.65625 197.113281 91.929688 197.644531 92.132812 198.195312 C 92.324219 198.714844 92.460938 199.257812 92.535156 199.808594 C 92.578125 200.085938 92.621094 200.394531 92.683594 200.734375 Z M 92.683594 200.734375 " fill-opacity="1" fill-rule="nonzero"/><path fill="#300000" d="M 91.527344 199.671875 C 91.304688 199.9375 91.082031 200.191406 90.816406 200.414062 C 91.039062 200.222656 90.613281 200.554688 90.613281 200.554688 C 90.476562 200.648438 90.339844 200.734375 90.191406 200.820312 C 90.148438 200.839844 89.671875 201.042969 90.019531 200.914062 C 89.902344 200.957031 89.785156 201 89.660156 201.042969 C 89.414062 201.125 89.171875 201.191406 88.925781 201.253906 C 88.800781 201.285156 88.683594 201.316406 88.554688 201.339844 C 88.492188 201.347656 88.078125 201.414062 88.460938 201.359375 C 88.207031 201.390625 87.960938 201.421875 87.707031 201.433594 C 87.496094 201.445312 87.28125 201.445312 87.070312 201.445312 C 86.941406 201.445312 86.816406 201.433594 86.6875 201.421875 C 87.070312 201.457031 86.53125 201.390625 86.464844 201.382812 C 86.210938 201.339844 85.96875 201.273438 85.722656 201.199219 C 85.636719 201.179688 85.5625 201.148438 85.480469 201.117188 C 85.828125 201.242188 85.425781 201.085938 85.371094 201.0625 C 85.128906 200.957031 84.90625 200.828125 84.683594 200.691406 C 84.640625 200.660156 84.289062 200.394531 84.566406 200.617188 C 84.40625 200.488281 84.25 200.363281 84.101562 200.222656 C 83.910156 200.054688 83.738281 199.863281 83.558594 199.671875 C 83.472656 199.578125 83.378906 199.480469 83.292969 199.386719 C 83.558594 199.691406 83.292969 199.363281 83.25 199.300781 C 83.113281 199.085938 82.984375 198.875 82.867188 198.640625 C 83.050781 199.011719 82.878906 198.640625 82.847656 198.566406 C 82.804688 198.449219 82.773438 198.332031 82.730469 198.21875 C 82.699219 198.101562 82.679688 197.972656 82.644531 197.855469 C 82.550781 197.464844 82.65625 198.175781 82.636719 197.769531 C 82.625 197.527344 82.613281 197.28125 82.613281 197.039062 C 82.613281 196.644531 82.550781 197.347656 82.625 196.953125 C 82.644531 196.859375 82.65625 196.75 82.679688 196.65625 C 82.699219 196.5625 82.71875 196.453125 82.753906 196.359375 C 82.773438 196.285156 82.792969 196.199219 82.828125 196.125 C 82.753906 196.316406 82.753906 196.328125 82.816406 196.167969 C 82.921875 195.945312 83.027344 195.734375 83.15625 195.53125 C 83.355469 195.191406 82.933594 195.753906 83.207031 195.46875 C 83.28125 195.394531 83.335938 195.308594 83.410156 195.234375 C 83.484375 195.160156 83.558594 195.09375 83.632812 195.019531 C 83.917969 194.746094 83.347656 195.203125 83.675781 194.988281 C 83.824219 194.894531 84.175781 194.566406 84.355469 194.585938 C 84.289062 194.617188 84.226562 194.640625 84.175781 194.671875 C 84.238281 194.640625 84.3125 194.617188 84.375 194.597656 C 84.480469 194.566406 84.578125 194.53125 84.683594 194.5 C 84.757812 194.480469 84.820312 194.46875 84.894531 194.449219 C 85.246094 194.351562 84.554688 194.46875 84.917969 194.449219 C 85.128906 194.4375 85.339844 194.414062 85.5625 194.425781 C 85.671875 194.425781 85.988281 194.382812 85.597656 194.414062 C 85.734375 194.40625 85.902344 194.457031 86.03125 194.488281 C 86.210938 194.523438 86.390625 194.574219 86.570312 194.628906 C 86.679688 194.660156 86.785156 194.703125 86.890625 194.734375 C 86.496094 194.597656 86.867188 194.734375 86.941406 194.765625 C 87.378906 194.957031 87.769531 195.191406 88.164062 195.445312 C 87.824219 195.222656 88.152344 195.445312 88.214844 195.488281 C 88.34375 195.582031 88.460938 195.691406 88.589844 195.785156 C 88.800781 195.964844 89 196.15625 89.191406 196.359375 C 89.246094 196.410156 89.300781 196.476562 89.351562 196.539062 C 89.40625 196.601562 89.457031 196.65625 89.511719 196.71875 C 89.375 196.550781 89.351562 196.527344 89.46875 196.667969 C 89.628906 196.890625 89.785156 197.113281 89.933594 197.347656 C 90.125 197.65625 90.308594 197.972656 90.476562 198.300781 C 90.496094 198.332031 90.59375 198.589844 90.507812 198.355469 C 90.59375 198.558594 90.667969 198.757812 90.730469 198.972656 C 90.996094 199.800781 91.019531 200.289062 91.167969 201.199219 C 91.304688 202.019531 92.386719 202.515625 93.117188 202.273438 C 94.011719 201.964844 94.328125 201.191406 94.191406 200.320312 C 94.179688 200.234375 94.160156 200.148438 94.148438 200.066406 C 94.105469 199.789062 94.179688 200.253906 94.136719 200 C 94.105469 199.808594 94.085938 199.617188 94.050781 199.417969 C 93.976562 198.960938 93.894531 198.515625 93.753906 198.078125 C 93.5 197.273438 93.117188 196.507812 92.671875 195.785156 C 92.058594 194.777344 91.273438 193.851562 90.328125 193.132812 C 88.40625 191.664062 85.777344 190.699219 83.398438 191.613281 C 80.820312 192.589844 79.207031 195.234375 79.527344 197.996094 C 79.875 200.957031 82.148438 203.355469 84.9375 204.25 C 87.953125 205.214844 91.804688 204.289062 93.828125 201.828125 C 94.347656 201.191406 94.421875 200.171875 93.746094 199.597656 C 93.128906 199.054688 92.089844 198.980469 91.527344 199.671875 Z M 91.527344 199.671875 " fill-opacity="1" fill-rule="nonzero"/><path fill="#300000" d="M 92.441406 195.339844 C 92.34375 195.105469 92.226562 194.871094 92.152344 194.628906 C 92.132812 194.554688 92.109375 194.488281 92.089844 194.414062 C 92.101562 194.457031 92.109375 194.5 92.109375 194.554688 C 92.066406 194.628906 91.941406 195.09375 91.855469 195.085938 C 91.886719 195.042969 91.917969 195.011719 91.953125 194.96875 C 92.015625 194.902344 91.992188 194.914062 91.898438 195 C 91.804688 195.074219 91.78125 195.085938 91.855469 195.03125 C 91.898438 195 91.941406 194.96875 91.984375 194.945312 C 92.195312 194.789062 91.898438 195.019531 91.886719 194.980469 C 91.917969 194.96875 91.953125 194.957031 91.984375 194.945312 C 92.121094 194.914062 92.121094 194.914062 91.984375 194.9375 C 91.867188 194.945312 91.84375 194.957031 91.929688 194.945312 C 91.984375 194.945312 92.027344 194.9375 92.078125 194.945312 C 92.046875 195.011719 91.707031 194.863281 91.664062 194.851562 C 91.910156 194.96875 91.421875 194.722656 91.589844 194.808594 C 91.6875 194.863281 91.503906 194.660156 91.582031 194.808594 C 91.632812 194.914062 91.707031 195.011719 91.769531 195.117188 C 91.84375 195.234375 91.855469 195.265625 91.792969 195.117188 C 91.886719 195.339844 91.953125 195.5625 92.015625 195.796875 C 92.046875 195.914062 92.058594 195.976562 92.035156 195.816406 C 92.058594 195.933594 92.066406 196.0625 92.078125 196.179688 C 92.101562 196.402344 92.101562 196.613281 92.089844 196.835938 C 92.089844 196.933594 92.078125 197.027344 92.066406 197.132812 C 92.078125 196.867188 92.058594 197.1875 92.046875 197.242188 C 92.015625 197.453125 91.960938 197.664062 91.929688 197.878906 C 91.738281 198.855469 91.496094 199.808594 91.15625 200.746094 C 92.175781 200.988281 93.203125 201.222656 94.222656 201.464844 C 94.667969 200.222656 94.53125 198.746094 93.945312 197.578125 C 93.679688 197.039062 93.414062 196.488281 93.097656 195.964844 C 92.96875 195.753906 92.84375 195.542969 92.695312 195.328125 C 92.40625 194.925781 92.066406 194.660156 91.65625 194.394531 C 90.953125 193.949219 89.871094 194.320312 89.523438 195.054688 C 89.128906 195.882812 89.4375 196.710938 90.179688 197.1875 C 90.507812 197.398438 90 196.996094 90.007812 196.996094 C 90.019531 196.996094 90.160156 197.21875 90.167969 197.242188 C 90.296875 197.429688 90.414062 197.632812 90.53125 197.824219 C 90.761719 198.226562 90.984375 198.664062 91.175781 199.085938 C 91.101562 198.9375 91.167969 199.054688 91.1875 199.140625 C 91.21875 199.238281 91.242188 199.332031 91.273438 199.4375 C 91.304688 199.554688 91.324219 199.640625 91.292969 199.46875 C 91.304688 199.566406 91.316406 199.652344 91.324219 199.746094 C 91.335938 199.839844 91.324219 199.9375 91.335938 200.023438 C 91.335938 200.40625 91.390625 199.90625 91.335938 200.117188 C 91.273438 200.332031 91.242188 200.542969 91.167969 200.753906 C 90.878906 201.53125 91.570312 202.507812 92.34375 202.644531 C 93.265625 202.816406 93.9375 202.304688 94.234375 201.464844 C 94.679688 200.253906 95.019531 198.949219 95.167969 197.664062 C 95.335938 196.179688 95.207031 194.628906 94.390625 193.320312 C 93.976562 192.652344 93.425781 192.070312 92.640625 191.867188 C 91.910156 191.675781 91.1875 191.847656 90.53125 192.164062 C 89.882812 192.472656 89.246094 193.097656 89.066406 193.800781 C 88.832031 194.671875 89.097656 195.425781 89.425781 196.222656 C 89.746094 196.976562 90.519531 197.578125 91.378906 197.292969 C 92.101562 197.050781 92.769531 196.15625 92.441406 195.339844 Z M 92.441406 195.339844 " fill-opacity="1" fill-rule="nonzero"/><path fill="#ffb0bb" d="M 96.800781 144.859375 C 107.644531 142.960938 116.238281 134.816406 119.410156 124.398438 C 125.523438 127.117188 126.882812 134.816406 121.90625 139.5625 C 110.371094 150.660156 95.207031 156.765625 79.515625 157.699219 C 77.332031 157.792969 75.15625 157.785156 73.03125 157.667969 C 70.09375 157.445312 69.636719 152.230469 72.132812 149.746094 C 73.542969 148.332031 75.082031 147.460938 76.703125 146.953125 C 78.328125 146.433594 80.023438 146.253906 81.765625 146.1875 C 85.246094 146.125 88.875 146.359375 92.207031 145.625 C 93.660156 145.414062 95.1875 145.160156 96.800781 144.859375 Z M 96.800781 144.859375 " fill-opacity="1" fill-rule="nonzero"/><path fill="#111111" d="M 139.222656 312.480469 C 138.648438 317.054688 145.925781 317.765625 148.71875 318.328125 C 158.640625 320.335938 168.730469 318.710938 178.640625 317.394531 C 179.765625 317.160156 180.890625 316.9375 182.015625 316.746094 C 192.359375 315.015625 202.492188 318.0625 212.804688 318.402344 C 221.378906 318.691406 230.007812 318.542969 238.558594 317.332031 C 239.917969 317.140625 242.273438 316.9375 243.140625 315.113281 C 244.011719 313.273438 243.109375 311.875 241.847656 311.246094 C 235.746094 308.242188 229.113281 308.230469 222.75 307.914062 C 209.78125 307.265625 196.976562 311.523438 184.050781 310.460938 C 181.175781 310.226562 178.332031 309.578125 175.476562 308.984375 C 174.535156 308.785156 173.578125 308.59375 172.625 308.410156 C 167.191406 307.414062 161.652344 307.234375 156.15625 307.582031 C 153.355469 307.765625 150.554688 308.03125 147.773438 308.433594 C 145.480469 308.773438 142.394531 308.816406 140.441406 310.300781 C 139.710938 310.894531 139.316406 311.671875 139.222656 312.480469 Z M 139.222656 312.480469 " fill-opacity="0.05" fill-rule="nonzero"/><path fill="#300000" d="M 205.464844 256.902344 C 205.359375 258.402344 205.261719 259.898438 205.082031 261.394531 L 205.082031 261.300781 C 205.082031 261.492188 205.082031 261.765625 205.039062 261.988281 C 204.871094 263.753906 204.679688 265.515625 204.464844 267.265625 C 204.042969 270.824219 203.542969 274.359375 203.003906 277.875 C 201.917969 284.871094 200.648438 291.816406 199.339844 298.726562 C 198.597656 302.644531 197.855469 306.5625 197.125 310.492188 C 196.878906 311.789062 197.421875 313.328125 198.367188 313.636719 C 199.300781 313.945312 200.296875 313.230469 200.550781 311.851562 C 203.160156 297.835938 206.003906 283.894531 207.765625 269.59375 C 208.019531 267.5 208.253906 265.398438 208.464844 263.296875 C 208.679688 261.191406 208.859375 259.070312 209.007812 256.933594 C 209.101562 255.585938 208.117188 254.257812 207.226562 254.300781 C 206.195312 254.355469 205.570312 255.4375 205.464844 256.902344 Z M 205.464844 256.902344 " fill-opacity="1" fill-rule="nonzero"/><path fill="#300000" d="M 198.746094 312.296875 C 199.152344 312.53125 199.574219 312.742188 200 312.933594 C 200.421875 313.125 200.878906 313.308594 201.335938 313.457031 C 202.992188 313.804688 205.175781 314.316406 207.171875 314.242188 C 207.671875 314.21875 208.160156 314.167969 208.613281 314.070312 C 208.953125 314.007812 209.324219 313.910156 209.699219 313.785156 C 210.070312 313.65625 210.429688 313.496094 210.746094 313.308594 C 211.796875 312.765625 211.796875 311.542969 211.363281 310.589844 C 210.757812 309.546875 210.058594 308.675781 209.019531 308.167969 C 208.742188 308.03125 208.457031 307.914062 208.167969 307.804688 C 205.558594 306.9375 202.515625 307.804688 200.507812 309.929688 C 200.328125 310.101562 200.160156 310.292969 199.988281 310.472656 C 199.789062 310.960938 199.265625 311.226562 199.054688 311.714844 C 198.949219 311.882812 198.84375 312.085938 198.746094 312.296875 Z M 198.746094 312.296875 " fill-opacity="1" fill-rule="nonzero"/><path fill="#300000" d="M 197.984375 313.613281 C 199.117188 314.261719 200.328125 314.792969 201.613281 315.070312 C 202.886719 315.34375 204.167969 315.578125 205.472656 315.707031 C 206.820312 315.832031 208.179688 315.769531 209.496094 315.429688 C 210.726562 315.113281 212.160156 314.539062 212.796875 313.359375 C 214.039062 311.035156 212.136719 308.230469 210.152344 307.019531 C 208.117188 305.777344 205.453125 305.628906 203.234375 306.414062 C 201.929688 306.871094 200.753906 307.582031 199.746094 308.539062 C 199.53125 308.742188 199.339844 308.941406 199.140625 309.15625 C 198.980469 309.324219 198.820312 309.496094 198.695312 309.6875 C 198.664062 309.761719 198.628906 309.835938 198.578125 309.898438 C 198.695312 309.75 198.703125 309.738281 198.589844 309.867188 C 198.089844 310.34375 197.738281 310.90625 197.441406 311.535156 C 197.09375 312.246094 197.207031 313.199219 197.984375 313.613281 C 198.664062 313.976562 199.703125 313.835938 200.0625 313.074219 C 200.160156 312.871094 200.265625 312.667969 200.382812 312.46875 C 200.421875 312.394531 200.636719 312.105469 200.402344 312.371094 C 200.457031 312.308594 200.507812 312.253906 200.5625 312.191406 C 200.761719 311.980469 200.953125 311.765625 201.125 311.523438 C 201.125 311.523438 201.316406 311.195312 201.207031 311.363281 C 201.132812 311.449219 201.15625 311.417969 201.273438 311.300781 C 201.335938 311.226562 201.410156 311.152344 201.484375 311.085938 C 201.644531 310.917969 201.804688 310.757812 201.984375 310.597656 C 202.046875 310.535156 202.121094 310.480469 202.183594 310.417969 C 202.175781 310.429688 202.515625 310.152344 202.34375 310.28125 C 202.175781 310.417969 202.523438 310.152344 202.515625 310.164062 C 202.609375 310.101562 202.695312 310.035156 202.789062 309.984375 C 202.992188 309.855469 203.203125 309.726562 203.425781 309.621094 C 203.542969 309.558594 203.660156 309.503906 203.789062 309.453125 C 203.734375 309.472656 203.511719 309.558594 203.789062 309.453125 C 203.988281 309.378906 204.199219 309.304688 204.402344 309.238281 C 204.613281 309.175781 204.816406 309.125 205.027344 309.082031 C 205.113281 309.058594 205.199219 309.050781 205.285156 309.027344 C 205.464844 308.996094 205.453125 308.996094 205.261719 309.027344 C 205.347656 309.015625 205.433594 309.007812 205.515625 309.007812 C 205.898438 308.972656 206.292969 308.972656 206.671875 309.007812 C 206.738281 309.015625 207.152344 309.089844 206.78125 309.015625 C 206.863281 309.039062 206.949219 309.050781 207.035156 309.058594 C 207.289062 309.113281 207.53125 309.175781 207.777344 309.261719 C 207.734375 309.25 208.203125 309.421875 208.019531 309.347656 C 207.839844 309.273438 208.296875 309.484375 208.253906 309.464844 C 208.457031 309.558594 208.636719 309.675781 208.816406 309.792969 C 209.050781 309.953125 208.859375 309.824219 208.816406 309.792969 C 208.914062 309.878906 209.007812 309.960938 209.101562 310.046875 C 209.167969 310.109375 209.21875 310.175781 209.285156 310.226562 C 209.316406 310.257812 209.601562 310.609375 209.496094 310.472656 C 209.359375 310.300781 209.625 310.640625 209.613281 310.640625 C 209.664062 310.714844 209.71875 310.789062 209.761719 310.863281 C 209.835938 310.980469 209.898438 311.097656 209.984375 311.214844 C 210.152344 311.46875 210.015625 311.257812 209.984375 311.183594 C 210.015625 311.277344 210.175781 311.617188 210.132812 311.726562 C 210.121094 311.660156 210.109375 311.597656 210.109375 311.542969 C 210.121094 311.617188 210.121094 311.691406 210.121094 311.765625 C 210.121094 311.800781 210.121094 311.839844 210.121094 311.875 C 210.109375 312.042969 210.109375 312.023438 210.132812 311.789062 C 210.109375 311.777344 210.101562 311.988281 210.078125 311.988281 C 210.101562 311.9375 210.132812 311.875 210.152344 311.820312 C 210.121094 311.882812 210.089844 311.949219 210.046875 312 C 210.183594 311.734375 210.121094 311.851562 210.070312 311.9375 C 210.109375 311.90625 210.152344 311.875 210.195312 311.839844 C 210.132812 311.882812 210.058594 311.925781 209.984375 311.96875 C 209.898438 312.023438 209.824219 312.0625 209.738281 312.105469 C 209.71875 312.117188 209.292969 312.308594 209.570312 312.191406 C 209.324219 312.289062 209.070312 312.371094 208.828125 312.4375 C 208.574219 312.511719 208.316406 312.5625 208.0625 312.617188 C 208.0625 312.617188 207.554688 312.691406 207.828125 312.660156 C 207.722656 312.667969 207.617188 312.679688 207.5 312.691406 C 206.929688 312.734375 206.34375 312.722656 205.769531 312.679688 C 205.484375 312.660156 205.199219 312.628906 204.910156 312.59375 C 204.613281 312.554688 205.273438 312.660156 204.773438 312.574219 C 204.613281 312.554688 204.464844 312.519531 204.308594 312.5 C 203.714844 312.402344 203.128906 312.277344 202.546875 312.160156 C 202.003906 312.042969 201.507812 311.90625 200.996094 311.714844 C 200.519531 311.535156 201.125 311.765625 200.847656 311.648438 C 200.679688 311.574219 200.507812 311.5 200.347656 311.417969 C 200.074219 311.277344 199.796875 311.128906 199.523438 310.980469 C 198.832031 310.589844 197.824219 310.800781 197.441406 311.523438 C 197.050781 312.246094 197.242188 313.191406 197.984375 313.613281 Z M 197.984375 313.613281 " fill-opacity="1" fill-rule="nonzero"/><path fill="#300000" d="M 172.167969 256.96875 C 172.230469 257.847656 172.304688 258.742188 172.378906 259.621094 C 172.410156 260.035156 172.453125 260.460938 172.484375 260.875 C 172.507812 261.054688 172.519531 261.246094 172.539062 261.425781 C 172.507812 261.085938 172.582031 261.90625 172.59375 262 C 172.761719 263.761719 172.953125 265.515625 173.164062 267.265625 C 173.589844 270.824219 174.089844 274.359375 174.628906 277.875 C 175.710938 284.871094 176.984375 291.816406 178.289062 298.726562 C 179.03125 302.644531 179.777344 306.5625 180.507812 310.492188 C 180.75 311.789062 180.210938 313.328125 179.265625 313.636719 C 178.332031 313.945312 177.335938 313.230469 177.082031 311.851562 C 174.46875 297.835938 171.625 283.894531 169.863281 269.59375 C 169.609375 267.5 169.378906 265.398438 169.164062 263.296875 C 168.953125 261.191406 168.773438 259.082031 168.625 256.96875 C 168.527344 255.628906 169.503906 254.34375 170.394531 254.40625 C 171.425781 254.472656 172.0625 255.535156 172.167969 256.96875 Z M 172.167969 256.96875 " fill-opacity="1" fill-rule="nonzero"/><path fill="#300000" d="M 178.882812 312.296875 C 178.480469 312.53125 178.054688 312.742188 177.632812 312.933594 C 177.195312 313.125 176.75 313.308594 176.296875 313.457031 C 174.640625 313.804688 172.453125 314.316406 170.460938 314.242188 C 169.960938 314.21875 169.472656 314.167969 169.015625 314.070312 C 168.675781 314.007812 168.304688 313.910156 167.933594 313.785156 C 167.5625 313.65625 167.203125 313.496094 166.882812 313.308594 C 165.832031 312.765625 165.832031 311.542969 166.269531 310.589844 C 166.871094 309.546875 167.574219 308.675781 168.613281 308.167969 C 168.890625 308.03125 169.175781 307.914062 169.460938 307.804688 C 172.070312 306.9375 175.117188 307.804688 177.121094 309.929688 C 177.304688 310.101562 177.472656 310.292969 177.644531 310.472656 C 177.84375 310.960938 178.363281 311.226562 178.578125 311.714844 C 178.683594 311.882812 178.789062 312.085938 178.882812 312.296875 Z M 178.882812 312.296875 " fill-opacity="1" fill-rule="nonzero"/><path fill="#300000" d="M 179.648438 313.613281 C 178.511719 314.261719 177.304688 314.792969 176.019531 315.070312 C 174.746094 315.34375 173.460938 315.578125 172.15625 315.707031 C 170.808594 315.832031 169.453125 315.769531 168.136719 315.429688 C 166.90625 315.113281 165.472656 314.539062 164.835938 313.359375 C 163.59375 311.035156 165.492188 308.230469 167.476562 307.019531 C 169.515625 305.777344 172.179688 305.628906 174.394531 306.414062 C 175.699219 306.871094 176.878906 307.582031 177.886719 308.539062 C 178.097656 308.742188 178.289062 308.941406 178.492188 309.15625 C 178.652344 309.324219 178.808594 309.496094 178.9375 309.6875 C 178.96875 309.761719 179 309.835938 179.054688 309.898438 C 178.9375 309.75 178.925781 309.738281 179.042969 309.867188 C 179.542969 310.34375 179.890625 310.90625 180.1875 311.535156 C 180.539062 312.246094 180.421875 313.199219 179.648438 313.613281 C 178.96875 313.976562 177.929688 313.835938 177.570312 313.074219 C 177.472656 312.871094 177.367188 312.667969 177.25 312.46875 C 177.207031 312.394531 176.996094 312.105469 177.230469 312.371094 C 177.175781 312.308594 177.121094 312.253906 177.070312 312.191406 C 176.867188 311.980469 176.675781 311.765625 176.507812 311.523438 C 176.507812 311.523438 176.316406 311.195312 176.421875 311.363281 C 176.496094 311.449219 176.476562 311.417969 176.359375 311.300781 C 176.296875 311.226562 176.222656 311.152344 176.148438 311.085938 C 175.988281 310.917969 175.828125 310.757812 175.648438 310.597656 C 175.585938 310.535156 175.511719 310.480469 175.445312 310.417969 C 175.457031 310.429688 175.117188 310.152344 175.289062 310.28125 C 175.457031 310.417969 175.105469 310.152344 175.117188 310.164062 C 175.023438 310.101562 174.9375 310.035156 174.839844 309.984375 C 174.640625 309.855469 174.425781 309.726562 174.203125 309.621094 C 174.089844 309.558594 173.972656 309.503906 173.84375 309.453125 C 173.898438 309.472656 174.121094 309.558594 173.84375 309.453125 C 173.640625 309.378906 173.429688 309.304688 173.230469 309.238281 C 173.015625 309.175781 172.816406 309.125 172.601562 309.082031 C 172.519531 309.058594 172.433594 309.050781 172.347656 309.027344 C 172.167969 308.996094 172.179688 308.996094 172.371094 309.027344 C 172.285156 309.015625 172.199219 309.007812 172.113281 309.007812 C 171.734375 308.972656 171.339844 308.972656 170.957031 309.007812 C 170.894531 309.015625 170.480469 309.089844 170.851562 309.015625 C 170.765625 309.039062 170.683594 309.050781 170.597656 309.058594 C 170.34375 309.113281 170.097656 309.175781 169.855469 309.261719 C 169.898438 309.25 169.429688 309.421875 169.609375 309.347656 C 169.789062 309.273438 169.335938 309.484375 169.378906 309.464844 C 169.175781 309.558594 168.996094 309.675781 168.816406 309.792969 C 168.582031 309.953125 168.773438 309.824219 168.816406 309.792969 C 168.71875 309.878906 168.625 309.960938 168.527344 310.046875 C 168.464844 310.109375 168.410156 310.175781 168.347656 310.226562 C 168.316406 310.257812 168.03125 310.609375 168.136719 310.472656 C 168.273438 310.300781 168.007812 310.640625 168.019531 310.640625 C 167.964844 310.714844 167.914062 310.789062 167.871094 310.863281 C 167.796875 310.980469 167.730469 311.097656 167.648438 311.214844 C 167.476562 311.46875 167.617188 311.257812 167.648438 311.183594 C 167.617188 311.277344 167.457031 311.617188 167.5 311.726562 C 167.507812 311.660156 167.519531 311.597656 167.519531 311.542969 C 167.507812 311.617188 167.507812 311.691406 167.507812 311.765625 C 167.507812 311.800781 167.507812 311.839844 167.507812 311.875 C 167.519531 312.042969 167.519531 312.023438 167.5 311.789062 C 167.519531 311.777344 167.53125 311.988281 167.550781 311.988281 C 167.53125 311.9375 167.5 311.875 167.476562 311.820312 C 167.507812 311.882812 167.542969 311.949219 167.582031 312 C 167.445312 311.734375 167.507812 311.851562 167.5625 311.9375 C 167.519531 311.90625 167.476562 311.875 167.433594 311.839844 C 167.5 311.882812 167.574219 311.925781 167.648438 311.96875 C 167.734375 312.023438 167.808594 312.0625 167.890625 312.105469 C 167.914062 312.117188 168.335938 312.308594 168.0625 312.191406 C 168.304688 312.289062 168.558594 312.371094 168.804688 312.4375 C 169.058594 312.511719 169.3125 312.5625 169.566406 312.617188 C 169.566406 312.617188 170.078125 312.691406 169.800781 312.660156 C 169.90625 312.667969 170.015625 312.679688 170.128906 312.691406 C 170.703125 312.734375 171.285156 312.722656 171.859375 312.679688 C 172.144531 312.660156 172.433594 312.628906 172.71875 312.59375 C 173.015625 312.554688 172.359375 312.660156 172.855469 312.574219 C 173.015625 312.554688 173.164062 312.519531 173.324219 312.5 C 173.917969 312.402344 174.503906 312.277344 175.085938 312.160156 C 175.625 312.042969 176.125 311.90625 176.632812 311.714844 C 177.113281 311.535156 176.507812 311.765625 176.785156 311.648438 C 176.953125 311.574219 177.121094 311.5 177.28125 311.417969 C 177.558594 311.277344 177.832031 311.128906 178.109375 310.980469 C 178.800781 310.589844 179.808594 310.800781 180.1875 311.523438 C 180.582031 312.246094 180.390625 313.191406 179.648438 313.613281 Z M 179.648438 313.613281 " fill-opacity="1" fill-rule="nonzero"/><path fill="#ffb0bb" d="M 99.878906 149.691406 C 99.75 145.476562 96.738281 141.175781 92.492188 140.445312 C 93.523438 135.199219 92.089844 129.136719 87.09375 126.4375 C 82.902344 124.175781 76.882812 124.847656 74.644531 129.328125 C 71.664062 126.734375 67.410156 125.195312 63.707031 126.394531 C 63.238281 126.546875 62.78125 126.734375 62.347656 126.96875 C 58.113281 129.179688 54.941406 133.03125 52.839844 137.523438 C 52.628906 137.886719 52.425781 138.257812 52.214844 138.617188 C 51.035156 140.710938 49.890625 142.824219 48.542969 144.820312 C 47.886719 145.796875 47.058594 146.675781 46.464844 147.695312 C 45.742188 148.9375 45.203125 150.308594 44.863281 151.710938 C 42.453125 161.660156 47.292969 174.835938 57.457031 178.394531 C 62.953125 180.316406 68.789062 177.871094 72.257812 173.464844 C 77.4375 182.820312 93.679688 178.179688 95.6875 168.445312 C 96.269531 165.621094 95.589844 162.835938 93.851562 160.617188 C 97.796875 158.6875 100.003906 154.003906 99.878906 149.691406 Z M 73.691406 166.289062 C 73.679688 166.277344 73.660156 166.257812 73.648438 166.246094 C 73.660156 166.257812 73.667969 166.277344 73.691406 166.289062 Z M 72.449219 165.640625 C 72.429688 165.640625 72.40625 165.640625 72.386719 165.640625 C 72.40625 165.640625 72.429688 165.640625 72.449219 165.640625 Z M 66.613281 146.644531 C 66.558594 146.507812 66.507812 146.367188 66.445312 146.242188 C 66.65625 146.582031 66.816406 146.964844 66.941406 147.378906 C 66.847656 147.132812 66.742188 146.890625 66.613281 146.644531 Z M 75.238281 133.140625 C 75.335938 133.160156 75.421875 133.179688 75.515625 133.191406 C 75.421875 133.179688 75.324219 133.160156 75.238281 133.140625 Z M 75.621094 133.203125 C 75.707031 133.214844 75.792969 133.222656 75.875 133.222656 C 75.800781 133.222656 75.71875 133.214844 75.621094 133.203125 Z M 76.015625 133.234375 C 76.035156 133.234375 76.058594 133.234375 76.078125 133.234375 C 76.058594 133.234375 76.035156 133.234375 76.015625 133.234375 Z M 79.835938 140.964844 C 79.898438 141.027344 79.972656 141.089844 80.035156 141.15625 C 79.972656 141.089844 79.910156 141.027344 79.835938 140.964844 Z M 80.171875 141.292969 C 80.28125 141.410156 80.398438 141.527344 80.503906 141.644531 C 80.386719 141.515625 80.28125 141.398438 80.171875 141.292969 Z M 72.332031 138.605469 C 72.882812 138.511719 73.445312 138.46875 74.007812 138.492188 C 73.445312 138.492188 72.882812 138.523438 72.332031 138.605469 Z M 68.277344 169.089844 C 68.246094 169.132812 68.214844 169.175781 68.183594 169.21875 C 68.214844 169.175781 68.246094 169.132812 68.277344 169.089844 Z M 76.683594 146.550781 C 75.8125 146.261719 74.878906 146.019531 73.957031 145.796875 C 74.878906 145.976562 75.800781 146.179688 76.683594 146.550781 Z M 70.539062 153.867188 C 70.453125 153.929688 70.371094 153.992188 70.285156 154.054688 C 70.371094 153.992188 70.453125 153.929688 70.539062 153.867188 Z M 70.230469 154.109375 C 70.15625 154.171875 70.082031 154.246094 70.007812 154.320312 C 69.933594 154.394531 69.871094 154.46875 69.808594 154.542969 C 69.828125 154.523438 69.839844 154.503906 69.851562 154.480469 C 69.890625 154.429688 69.945312 154.375 70 154.320312 C 70.082031 154.246094 70.15625 154.183594 70.230469 154.109375 Z M 69.773438 154.597656 C 69.617188 154.800781 69.476562 155.023438 69.371094 155.246094 C 69.382812 155.222656 69.382812 155.203125 69.394531 155.191406 C 69.5 154.980469 69.625 154.789062 69.773438 154.597656 Z M 69.054688 156.742188 C 69.054688 156.773438 69.054688 156.796875 69.054688 156.828125 C 69.054688 156.804688 69.054688 156.785156 69.054688 156.765625 C 69.054688 156.753906 69.054688 156.753906 69.054688 156.742188 Z M 69.277344 158.039062 C 69.265625 158.007812 69.253906 157.964844 69.246094 157.933594 C 69.253906 157.964844 69.265625 157.996094 69.277344 158.039062 Z M 69.171875 157.65625 C 69.160156 157.632812 69.160156 157.613281 69.148438 157.59375 C 69.148438 157.582031 69.148438 157.558594 69.140625 157.550781 C 69.148438 157.582031 69.160156 157.625 69.171875 157.65625 Z M 69.085938 157.210938 C 69.085938 157.179688 69.074219 157.144531 69.074219 157.113281 C 69.074219 157.144531 69.074219 157.179688 69.085938 157.210938 Z M 77.128906 132.949219 C 77.105469 132.957031 77.097656 132.96875 77.074219 132.980469 C 77.097656 132.96875 77.117188 132.957031 77.128906 132.949219 Z M 76.332031 133.214844 Z M 76.578125 133.171875 C 76.597656 133.171875 76.621094 133.160156 76.640625 133.160156 C 76.621094 133.160156 76.597656 133.160156 76.578125 133.171875 Z M 75.125 133.117188 C 74.761719 133.03125 74.402344 132.894531 74.050781 132.714844 C 74.414062 132.863281 74.773438 133 75.125 133.117188 Z M 60.449219 171.4375 C 60.128906 171.40625 59.855469 171.3125 59.601562 171.195312 C 60.085938 171.363281 60.597656 171.492188 61.105469 171.566406 C 61.03125 171.554688 60.957031 171.542969 60.882812 171.535156 C 60.746094 171.511719 60.597656 171.480469 60.449219 171.4375 Z M 61.253906 171.585938 C 61.414062 171.609375 61.582031 171.628906 61.742188 171.640625 C 61.582031 171.628906 61.414062 171.609375 61.253906 171.585938 Z M 66.464844 170.855469 C 66.582031 170.789062 66.6875 170.714844 66.792969 170.640625 C 66.898438 170.566406 67.007812 170.484375 67.101562 170.398438 C 67.007812 170.484375 66.898438 170.566406 66.792969 170.640625 C 66.6875 170.714844 66.582031 170.789062 66.464844 170.855469 Z M 66.019531 171.066406 C 66.148438 171.011719 66.261719 170.960938 66.378906 170.898438 C 66.261719 170.960938 66.148438 171.023438 66.019531 171.066406 Z M 67.175781 170.335938 C 67.269531 170.25 67.367188 170.164062 67.460938 170.070312 C 67.558594 169.972656 67.644531 169.878906 67.726562 169.769531 C 67.644531 169.867188 67.546875 169.972656 67.460938 170.070312 C 67.367188 170.164062 67.269531 170.25 67.175781 170.335938 Z M 67.800781 169.695312 C 67.84375 169.644531 67.886719 169.589844 67.929688 169.539062 C 67.90625 169.570312 67.886719 169.601562 67.855469 169.621094 C 67.84375 169.65625 67.824219 169.675781 67.800781 169.695312 Z M 68.578125 168.6875 C 68.988281 168.105469 69.402344 167.507812 69.871094 167 C 69.425781 167.550781 69.074219 168.210938 68.585938 168.667969 C 68.585938 168.675781 68.578125 168.675781 68.578125 168.6875 Z M 71.230469 165.960938 C 71.25 165.949219 71.269531 165.9375 71.28125 165.925781 C 71.269531 165.9375 71.25 165.949219 71.230469 165.960938 Z M 71.738281 165.738281 C 71.757812 165.726562 71.769531 165.726562 71.792969 165.714844 C 71.769531 165.726562 71.757812 165.738281 71.738281 165.738281 Z M 72.238281 165.640625 C 72.226562 165.640625 72.207031 165.640625 72.183594 165.640625 C 72.207031 165.640625 72.226562 165.640625 72.238281 165.640625 Z M 73.042969 165.800781 C 73.023438 165.789062 73 165.777344 72.980469 165.769531 C 73 165.777344 73.023438 165.789062 73.042969 165.800781 Z M 72.863281 165.726562 C 72.84375 165.714844 72.832031 165.714844 72.808594 165.703125 C 72.832031 165.714844 72.84375 165.714844 72.863281 165.726562 Z M 73.140625 165.851562 C 73.160156 165.863281 73.179688 165.875 73.191406 165.886719 C 73.179688 165.875 73.160156 165.863281 73.140625 165.851562 Z M 73.308594 165.960938 C 73.328125 165.96875 73.339844 165.980469 73.363281 165.992188 C 73.339844 165.980469 73.320312 165.96875 73.308594 165.960938 Z M 73.777344 166.394531 C 73.796875 166.414062 73.808594 166.4375 73.828125 166.449219 C 73.816406 166.425781 73.796875 166.40625 73.777344 166.394531 Z M 73.914062 166.554688 C 73.925781 166.574219 73.945312 166.597656 73.957031 166.617188 C 73.945312 166.597656 73.933594 166.574219 73.914062 166.554688 Z M 74.050781 166.734375 C 74.0625 166.753906 74.074219 166.765625 74.09375 166.789062 C 74.074219 166.765625 74.0625 166.746094 74.050781 166.734375 Z M 74.199219 166.96875 C 74.210938 166.96875 74.210938 166.96875 74.199219 166.96875 C 74.210938 166.96875 74.210938 166.96875 74.199219 166.96875 Z M 74.328125 167.160156 C 74.339844 167.179688 74.347656 167.203125 74.371094 167.222656 C 74.347656 167.203125 74.339844 167.179688 74.328125 167.160156 Z M 74.445312 167.359375 C 74.453125 167.382812 74.476562 167.414062 74.488281 167.433594 C 74.464844 167.402344 74.453125 167.382812 74.445312 167.359375 Z M 74.550781 167.5625 C 74.5625 167.582031 74.582031 167.617188 74.59375 167.636719 C 74.582031 167.617188 74.570312 167.582031 74.550781 167.5625 Z M 74.667969 167.773438 C 74.675781 167.796875 74.6875 167.816406 74.699219 167.839844 C 74.6875 167.828125 74.675781 167.808594 74.667969 167.773438 Z M 75.855469 170.003906 C 75.898438 170.058594 75.929688 170.109375 75.972656 170.164062 C 75.929688 170.109375 75.898438 170.058594 75.855469 170.003906 Z M 74.910156 168.261719 C 74.933594 168.304688 74.953125 168.347656 74.972656 168.378906 C 74.953125 168.347656 74.933594 168.304688 74.910156 168.261719 Z M 75.046875 168.527344 C 75.070312 168.582031 75.101562 168.625 75.125 168.675781 C 75.089844 168.636719 75.070312 168.582031 75.046875 168.527344 Z M 75.15625 168.761719 C 75.175781 168.804688 75.199219 168.859375 75.230469 168.902344 C 75.207031 168.859375 75.1875 168.816406 75.15625 168.761719 Z M 75.273438 168.976562 C 75.347656 169.113281 75.410156 169.25 75.484375 169.378906 C 75.410156 169.25 75.335938 169.113281 75.273438 168.976562 Z M 75.515625 169.441406 C 75.535156 169.484375 75.570312 169.527344 75.589844 169.582031 C 75.558594 169.527344 75.535156 169.484375 75.515625 169.441406 Z M 75.621094 169.644531 C 75.644531 169.6875 75.675781 169.730469 75.695312 169.761719 C 75.675781 169.71875 75.652344 169.6875 75.621094 169.644531 Z M 75.738281 169.824219 C 75.757812 169.867188 75.792969 169.910156 75.8125 169.941406 C 75.792969 169.910156 75.769531 169.867188 75.738281 169.824219 Z M 75.738281 169.824219 " fill-opacity="1" fill-rule="nonzero"/><path fill="#ff9cb1" d="M 99.878906 149.691406 C 99.75 145.476562 96.738281 141.175781 92.492188 140.445312 C 93.523438 135.199219 92.089844 129.136719 87.09375 126.4375 C 84.960938 125.292969 82.359375 124.898438 80.023438 125.378906 C 79.835938 125.417969 79.632812 125.460938 79.453125 125.515625 C 77.5625 126.238281 75.527344 127.148438 74.625 129.1875 C 74.167969 128.730469 73.722656 128.285156 73.179688 127.839844 C 73.03125 127.722656 72.894531 127.605469 72.734375 127.488281 C 71.980469 126.925781 71.164062 126.46875 70.199219 126.238281 C 69.796875 126.097656 69.394531 125.992188 68.988281 125.917969 C 68.417969 125.8125 67.867188 125.757812 67.324219 125.75 C 66.78125 125.738281 66.261719 125.78125 65.742188 125.867188 C 64.300781 126.121094 63.003906 126.621094 61.816406 127.289062 C 61.519531 127.457031 61.234375 127.636719 60.949219 127.828125 C 58.632812 129.261719 56.832031 131.25 55.269531 133.382812 C 55.046875 133.691406 54.824219 134 54.601562 134.316406 C 53.117188 135.996094 51.980469 137.800781 51.535156 140.074219 C 53.574219 137.8125 56.054688 136.453125 57.582031 133.785156 C 57.804688 133.511719 58.019531 133.234375 58.253906 132.980469 C 58.941406 132.183594 59.707031 131.460938 60.671875 130.917969 C 61.023438 130.632812 61.394531 130.390625 61.773438 130.175781 C 62.113281 129.984375 62.476562 129.824219 62.835938 129.699219 C 63.195312 129.570312 63.558594 129.464844 63.929688 129.390625 C 67.589844 128.074219 70.539062 131.460938 72.746094 133.703125 C 73.117188 133.914062 73.53125 134.09375 73.988281 134.210938 C 74.359375 134.296875 74.730469 134.347656 75.113281 134.371094 C 76.609375 134.421875 78.09375 133.828125 79.292969 132.277344 C 79.601562 132.023438 79.917969 131.78125 80.246094 131.566406 C 81.882812 130.464844 83.726562 129.867188 85.363281 131.332031 C 85.53125 131.523438 85.691406 131.726562 85.828125 131.9375 C 86.785156 133.425781 86.910156 135.390625 86.59375 137.132812 C 86.136719 139.167969 83.652344 140.296875 84.554688 142.566406 C 85.691406 144.828125 88.851562 143.703125 89.988281 145.730469 C 90.667969 147.3125 89.308594 148.894531 88.175781 149.128906 C 83.421875 150.488281 82.976562 144.605469 80.480469 141.65625 C 80.257812 141.398438 80.015625 141.15625 79.769531 140.921875 C 79.503906 140.613281 79.207031 140.328125 78.902344 140.09375 C 78.507812 139.859375 78.105469 139.679688 77.691406 139.519531 C 77.339844 139.371094 76.980469 139.253906 76.621094 139.160156 C 74.148438 138.257812 71.429688 138.492188 68.949219 139.617188 C 67.8125 140.074219 67.132812 141.65625 67.8125 143.011719 C 69.625 145.273438 72.332031 145.507812 74.785156 145.976562 C 75.113281 146.050781 75.453125 146.136719 75.769531 146.230469 C 76.097656 146.328125 76.417969 146.441406 76.734375 146.582031 C 77.105469 146.699219 77.457031 146.824219 77.796875 146.964844 C 80.140625 147.929688 81.617188 149.34375 80.035156 151.828125 C 78.222656 154.542969 73.703125 151.828125 70.539062 153.867188 C 68.957031 155 68.726562 156.804688 69.402344 158.386719 C 70.539062 160.203125 73.023438 160.648438 74.835938 159.746094 C 80.949219 156.582031 87.503906 159.066406 89.085938 165.863281 C 89.542969 168.804688 88.40625 171.300781 85.925781 172.660156 C 82.527344 174.242188 78.230469 173.117188 75.972656 170.164062 C 75.410156 169.410156 74.964844 168.261719 74.414062 167.308594 C 74.230469 166.988281 74.039062 166.691406 73.828125 166.449219 C 72.691406 165.089844 71.121094 165.460938 69.945312 166.542969 C 68.746094 167.648438 67.75 168.964844 66.519531 170.027344 C 65.511719 170.898438 64.4375 171.40625 63.304688 171.617188 C 62.921875 171.691406 62.539062 171.726562 62.144531 171.734375 C 60.226562 171.96875 58.816406 171.628906 57.816406 170.917969 C 57.488281 170.683594 57.191406 170.398438 56.945312 170.089844 C 54.921875 167 56.277344 162.699219 56.734375 159.300781 C 56.734375 158.398438 54.019531 157.484375 52.214844 157.859375 C 51.855469 157.898438 51.492188 157.972656 51.132812 158.070312 C 50.0625 158.335938 49.019531 158.78125 48.128906 159.300781 C 48.808594 158.28125 49.996094 157.644531 51.121094 157.582031 C 51.492188 157.558594 51.863281 157.601562 52.203125 157.71875 C 51.863281 157.835938 51.523438 157.890625 51.21875 157.972656 C 50.910156 158.058594 50.625 158.175781 50.398438 158.398438 C 50.699219 158.28125 51.070312 158.25 51.484375 158.25 C 53.117188 158.398438 56.96875 158.855469 55.832031 156.136719 C 55.832031 156.136719 55.375 156.136719 55.175781 156.03125 C 54.6875 155.925781 54.113281 155.839844 53.742188 155.542969 C 53.433594 155.414062 53.148438 155.296875 52.925781 155.171875 C 52.597656 154.949219 52.308594 154.683594 52.109375 154.34375 C 51.886719 154.054688 51.695312 153.726562 51.558594 153.355469 C 51.503906 153.089844 51.492188 152.8125 51.535156 152.515625 C 51.757812 150.933594 55.832031 152.292969 58.328125 152.738281 C 59.226562 152.738281 60.140625 152.960938 61.03125 152.507812 C 61.414062 152.324219 61.710938 152.050781 61.933594 151.71875 C 62.039062 151.5625 62.136719 151.378906 62.210938 151.199219 C 62.210938 151.199219 60.660156 151.199219 58.484375 151.199219 C 57.765625 151.199219 56.96875 151.199219 56.140625 151.199219 C 55.3125 151.199219 54.453125 151.199219 53.59375 151.199219 C 52.734375 151.199219 51.875 151.199219 51.046875 151.199219 C 47.738281 151.199219 44.988281 151.199219 44.988281 151.199219 C 44.945312 151.371094 44.902344 151.539062 44.863281 151.71875 C 44.722656 152.285156 44.605469 152.867188 44.523438 153.453125 C 44.480469 153.738281 44.4375 154.035156 44.40625 154.332031 C 44.375 154.628906 44.339844 154.925781 44.320312 155.222656 C 43.855469 159.3125 44.078125 163.613281 46.367188 167.265625 C 46.546875 167.691406 46.730469 168.105469 46.929688 168.519531 C 49.160156 173.03125 52.734375 176.757812 57.457031 178.402344 C 62.953125 180.324219 68.789062 177.882812 72.257812 173.476562 C 77.4375 182.832031 93.679688 178.191406 95.6875 168.453125 C 96.269531 165.628906 95.589844 162.847656 93.851562 160.628906 C 97.796875 158.6875 100.003906 154.003906 99.878906 149.691406 Z M 99.878906 149.691406 " fill-opacity="1" fill-rule="nonzero"/><path fill="#ffb0bb" d="M 278.039062 144.859375 C 267.195312 142.960938 258.601562 134.816406 255.429688 124.398438 C 249.316406 127.117188 247.960938 134.816406 252.9375 139.5625 C 264.46875 150.660156 279.632812 156.765625 295.324219 157.699219 C 297.511719 157.792969 299.6875 157.785156 301.808594 157.667969 C 304.746094 157.445312 305.203125 152.230469 302.710938 149.746094 C 301.296875 148.332031 299.761719 147.460938 298.136719 146.953125 C 296.511719 146.433594 294.816406 146.253906 293.074219 146.1875 C 289.59375 146.125 285.964844 146.359375 282.632812 145.625 C 281.179688 145.414062 279.652344 145.160156 278.039062 144.859375 Z M 278.039062 144.859375 " fill-opacity="1" fill-rule="nonzero"/><path fill="#ffb0bb" d="M 280.988281 160.609375 C 279.25 162.835938 278.570312 165.621094 279.15625 168.433594 C 281.160156 178.171875 297.40625 182.808594 302.582031 173.457031 C 306.050781 177.871094 311.886719 180.304688 317.382812 178.382812 C 327.550781 174.824219 332.398438 161.660156 329.980469 151.699219 C 329.640625 150.296875 329.097656 148.9375 328.378906 147.6875 C 327.78125 146.667969 326.964844 145.785156 326.296875 144.808594 C 324.949219 142.8125 323.804688 140.699219 322.625 138.605469 C 322.425781 138.246094 322.210938 137.875 322 137.511719 C 319.898438 133.023438 316.738281 129.179688 312.492188 126.960938 C 312.046875 126.726562 311.589844 126.535156 311.132812 126.386719 C 307.433594 125.195312 303.175781 126.726562 300.195312 129.316406 C 297.957031 124.835938 291.941406 124.167969 287.75 126.429688 C 282.75 129.125 281.320312 135.175781 282.347656 140.433594 C 278.105469 141.167969 275.089844 145.464844 274.964844 149.683594 C 274.835938 154.003906 277.042969 158.6875 280.988281 160.609375 Z M 301.191406 166.246094 C 301.183594 166.257812 301.160156 166.277344 301.148438 166.289062 C 301.171875 166.277344 301.183594 166.257812 301.191406 166.246094 Z M 302.457031 165.640625 C 302.433594 165.640625 302.414062 165.640625 302.390625 165.640625 C 302.414062 165.640625 302.433594 165.640625 302.457031 165.640625 Z M 307.898438 147.378906 C 308.027344 146.972656 308.183594 146.582031 308.398438 146.242188 C 308.332031 146.378906 308.28125 146.507812 308.226562 146.644531 C 308.101562 146.890625 307.992188 147.132812 307.898438 147.378906 Z M 299.335938 133.191406 C 299.421875 133.179688 299.515625 133.160156 299.613281 133.140625 C 299.515625 133.160156 299.421875 133.179688 299.335938 133.191406 Z M 298.953125 133.222656 C 299.039062 133.222656 299.125 133.214844 299.207031 133.203125 C 299.125 133.214844 299.039062 133.222656 298.953125 133.222656 Z M 298.761719 133.234375 C 298.785156 133.234375 298.804688 133.234375 298.828125 133.234375 C 298.804688 133.234375 298.785156 133.234375 298.761719 133.234375 Z M 294.804688 141.15625 C 294.867188 141.089844 294.941406 141.027344 295.007812 140.964844 C 294.941406 141.027344 294.867188 141.089844 294.804688 141.15625 Z M 294.347656 141.644531 C 294.453125 141.527344 294.5625 141.410156 294.679688 141.292969 C 294.5625 141.398438 294.453125 141.515625 294.347656 141.644531 Z M 300.832031 138.492188 C 301.394531 138.46875 301.957031 138.511719 302.507812 138.605469 C 301.957031 138.523438 301.394531 138.492188 300.832031 138.492188 Z M 306.65625 169.21875 C 306.625 169.175781 306.59375 169.132812 306.5625 169.089844 C 306.59375 169.132812 306.625 169.175781 306.65625 169.21875 Z M 300.886719 145.796875 C 299.972656 146.019531 299.039062 146.261719 298.15625 146.550781 C 299.039062 146.179688 299.960938 145.976562 300.886719 145.796875 Z M 304.546875 154.066406 C 304.460938 154.003906 304.386719 153.929688 304.289062 153.875 C 304.386719 153.929688 304.472656 153.992188 304.546875 154.066406 Z M 304.832031 154.320312 C 304.886719 154.375 304.9375 154.429688 304.980469 154.480469 C 305 154.503906 305.011719 154.523438 305.023438 154.542969 C 304.96875 154.46875 304.90625 154.394531 304.832031 154.320312 C 304.757812 154.246094 304.683594 154.183594 304.609375 154.109375 C 304.683594 154.183594 304.757812 154.246094 304.832031 154.320312 Z M 305.449219 155.191406 C 305.457031 155.214844 305.457031 155.234375 305.46875 155.246094 C 305.363281 155.023438 305.234375 154.800781 305.066406 154.597656 C 305.226562 154.789062 305.351562 154.980469 305.449219 155.191406 Z M 305.796875 156.765625 C 305.796875 156.785156 305.796875 156.804688 305.796875 156.828125 C 305.796875 156.796875 305.796875 156.773438 305.796875 156.742188 C 305.785156 156.753906 305.785156 156.753906 305.796875 156.765625 Z M 305.597656 157.921875 C 305.585938 157.953125 305.574219 157.996094 305.5625 158.027344 C 305.574219 157.996094 305.585938 157.964844 305.597656 157.921875 Z M 305.703125 157.550781 C 305.703125 157.558594 305.703125 157.582031 305.691406 157.59375 C 305.691406 157.613281 305.679688 157.632812 305.671875 157.65625 C 305.679688 157.625 305.691406 157.582031 305.703125 157.550781 Z M 305.765625 157.113281 C 305.765625 157.144531 305.753906 157.179688 305.753906 157.210938 C 305.765625 157.179688 305.765625 157.144531 305.765625 157.113281 Z M 297.765625 132.980469 C 297.746094 132.96875 297.734375 132.957031 297.710938 132.949219 C 297.734375 132.957031 297.746094 132.96875 297.765625 132.980469 Z M 298.507812 133.214844 Z M 298.210938 133.148438 C 298.230469 133.148438 298.253906 133.160156 298.273438 133.160156 C 298.242188 133.160156 298.222656 133.160156 298.210938 133.148438 Z M 300.789062 132.714844 C 300.4375 132.882812 300.066406 133.03125 299.71875 133.117188 C 300.066406 133 300.429688 132.863281 300.789062 132.714844 Z M 313.957031 171.523438 C 313.882812 171.535156 313.808594 171.542969 313.734375 171.554688 C 314.242188 171.480469 314.753906 171.351562 315.242188 171.183594 C 314.988281 171.300781 314.710938 171.394531 314.390625 171.425781 C 314.242188 171.480469 314.09375 171.511719 313.957031 171.523438 Z M 313.097656 171.640625 C 313.265625 171.628906 313.425781 171.609375 313.585938 171.585938 C 313.425781 171.609375 313.257812 171.628906 313.097656 171.640625 Z M 308.046875 170.640625 C 307.941406 170.566406 307.835938 170.484375 307.738281 170.398438 C 307.835938 170.484375 307.941406 170.566406 308.046875 170.640625 C 308.152344 170.714844 308.257812 170.78125 308.375 170.855469 C 308.257812 170.789062 308.152344 170.714844 308.046875 170.640625 Z M 308.460938 170.898438 C 308.578125 170.960938 308.695312 171.011719 308.820312 171.066406 C 308.695312 171.023438 308.578125 170.960938 308.460938 170.898438 Z M 307.378906 170.070312 C 307.28125 169.972656 307.199219 169.878906 307.113281 169.769531 C 307.199219 169.878906 307.28125 169.972656 307.378906 170.070312 C 307.472656 170.164062 307.570312 170.25 307.664062 170.335938 C 307.570312 170.25 307.472656 170.164062 307.378906 170.070312 Z M 306.984375 169.632812 C 306.964844 169.601562 306.945312 169.570312 306.910156 169.546875 C 306.953125 169.601562 306.996094 169.65625 307.039062 169.707031 C 307.019531 169.675781 306.996094 169.65625 306.984375 169.632812 Z M 306.253906 168.667969 C 305.765625 168.222656 305.414062 167.5625 304.96875 167 C 305.4375 167.507812 305.851562 168.105469 306.265625 168.6875 C 306.265625 168.675781 306.253906 168.675781 306.253906 168.667969 Z M 303.546875 165.925781 C 303.570312 165.9375 303.589844 165.949219 303.601562 165.960938 C 303.589844 165.949219 303.570312 165.9375 303.546875 165.925781 Z M 303.050781 165.726562 C 303.070312 165.726562 303.082031 165.738281 303.101562 165.746094 C 303.09375 165.738281 303.070312 165.726562 303.050781 165.726562 Z M 302.644531 165.640625 C 302.625 165.640625 302.613281 165.640625 302.59375 165.640625 C 302.613281 165.640625 302.636719 165.640625 302.644531 165.640625 Z M 301.859375 165.769531 C 301.839844 165.777344 301.820312 165.789062 301.796875 165.800781 C 301.820312 165.789062 301.839844 165.777344 301.859375 165.769531 Z M 302.03125 165.703125 C 302.007812 165.714844 302 165.714844 301.976562 165.726562 C 302 165.714844 302.019531 165.714844 302.03125 165.703125 Z M 301.636719 165.886719 C 301.660156 165.875 301.679688 165.863281 301.691406 165.851562 C 301.679688 165.863281 301.660156 165.875 301.636719 165.886719 Z M 301.488281 165.992188 C 301.5 165.980469 301.523438 165.96875 301.542969 165.960938 C 301.523438 165.96875 301.5 165.980469 301.488281 165.992188 Z M 301.011719 166.449219 C 301.035156 166.425781 301.042969 166.40625 301.066406 166.394531 C 301.042969 166.40625 301.035156 166.425781 301.011719 166.449219 Z M 300.886719 166.617188 C 300.894531 166.597656 300.917969 166.574219 300.925781 166.554688 C 300.917969 166.574219 300.894531 166.597656 300.886719 166.617188 Z M 300.757812 166.789062 C 300.769531 166.765625 300.777344 166.753906 300.800781 166.734375 C 300.777344 166.746094 300.769531 166.765625 300.757812 166.789062 Z M 300.628906 166.96875 C 300.628906 166.96875 300.640625 166.96875 300.628906 166.96875 C 300.640625 166.96875 300.628906 166.96875 300.628906 166.96875 Z M 300.480469 167.222656 C 300.492188 167.203125 300.503906 167.179688 300.523438 167.160156 C 300.503906 167.179688 300.492188 167.203125 300.480469 167.222656 Z M 300.363281 167.433594 C 300.375 167.414062 300.398438 167.382812 300.40625 167.359375 C 300.386719 167.382812 300.375 167.402344 300.363281 167.433594 Z M 300.25 167.636719 C 300.257812 167.617188 300.28125 167.582031 300.289062 167.5625 C 300.28125 167.582031 300.257812 167.617188 300.25 167.636719 Z M 300.140625 167.847656 C 300.152344 167.828125 300.164062 167.808594 300.175781 167.785156 C 300.164062 167.808594 300.152344 167.828125 300.140625 167.847656 Z M 298.867188 170.164062 C 298.910156 170.109375 298.941406 170.058594 298.984375 170.003906 C 298.953125 170.058594 298.910156 170.109375 298.867188 170.164062 Z M 299.867188 168.390625 C 299.886719 168.347656 299.910156 168.304688 299.929688 168.273438 C 299.910156 168.304688 299.886719 168.347656 299.867188 168.390625 Z M 299.71875 168.675781 C 299.738281 168.625 299.769531 168.582031 299.792969 168.527344 C 299.769531 168.582031 299.75 168.636719 299.71875 168.675781 Z M 299.613281 168.902344 C 299.632812 168.859375 299.664062 168.804688 299.6875 168.761719 C 299.652344 168.816406 299.632812 168.859375 299.613281 168.902344 Z M 299.367188 169.378906 C 299.441406 169.25 299.503906 169.113281 299.578125 168.976562 C 299.503906 169.113281 299.429688 169.25 299.367188 169.378906 Z M 299.25 169.570312 C 299.273438 169.527344 299.304688 169.484375 299.324219 169.429688 C 299.304688 169.484375 299.28125 169.527344 299.25 169.570312 Z M 299.144531 169.761719 C 299.164062 169.71875 299.199219 169.6875 299.21875 169.644531 C 299.1875 169.6875 299.164062 169.71875 299.144531 169.761719 Z M 299.027344 169.953125 C 299.050781 169.910156 299.082031 169.878906 299.101562 169.835938 C 299.082031 169.867188 299.050781 169.910156 299.027344 169.953125 Z M 299.027344 169.953125 " fill-opacity="1" fill-rule="nonzero"/><path fill="#ff9cb1" d="M 274.972656 149.691406 C 275.101562 145.476562 278.113281 141.175781 282.359375 140.445312 C 281.859375 140.527344 282.273438 134.507812 282.390625 133.988281 C 282.847656 131.875 283.8125 129.847656 285.328125 128.285156 C 288.652344 124.867188 294.273438 124.207031 298.242188 126.894531 C 298.285156 126.925781 298.328125 126.949219 298.359375 126.980469 C 299.144531 127.53125 299.875 128.234375 300.175781 129.136719 C 302.445312 126.546875 306.117188 125.28125 309.488281 125.929688 C 312.332031 126.46875 314.804688 128.222656 316.894531 130.230469 C 318.988281 132.234375 320.789062 134.519531 322.921875 136.484375 C 322.265625 137.207031 321.320312 137.757812 320.355469 137.652344 C 318.636719 137.472656 317.808594 135.675781 316.917969 134.433594 C 314.59375 131.195312 310.296875 130.21875 306.582031 131.386719 C 304.652344 132.003906 302.996094 133.363281 301.074219 133.914062 C 299.1875 134.464844 297.320312 133.765625 295.84375 132.574219 C 294.050781 131.121094 291.613281 129.378906 289.46875 131.3125 C 289.296875 131.503906 289.140625 131.707031 289 131.917969 C 288.046875 133.402344 287.917969 135.367188 288.238281 137.109375 C 288.695312 139.148438 291.175781 140.273438 290.273438 142.546875 C 289.140625 144.808594 285.976562 143.683594 284.839844 145.710938 C 284.164062 147.292969 285.519531 148.875 286.65625 149.109375 C 291.527344 150.085938 292.140625 144.246094 294.59375 141.367188 C 297.445312 138.011719 302.199219 138.382812 305.914062 140.019531 C 306.785156 140.402344 307.324219 141.167969 307.175781 142.152344 C 306.953125 143.757812 305.214844 144.710938 303.824219 145.179688 C 301.957031 145.816406 299.960938 145.976562 298.082031 146.570312 C 297.710938 146.6875 297.363281 146.816406 297.023438 146.953125 C 294.679688 147.917969 293.203125 149.332031 294.785156 151.816406 C 296.597656 154.535156 301.117188 151.816406 304.28125 153.855469 C 305.859375 154.992188 306.09375 156.796875 305.414062 158.378906 C 304.28125 160.195312 301.796875 160.640625 299.984375 159.738281 C 293.871094 156.574219 287.3125 159.058594 285.734375 165.851562 C 285.277344 168.792969 286.410156 171.289062 288.894531 172.648438 C 292.289062 174.230469 296.585938 173.105469 298.847656 170.152344 C 299.410156 169.398438 299.855469 168.253906 300.40625 167.296875 C 300.585938 166.980469 300.777344 166.679688 300.992188 166.4375 C 301.425781 165.832031 302.296875 165.417969 303.175781 165.546875 C 303.472656 165.585938 303.769531 165.683594 304.058594 165.851562 C 305.96875 167.246094 307.421875 169.316406 309.425781 170.714844 C 309.714844 170.917969 310.011719 171.097656 310.316406 171.269531 C 310.933594 171.460938 311.589844 171.617188 312.269531 171.714844 C 312.609375 171.757812 312.960938 171.800781 313.308594 171.808594 C 318.691406 172.425781 321.628906 166.765625 319.761719 161.925781 C 319.738281 161.5625 319.71875 161.214844 319.730469 160.851562 C 319.738281 160.492188 319.761719 160.128906 319.824219 159.757812 C 318.464844 159.980469 317.109375 161.574219 315.527344 160.660156 C 314.847656 160.4375 315.527344 159.078125 316.207031 158.621094 C 318.464844 157.71875 320.503906 158.84375 322.765625 158.84375 C 321.863281 157.484375 319.601562 158.84375 319.367188 157.484375 C 319.144531 156.582031 320.726562 156.128906 321.746094 155.339844 C 322 155.140625 322.222656 154.9375 322.394531 154.746094 C 322.710938 154.449219 322.976562 154.121094 323.144531 153.714844 C 323.292969 153.34375 323.359375 152.941406 323.292969 152.496094 C 323.09375 151.105469 319.953125 151.976562 317.5 152.515625 C 317.152344 152.589844 316.8125 152.664062 316.503906 152.71875 C 315.972656 152.71875 315.527344 152.71875 315.144531 152.773438 C 314.921875 152.773438 314.6875 152.75 314.464844 152.707031 C 314.242188 152.664062 314.019531 152.589844 313.789062 152.472656 C 313.40625 152.292969 313.109375 152.019531 312.886719 151.6875 C 312.78125 151.53125 312.683594 151.347656 312.609375 151.167969 L 329.832031 151.167969 C 329.875 151.339844 329.914062 151.507812 329.957031 151.6875 C 330.023438 151.976562 330.085938 152.261719 330.148438 152.546875 C 331.125 157.242188 331.347656 162.222656 328.726562 166.332031 C 328.632812 166.628906 328.535156 166.925781 328.453125 167.234375 C 328.28125 167.660156 328.089844 168.074219 327.890625 168.488281 C 325.660156 173 322.085938 176.726562 317.363281 178.371094 C 311.867188 180.292969 306.03125 177.851562 302.5625 173.445312 C 297.382812 182.800781 281.136719 178.160156 279.132812 168.421875 C 278.550781 165.597656 279.230469 162.816406 280.96875 160.597656 C 277.042969 158.6875 274.835938 154.003906 274.972656 149.691406 Z M 274.972656 149.691406 " fill-opacity="1" fill-rule="nonzero"/><path fill="#ff7f8c" d="M 218.558594 169.71875 C 215.609375 169.21875 212.839844 168.835938 210.238281 168.5625 C 202.683594 167.839844 194.980469 167.09375 187.542969 167.433594 C 180.105469 167.09375 172.402344 167.839844 164.847656 168.5625 C 162.246094 168.847656 159.488281 169.230469 156.527344 169.71875 C 148.324219 182.660156 147.390625 197.175781 150.691406 211.117188 C 151.242188 213.445312 151.902344 215.746094 152.664062 218.019531 C 155 228.710938 167.765625 238.140625 159.976562 249.046875 C 153.132812 258.773438 147.835938 272.914062 160.601562 279.390625 C 170.714844 284.53125 183.105469 284.234375 194.214844 283.417969 C 203.671875 282.726562 216.945312 282.503906 221.210938 272.671875 C 224.605469 264.855469 219.640625 255.480469 215.109375 249.046875 C 207.332031 238.140625 220.085938 228.710938 222.417969 218.019531 C 223.171875 215.757812 223.839844 213.445312 224.394531 211.117188 C 227.691406 197.175781 226.757812 182.660156 218.558594 169.71875 Z M 218.558594 169.71875 " fill-opacity="1" fill-rule="nonzero"/><path fill="#f9435e" d="M 213.804688 183.648438 C 209.210938 182.746094 204.6875 185.019531 201.15625 187.652344 C 199.894531 188.574219 198.664062 189.574219 197.441406 190.582031 C 196.464844 191.378906 195.488281 192.1875 194.511719 192.941406 C 189.761719 196.5625 185.1875 195.65625 180.996094 193.023438 C 179.605469 192.144531 178.246094 191.082031 176.953125 189.925781 C 174.988281 188.375 173.269531 185.625 171.511719 183.457031 C 169.75 181.292969 167.933594 179.699219 165.789062 180.496094 C 149.046875 189.554688 159.457031 212.191406 163.574219 226.226562 C 164.0625 227.363281 164.570312 228.488281 165.089844 229.605469 C 166.648438 232.9375 168.359375 236.199219 170.164062 239.394531 C 170.597656 240.464844 170.957031 241.582031 171.222656 242.75 C 172.582031 248.410156 167.382812 252.253906 165.675781 257.265625 C 165.238281 258.507812 164.929688 259.75 164.804688 260.96875 C 164.421875 264.621094 165.652344 268.019531 169.84375 270.144531 C 176.496094 273.519531 184.636719 273.328125 191.945312 272.789062 C 198.164062 272.332031 206.886719 272.183594 209.699219 265.726562 C 210.257812 264.441406 210.472656 263.09375 210.429688 261.722656 C 210.472656 260.152344 210.164062 258.730469 209.65625 257.382812 C 209.144531 256.03125 208.433594 254.769531 207.660156 253.496094 C 205.613281 249.992188 202.671875 246.59375 203.574219 242.515625 C 207.191406 228.933594 217.378906 218.296875 217.441406 204.035156 C 217.550781 202.675781 217.601562 201.316406 217.613281 199.96875 C 217.644531 195.902344 217.230469 191.847656 216.285156 187.875 C 215.628906 186.25 214.800781 184.871094 213.804688 183.648438 Z M 213.804688 183.648438 " fill-opacity="1" fill-rule="nonzero"/><path fill="#ff7f8c" d="M 371.019531 111.085938 C 361.652344 90.410156 339.210938 91.058594 318.296875 92.449219 C 316.207031 92.589844 314.128906 92.738281 312.078125 92.875 C 310.03125 93.011719 308.015625 93.128906 306.042969 93.214844 C 302.421875 93.648438 298.570312 93.425781 294.859375 93.171875 C 293.667969 93.085938 292.472656 92.980469 291.273438 92.863281 C 287.230469 92.140625 283.238281 91.113281 279.34375 89.828125 C 266.21875 85.730469 254.910156 78.265625 242.695312 71.703125 C 214.25 56.414062 180.59375 54.851562 150.023438 64.34375 C 127.421875 71.363281 109.078125 87.90625 85.617188 92.175781 C 84.027344 92.515625 82.421875 92.789062 80.808594 93.023438 C 80.152344 93.121094 79.496094 93.203125 78.835938 93.277344 C 75.527344 93.492188 72.152344 93.617188 68.957031 93.234375 C 66.984375 93.152344 64.96875 93.023438 62.921875 92.894531 C 60.875 92.757812 58.792969 92.609375 56.703125 92.472656 C 35.789062 91.070312 13.347656 90.433594 3.980469 111.105469 C 0.648438 118.453125 0 127.628906 3.351562 135.0625 C 4.796875 138.457031 6.972656 141.316406 9.539062 143.832031 C 10.398438 144.671875 11.300781 145.476562 12.234375 146.242188 C 18.046875 150.679688 24.382812 154.535156 30.390625 158.6875 C 31.28125 159.238281 32.128906 159.820312 32.945312 160.4375 C 35.398438 162.265625 37.550781 164.324219 39.621094 166.480469 C 42.378906 169.355469 44.976562 172.414062 47.917969 175.355469 C 49.871094 176.980469 53.53125 177.9375 55.027344 175.230469 C 55.90625 173.625 55.429688 172.296875 54.464844 171.109375 C 54.273438 170.875 54.0625 170.632812 53.839844 170.410156 C 52.457031 169.027344 50.644531 167.667969 49.742188 165.851562 C 49.0625 164.71875 49.519531 163.136719 51.101562 163.359375 C 54.527344 163.929688 57.542969 168.570312 60.789062 164.824219 C 63.027344 162.242188 61.773438 158.6875 58.730469 157.613281 C 57.847656 157.304688 56.90625 157.210938 55.992188 156.988281 C 55.078125 156.765625 54.167969 156.371094 53.59375 155.628906 C 52.628906 154.363281 53.222656 152.632812 54.890625 152.75 C 57.371094 152.921875 61.117188 153.886719 63.101562 151.847656 C 64.054688 150.871094 64.320312 149.4375 63.78125 148.183594 C 62.847656 145.953125 60.140625 145.273438 57.765625 145.945312 C 57.425781 146.050781 57.085938 146.167969 56.746094 146.292969 C 55.523438 146.75 54.070312 147.472656 52.746094 147.28125 C 50.855469 147.015625 50.601562 145.03125 51.503906 143.660156 C 52.308594 142.535156 53.507812 141.644531 54.527344 140.65625 C 55.410156 139.914062 56.246094 138.511719 56.492188 137.183594 C 56.746094 135.855469 56.40625 134.605469 54.929688 134.167969 C 53.117188 133.722656 51.078125 134.636719 49.722656 136.175781 C 48.417969 137.269531 47.21875 138.542969 45.847656 139.519531 C 44.597656 140.445312 43.300781 141.242188 41.984375 141.898438 C 32.808594 146.550781 22.601562 144.785156 15.714844 135.601562 C 7.988281 125.300781 13.09375 111.445312 24.5 106.722656 C 28.785156 104.949219 33.222656 104.183594 37.742188 104.085938 C 48.46875 103.855469 59.769531 106.273438 70.242188 108.417969 C 82.328125 110.894531 97.042969 114.207031 106.839844 122.128906 C 112.832031 126.480469 115.328125 134.167969 113.96875 141.421875 C 112.152344 152.960938 109.671875 164.058594 113.097656 175.039062 C 113.332031 175.929688 113.597656 176.800781 113.894531 177.671875 C 119.867188 197.589844 137.535156 214.367188 155.476562 223.996094 C 157.589844 225.1875 159.773438 226.3125 162.023438 227.203125 C 166.535156 228.988281 171.308594 229.847656 176.335938 228.542969 C 177.578125 228.222656 178.765625 227.777344 179.902344 227.214844 C 181.527344 226.398438 183.179688 225.25 184.296875 223.921875 C 184.902344 223.203125 185.558594 222.4375 186.523438 222.128906 C 188.6875 221.429688 190.511719 224.261719 191.710938 225.324219 C 193.75 227.121094 196.390625 228.308594 199.214844 228.925781 C 200.59375 229.222656 201.992188 229.371094 203.394531 229.382812 C 223.914062 225.644531 242.464844 211.148438 254.09375 193.949219 C 255.324219 192.039062 256.457031 190.082031 257.476562 188.078125 C 261.339844 180.515625 263.621094 172.332031 263.578125 163.972656 C 263.714844 156.59375 262.210938 149.109375 261.011719 141.421875 C 259.652344 134.179688 262.144531 126.480469 268.140625 122.128906 C 269.53125 121.003906 270.972656 120.003906 272.46875 119.101562 C 285.402344 111.285156 299.984375 110.191406 314.328125 106.871094 C 326.816406 103.980469 342.117188 100.816406 353.621094 108.417969 C 362.574219 114.335938 365.949219 126.714844 359.273438 135.613281 C 352.390625 144.785156 342.179688 146.558594 333.003906 141.910156 C 331.6875 141.242188 330.402344 140.453125 329.140625 139.53125 C 327.773438 138.554688 326.574219 137.28125 325.269531 136.1875 C 323.910156 134.636719 321.871094 133.734375 320.058594 134.179688 C 318.582031 134.613281 318.242188 135.867188 318.5 137.195312 C 318.753906 138.523438 319.582031 139.914062 320.460938 140.667969 C 321.480469 141.65625 322.679688 142.558594 323.484375 143.671875 C 324.386719 145.042969 324.132812 147.027344 322.242188 147.292969 C 320.917969 147.472656 319.464844 146.761719 318.242188 146.304688 C 317.90625 146.179688 317.566406 146.0625 317.226562 145.953125 C 314.847656 145.285156 312.132812 145.964844 311.210938 148.195312 C 310.679688 149.4375 310.933594 150.882812 311.886719 151.859375 C 313.871094 153.898438 317.628906 152.929688 320.101562 152.761719 C 321.765625 152.644531 322.359375 154.375 321.394531 155.636719 C 320.832031 156.382812 319.910156 156.773438 318.996094 156.996094 C 318.085938 157.21875 317.140625 157.316406 316.257812 157.625 C 313.214844 158.695312 311.960938 162.253906 314.203125 164.832031 C 317.457031 168.570312 320.460938 163.941406 323.890625 163.367188 C 325.46875 163.144531 325.925781 164.726562 325.246094 165.863281 C 324.34375 167.679688 322.53125 169.027344 321.152344 170.417969 C 320.929688 170.652344 320.714844 170.886719 320.523438 171.121094 C 319.558594 172.308594 319.070312 173.636719 319.960938 175.238281 C 321.449219 177.945312 325.121094 177.003906 327.070312 175.367188 C 330.011719 172.425781 332.609375 169.367188 335.371094 166.488281 C 337.4375 164.335938 339.59375 162.273438 342.042969 160.449219 C 342.859375 159.84375 343.710938 159.25 344.601562 158.695312 C 350.605469 154.535156 356.941406 150.691406 362.753906 146.253906 C 363.6875 145.476562 364.589844 144.679688 365.449219 143.84375 C 368.027344 141.324219 370.203125 138.46875 371.636719 135.070312 C 375 127.605469 374.351562 118.433594 371.019531 111.085938 Z M 371.019531 111.085938 " fill-opacity="1" fill-rule="nonzero"/><path fill="#ff7f8c" d="M 174.089844 235.113281 C 182.195312 238.449219 191.617188 238.320312 199.851562 235.519531 C 200.878906 235.167969 200.433594 233.53125 199.394531 233.882812 C 191.40625 236.601562 182.386719 236.707031 174.535156 233.480469 C 173.527344 233.054688 173.089844 234.699219 174.089844 235.113281 Z M 174.089844 235.113281 " fill-opacity="1" fill-rule="nonzero"/><path fill="#ff7f8c" d="M 177.421875 246.117188 C 183.785156 248.101562 191.054688 248.335938 197.355469 246.007812 C 198.375 245.636719 197.929688 243.992188 196.902344 244.375 C 190.851562 246.605469 183.964844 246.390625 177.867188 244.480469 C 176.824219 244.152344 176.378906 245.796875 177.421875 246.117188 Z M 177.421875 246.117188 " fill-opacity="1" fill-rule="nonzero"/><path fill="#ff7f8c" d="M 174.089844 254.738281 C 182.597656 258.230469 192.371094 257.878906 201.027344 255.140625 C 202.070312 254.8125 201.621094 253.175781 200.574219 253.503906 C 192.167969 256.160156 182.789062 256.488281 174.535156 253.101562 C 173.527344 252.675781 173.089844 254.324219 174.089844 254.738281 Z M 174.089844 254.738281 " fill-opacity="1" fill-rule="nonzero"/><path fill="#ff7f8c" d="M 171.847656 263.113281 C 181.898438 267.585938 193.230469 266.214844 203.488281 263.230469 C 204.539062 262.925781 204.09375 261.289062 203.035156 261.597656 C 193.273438 264.429688 182.300781 265.917969 172.699219 261.648438 C 171.710938 261.214844 170.851562 262.679688 171.847656 263.113281 Z M 171.847656 263.113281 " fill-opacity="1" fill-rule="nonzero"/><path fill="#300000" d="M 198.777344 184.679688 C 197.441406 189.265625 193.84375 192.917969 188.902344 193.246094 C 183.394531 193.609375 179.488281 189.691406 177.71875 184.816406 C 176.710938 182.046875 181.070312 180.707031 182.078125 183.46875 C 183.148438 186.421875 185.355469 189.023438 188.761719 188.691406 C 191.617188 188.417969 193.578125 186.261719 194.34375 183.617188 C 195.160156 180.792969 199.605469 181.84375 198.777344 184.679688 Z M 198.777344 184.679688 " fill-opacity="1" fill-rule="nonzero"/><path fill="#ffffff" d="M 207.246094 171.839844 C 207.183594 170.632812 207.277344 169.421875 207.511719 168.230469 C 208.796875 161.839844 214.515625 156.945312 220.871094 156.085938 C 231.460938 154.660156 240.691406 165.886719 236.574219 175.972656 C 232.753906 185.347656 219.246094 187.863281 211.757812 181.449219 C 208.953125 179.039062 207.425781 175.496094 207.246094 171.839844 Z M 207.246094 171.839844 " fill-opacity="1" fill-rule="nonzero"/><path fill="#300000" d="M 223.300781 180.507812 C 221.601562 180.664062 219.871094 180.410156 218.3125 179.710938 C 214.546875 178 212.519531 174.125 212.390625 170.109375 C 212.382812 169.707031 212.445312 169.261719 212.730469 168.953125 C 213.433594 168.210938 214.417969 169.132812 214.949219 169.621094 C 216.382812 170.929688 218.078125 171.066406 219.757812 170.132812 C 221.242188 169.304688 222.472656 167.699219 222.292969 165.925781 C 222.226562 165.300781 221.984375 164.695312 221.625 164.175781 C 221.1875 163.550781 220.667969 163.230469 219.988281 162.945312 C 219.4375 162.710938 218.589844 162.433594 218.789062 161.660156 C 218.949219 161.054688 219.839844 160.628906 220.394531 160.480469 C 221.878906 160.097656 223.542969 160.449219 224.976562 160.851562 C 227.097656 161.445312 229.105469 162.679688 230.453125 164.441406 C 233.15625 167.964844 233.113281 173.339844 230.34375 176.8125 C 228.636719 178.957031 226.007812 180.25 223.300781 180.507812 Z M 223.300781 180.507812 " fill-opacity="1" fill-rule="nonzero"/><path fill="#ffffff" d="M 138.894531 171.839844 C 138.828125 170.632812 138.925781 169.421875 139.15625 168.230469 C 140.441406 161.839844 146.160156 156.945312 152.515625 156.085938 C 163.105469 154.660156 172.335938 165.886719 168.21875 175.972656 C 164.402344 185.347656 150.894531 187.863281 143.402344 181.449219 C 140.589844 179.039062 139.0625 175.496094 138.894531 171.839844 Z M 138.894531 171.839844 " fill-opacity="1" fill-rule="nonzero"/><path fill="#300000" d="M 154.9375 180.507812 C 153.238281 180.664062 151.507812 180.410156 149.949219 179.710938 C 146.183594 178 144.15625 174.125 144.027344 170.109375 C 144.019531 169.707031 144.082031 169.261719 144.367188 168.953125 C 145.066406 168.210938 146.054688 169.132812 146.585938 169.621094 C 148.019531 170.929688 149.714844 171.066406 151.390625 170.132812 C 152.878906 169.304688 154.109375 167.699219 153.929688 165.925781 C 153.863281 165.300781 153.621094 164.695312 153.257812 164.175781 C 152.824219 163.550781 152.304688 163.230469 151.625 162.945312 C 151.074219 162.710938 150.226562 162.433594 150.425781 161.660156 C 150.585938 161.054688 151.476562 160.628906 152.027344 160.480469 C 153.515625 160.097656 155.179688 160.449219 156.613281 160.851562 C 158.734375 161.445312 160.738281 162.679688 162.085938 164.441406 C 164.792969 167.964844 164.75 173.339844 161.980469 176.8125 C 160.273438 178.957031 157.652344 180.25 154.9375 180.507812 Z M 154.9375 180.507812 " fill-opacity="1" fill-rule="nonzero"/><path fill="#f9435e" d="M 235.832031 192.832031 C 236.660156 198.757812 230.832031 201.839844 225.78125 202.410156 C 219.320312 203.144531 209.921875 199.449219 209.921875 191.761719 C 209.921875 187.109375 214.015625 184.414062 218.113281 183.5 C 224.445312 182.097656 232.765625 183.882812 235.269531 190.667969 C 235.542969 191.421875 235.734375 192.152344 235.832031 192.832031 Z M 235.832031 192.832031 " fill-opacity="1" fill-rule="nonzero"/><path fill="#f9435e" d="M 140.632812 192.832031 C 139.804688 198.757812 145.628906 201.839844 150.679688 202.410156 C 157.144531 203.144531 166.542969 199.449219 166.542969 191.761719 C 166.542969 187.109375 162.449219 184.414062 158.351562 183.5 C 152.019531 182.097656 143.699219 183.882812 141.195312 190.667969 C 140.910156 191.421875 140.726562 192.152344 140.632812 192.832031 Z M 140.632812 192.832031 " fill-opacity="1" fill-rule="nonzero"/><path fill="#ffffff" d="M 160.421875 74.28125 C 159.550781 73.847656 158.648438 73.519531 157.789062 73.316406 C 151.402344 71.882812 143.339844 74.207031 140.398438 80.621094 C 137.066406 87.894531 146.882812 90.910156 152.261719 90.007812 C 156.421875 89.308594 161.863281 87.394531 164.421875 83.816406 C 167.171875 79.964844 164.082031 76.140625 160.421875 74.28125 Z M 160.421875 74.28125 " fill-opacity="1" fill-rule="nonzero"/><path fill="#ffffff" d="M 131.941406 85.050781 C 126.890625 83.5 119.867188 88.4375 121.734375 94.097656 C 123.316406 98.886719 130.097656 99.351562 133.554688 96.453125 C 136.132812 94.289062 137.101562 90.359375 135.148438 87.460938 C 134.296875 86.207031 133.183594 85.433594 131.941406 85.050781 Z M 131.941406 85.050781 " fill-opacity="1" fill-rule="nonzero"/></svg>